<?xml version="1.0" encoding="UTF-8"?>
<svg width="40px" height="27px" viewBox="0 0 40 27" version="1.1" xmlns="http://www.w3.org/2000/svg" xmlns:xlink="http://www.w3.org/1999/xlink">
    <!-- Generator: Sketch 52.6 (67491) - http://www.bohemiancoding.com/sketch -->
    <title>crunchbase-seeklogo.com</title>
    <desc>Created with Sketch.</desc>
    <g id="Page-1" stroke="none" stroke-width="1" fill="none" fill-rule="evenodd">
        <g id="crunchbase-seeklogo.com" fill="#869FAA">
            <path d="M14.63,19.62 C13.5976333,21.8207934 11.1692281,23.0025701 8.80034428,22.4569861 C6.43146046,21.9114021 4.76463866,19.7864425 4.79895383,17.3557852 C4.83326899,14.9251279 6.5594134,12.8480691 8.94275479,12.3695753 C11.3260962,11.8910815 13.7201724,13.1409404 14.69,15.37 L18.69,15.37 C17.6141217,10.9421737 13.3987123,8.01706043 8.87437458,8.5588428 C4.35003687,9.10062516 0.944465425,12.938339 0.944465425,17.495 C0.944465425,22.051661 4.35003687,25.8893748 8.87437458,26.4311572 C13.3987123,26.9729396 17.6141217,24.0478263 18.69,19.62 L14.69,19.62 L14.63,19.62 Z" id="Path"></path>
            <path d="M30.71,8.47 L30.05,8.47 C28.4714056,8.58529835 26.9523174,9.12043169 25.65,10.02 L25.65,0 L22,0 L22,25.77 L25.67,25.77 L25.67,24.83 C28.8590964,27.073438 33.1300993,27.0081578 36.2491424,24.6683031 C39.3681854,22.3284484 40.6257763,18.2462684 39.3641561,14.5568695 C38.102536,10.8674707 34.6086869,8.41008452 30.71,8.47 Z M35.87,18.11 L35.87,18.27 C35.836628,18.4827351 35.7898685,18.693153 35.73,18.9 C35.6615451,19.1220997 35.5780178,19.3392706 35.48,19.55 L35.48,19.63 C34.7814554,21.0827677 33.4475272,22.1284787 31.87,22.46 L31.38,22.54 L31.27,22.54 C31.0834753,22.5502965 30.8965247,22.5502965 30.71,22.54 C30.4758024,22.5392382 30.2419283,22.5225329 30.01,22.49 L29.85,22.49 C29.3973614,22.4160591 28.9567374,22.2815174 28.54,22.09 L28.44,22.09 C28.019867,21.8836061 27.6296481,21.6212176 27.28,21.31 C26.9283448,20.9898981 26.6221686,20.6231596 26.37,20.22 C26.2452309,20.0146115 26.1349625,19.8007576 26.04,19.58 C25.4445701,18.221293 25.4664515,16.6713568 26.1,15.33 C26.8732113,13.6970148 28.4428236,12.5861539 30.24,12.4 C30.4165477,12.3908321 30.5934523,12.3908321 30.77,12.4 C33.5405332,12.4363558 35.7898486,14.6503879 35.87,17.42 C35.8854251,17.6497414 35.8854251,17.8802586 35.87,18.11 Z" id="Shape" fill-rule="nonzero"></path>
        </g>
    </g>
</svg>