<?xml version="1.0" encoding="UTF-8"?>
<svg height="60" viewBox="0 0 1991 499" width="256" xmlns="http://www.w3.org/2000/svg" xmlns:xlink="http://www.w3.org/1999/xlink">
    <!-- Generator: Sketch 52.6 (67491) - http://www.bohemiancoding.com/sketch -->
    <title>Artboard</title>
    <desc>Created with Sketch.</desc>
    <defs>
        <polygon id="path-1" points="150 0 300 94 150 188 0 94"></polygon>
    </defs>
    <g id="Artboard" stroke="none" stroke-width="1" fill="none" fill-rule="evenodd">
        <g id="Group-2" transform="translate(128.000000, 110.000000)">
            <g id="Group" transform="translate(0.000000, 92.000000)">
                <mask id="mask-2" fill="white">
                    <use xlink:href="#path-1"></use>
                </mask>
                <use id="Mask" fill-opacity="0.5" fill="#FFFFFF" fill-rule="nonzero" xlink:href="#path-1"></use>
                <polygon id="Mask" fill-opacity="0.25" fill="#000000" fill-rule="nonzero" mask="url(#mask-2)" points="150 -57.8461538 300 36.1538462 150 130.153846 0 36.1538462"></polygon>
            </g>
            <path d="M150,0 L300,94 L150,188 L0,94 L150,0 Z M150.461538,50.6153846 L81.9230769,94 L150.461538,137.384615 L219,94 L150.461538,50.6153846 Z" id="Combined-Shape" fill="#FFFFFF" fill-rule="nonzero"></path>
        </g>
        <g id="fp" transform="translate(575.000000, 169.000000)" fill="#FFFFFF">
            <g id="Group">
                <path d="M3.89087383,11 L91.8844774,11 C94.0333476,11 95.775351,12.7320459 95.775351,14.8686327 L95.775351,34.7077748 C95.775351,36.8443616 94.0333476,38.5764075 91.8844774,38.5764075 L32.8230111,38.5764075 C30.6741409,38.5764075 28.9321374,40.3084533 28.9321374,42.4450402 L28.9321374,68.533512 C28.9321374,70.6700988 30.6741409,72.4021447 32.8230111,72.4021447 L91.8844774,72.4021447 C94.0333476,72.4021447 95.775351,74.1341905 95.775351,76.2707774 L95.775351,95.3163538 C95.775351,97.4529406 94.0333476,99.1849865 91.8844774,99.1849865 L32.8230111,99.1849865 C30.6741409,99.1849865 28.9321374,100.917032 28.9321374,103.053619 L28.9321374,155.032171 C28.9590463,156.075274 28.5610264,157.084953 27.8284091,157.83206 C27.0957919,158.579167 26.0907081,159.000343 25.0412638,159 L3.89087383,159 C1.72596157,158.94617 -0.000676650797,157.185381 1.98927748e-07,155.032171 L1.98927748e-07,14.8686327 C0.052535863,12.7540603 1.76414469,11.0522354 3.89087383,11 Z" id="Path"></path>
                <path d="M112.778872,104.421558 C112.615392,89.1007835 118.660275,74.364165 129.540763,63.5583038 C140.421252,52.7524427 155.213963,46.7943869 170.559559,47.0371768 C185.740412,46.4789819 200.474078,52.2268621 211.253597,62.9126866 C222.033116,73.5985111 227.894318,88.2664908 227.442101,103.425301 L227.442101,113.985621 L145.511282,113.985621 C144.149032,113.992675 142.884442,114.692778 142.157,115.842618 C141.429559,116.992458 141.339718,118.433256 141.9187,119.664284 C147.29931,131.13314 159.20361,138.10522 171.85688,137.1984 C181.732306,137.699175 191.218455,133.299655 197.204539,125.442572 C198.30417,123.810603 200.472449,123.291093 202.194236,124.247064 L218.360853,134.20963 C219.33971,134.775511 220.023536,135.738533 220.234304,136.847984 C220.445073,137.957434 220.161929,139.103538 219.458586,139.987919 C207.984275,154.656467 190.077335,162.832941 171.457704,161.905564 C155.825706,162.817446 140.535511,157.092868 129.359118,146.144049 C118.182724,135.195231 112.160783,120.041633 112.778872,104.421558 Z M146.908397,91.96835 L193.811545,91.96835 C195.173795,91.9612958 196.438385,91.2611935 197.165826,90.1113534 C197.893268,88.9615133 197.983109,87.5207152 197.404127,86.2896874 C192.436619,76.1691017 181.82147,70.0628795 170.559559,70.8477098 C159.346769,70.4805798 148.869405,76.402614 143.415609,86.1900617 C142.734437,87.4080808 142.759615,88.8971721 143.481576,90.0915469 C144.203536,91.2859218 145.511461,92.0022467 146.908397,91.96835 Z" id="Shape" fill-rule="nonzero"></path>
                <path d="M238.440718,129.048366 C238.440718,105.919957 257.125987,92.0028615 288.135583,92.0028615 L316.958605,92.0028615 L316.958605,90.6011397 C316.958605,78.4862584 309.305596,70.5765425 293.20446,70.5765425 C283.805073,69.9664817 274.768066,74.3286609 269.350924,82.0906859 C268.226237,83.7399759 266.084983,84.3321076 264.282048,83.4924077 L245.994337,74.381216 C244.950815,73.8303963 244.203543,72.8417132 243.954077,71.6818374 C243.704611,70.5219617 243.978647,69.3103627 244.702271,68.3738368 C256.862659,54.1616956 274.792039,46.3104043 293.403239,47.0476407 C325.903681,47.0476407 344.191392,63.7681794 344.191392,91.8026156 L344.191392,155.781204 C344.218199,156.834057 343.82168,157.853175 343.091826,158.607266 C342.361972,159.361357 341.360679,159.78647 340.315192,159.786123 L320.934195,159.786123 C318.738537,159.786123 316.958605,157.99306 316.958605,155.781204 L316.958605,142.765216 C307.500242,155.183402 292.736936,162.322069 277.202713,161.988829 C252.653449,161.988829 238.440718,148.572349 238.440718,129.048366 Z M316.759826,119.036068 L316.759826,113.128812 L291.216665,113.128812 C274.320411,113.128812 267.860078,118.235084 267.860078,127.045907 C267.860078,135.85673 273.525293,139.060665 284.955112,139.060665 C298.655999,138.996644 311.103283,131.013667 316.958605,118.535453 L316.759826,119.036068 Z" id="Shape" fill-rule="nonzero"></path>
                <path d="M359.054608,48.5347454 L371.610676,48.5347454 C372.649664,48.5626998 373.654374,48.1587819 374.389311,47.4176665 C375.124248,46.6765511 375.524799,45.663395 375.497077,44.6156724 L375.497077,26.82911 C375.51964,25.4161245 376.276362,24.1188834 377.490104,23.4124822 L397.42037,11.554774 C398.629195,10.8264431 400.134146,10.8144677 401.354218,11.5234709 C402.574291,12.2324741 403.318601,13.5515301 403.299799,14.9714018 L403.299799,45.1181176 C403.299799,47.2825619 405.0398,49.0371907 407.186201,49.0371907 L428.312283,49.0371907 C430.458683,49.0371907 432.198684,50.7918195 432.198684,52.9562638 L432.198684,70.1398918 C432.225562,71.1965945 431.828,72.2194383 431.096225,72.9762865 C430.364449,73.7331347 429.360521,74.1598015 428.312283,74.1594539 L407.086549,74.1594539 C404.940149,74.1594539 403.200147,75.9140827 403.200147,78.078527 L403.200147,119.680995 C403.200147,131.438214 408.083062,135.457776 415.257958,135.457776 C417.744167,135.478013 420.189309,134.818179 422.333203,133.548484 C424.181412,132.56398 426.470794,133.229931 427.515072,135.05582 L436.38404,150.430645 C437.488337,152.183281 437.001397,154.504528 435.287876,155.656076 C428.284458,159.992901 420.185447,162.191734 411.969464,161.986886 C388.950007,161.986886 375.497077,150.93309 375.497077,120.685885 L375.497077,77.8775489 C375.524799,76.8298263 375.124248,75.8166701 374.389311,75.0755547 C373.654374,74.3344393 372.649664,73.9305215 371.610676,73.9584758 L359.054608,73.9584758 C358.00637,73.9588234 357.002441,73.5321566 356.270666,72.7753084 C355.538891,72.0184602 355.141328,70.9956164 355.168206,69.9389137 L355.168206,52.4538185 C355.168206,51.4144157 355.577665,50.4175841 356.306507,49.6826154 C357.035349,48.9476466 358.02387,48.5347454 359.054608,48.5347454 Z" id="Path"></path>
                <path d="M450.942278,115.958963 L450.942278,53.8857999 C450.994303,51.761844 452.689295,50.0524672 454.795376,50 L475.542827,50 C477.670835,50 479.395926,51.7397319 479.395926,53.8857999 L479.395926,112.073163 C479.395926,127.616362 486.509338,137.181408 501.625338,137.181408 C514.765391,137.181408 524.447535,127.217819 524.447535,110.478988 L524.447535,53.8857999 C524.447535,51.7397319 526.172626,50 528.300633,50 L548.85049,50 C550.994383,50.054069 552.704258,51.8226707 552.703588,53.9854358 L552.703588,155.912956 C552.703588,158.059024 550.978497,159.798756 548.85049,159.798756 L529.091012,159.798756 C528.052098,159.82563 527.046473,159.428129 526.302366,158.696467 C525.558259,157.964805 525.138775,156.961032 525.139117,155.912956 L525.139117,145.949367 C517.937286,156.2549 506.121317,162.269059 493.62275,161.990746 C466.552265,162.190018 450.942278,145.052644 450.942278,115.958963 Z" id="Path"></path>
                <path d="M580.650918,49.0645596 L600.180147,49.0645596 C602.261687,49.1170445 603.936927,50.8269976 603.988347,52.9516695 L603.988347,66.0083718 C608.651215,53.8415139 620.513013,46.1733748 633.28219,47.07117 C638.27375,47.0737534 643.22789,47.9502647 647.929112,49.6625765 C649.908371,50.4533392 650.937244,52.6849965 650.27262,54.7457202 L643.046805,74.6796169 C642.677187,75.6992464 641.91565,76.5205741 640.938568,76.9533769 C639.961486,77.3861797 638.853621,77.3929122 637.871559,76.972015 C634.438801,75.6604247 630.795381,75.0180665 627.130483,75.0782948 C612.971792,75.0782948 603.793055,82.3541671 603.793055,100.892691 L603.793055,155.013221 C603.793717,157.176715 602.103767,158.945913 599.984855,159 L580.455626,159 C578.336714,158.945913 576.646764,157.176715 576.647426,155.013221 L576.647426,52.9516695 C576.673002,51.8942003 577.109247,50.8904536 577.86012,50.1614092 C578.610992,49.4323649 579.614932,49.0377927 580.650918,49.0645596 Z" id="Path"></path>
                <path d="M653.509919,104.429901 C653.319114,89.116145 659.346779,74.376764 670.221093,63.5662517 C681.095407,52.7557394 695.891279,46.7937595 711.241359,47.0371822 C726.435516,46.4789062 741.182093,52.2276215 751.971058,62.9149985 C762.760023,73.6023756 768.626363,88.2724865 768.173749,103.433499 L768.173749,113.995354 L686.370894,113.995354 C685.007451,114.002409 683.741753,114.702613 683.013674,115.85262 C682.285595,117.002627 682.195675,118.443635 682.775164,119.674841 C688.045209,129.375311 697.767947,135.862621 708.767407,137.017662 C719.766866,138.172703 730.630557,133.847152 737.809808,125.453969 C738.873755,123.835732 741.010878,123.313619 742.703995,124.258288 L758.88478,134.222301 C759.880424,134.770706 760.586088,135.725803 760.816517,136.836852 C761.046946,137.947901 760.779122,139.103923 760.083356,140.001429 C748.546138,154.661038 730.601237,162.831874 711.940529,161.922259 C696.345314,162.74681 681.122842,156.982592 670.004119,146.042409 C658.885396,135.102225 652.898176,119.997326 653.509919,104.429901 Z M687.569471,91.9748836 L734.513722,91.9748836 C735.877165,91.9678283 737.142863,91.2676243 737.870942,90.1176171 C738.599021,88.9676099 738.688941,87.5266025 738.109452,86.2953958 C733.1586,76.1537669 722.519578,70.0382825 711.241359,70.8511747 C700.05416,70.5217702 689.61544,76.4394088 684.173504,86.1957557 C683.501007,87.3983351 683.51672,88.8661529 684.214808,90.0541311 C684.912895,91.2421093 686.189088,91.9728092 687.569471,91.9748836 Z" id="Shape" fill-rule="nonzero"></path>
                <path d="M786.157289,14.9301177 C786.157289,12.7944423 787.902225,11.0631353 790.054712,11.0631353 L844.918435,11.0631353 C859.638538,10.349681 874.000661,15.7079698 884.600017,25.8677277 C895.199373,36.0274857 901.092174,50.0840682 900.881431,64.7051217 C901.003131,79.3604277 895.064863,93.4246352 884.451485,103.617843 C873.838106,113.811052 859.477456,119.242154 844.718567,118.644568 L819.035549,118.644568 C816.90524,118.696781 815.190751,120.39788 815.138126,122.511551 L815.138126,155.033864 C815.138804,157.186156 813.40926,158.946193 811.240704,159 L790.054712,159 C789.003501,159.000343 787.996726,158.579347 787.262875,157.832559 C786.529025,157.08577 786.130335,156.076522 786.157289,155.033864 L786.157289,14.9301177 Z M815.138126,41.1066138 L815.138126,88.402783 C815.138126,90.5384584 816.883062,92.2697654 819.035549,92.2697654 L843.51936,92.2697654 C853.787792,92.882747 863.551946,87.7954958 868.872856,79.0602654 C874.193765,70.325035 874.193765,59.3826686 868.872856,50.6474382 C863.551946,41.9122078 853.787792,36.8249566 843.51936,37.4379383 L819.435285,37.4379383 C818.368251,37.3276442 817.30258,37.658625 816.489379,38.3528906 C815.676179,39.0471562 815.187368,40.0433061 815.138126,41.1066138 Z" id="Shape" fill-rule="nonzero"></path>
                <path d="M912.90129,104.432501 C912.710485,89.118052 918.73816,74.3780037 929.612494,63.5670018 C940.486827,52.756 955.282726,46.7937501 970.632833,47.0371839 C985.827017,46.4788826 1000.57362,52.2278582 1011.3626,62.9157192 C1022.15159,73.6035801 1028.01794,88.2743553 1027.56532,103.436055 L1027.56532,113.998387 L945.662442,113.998387 C944.298997,114.005443 943.033296,114.705678 942.305216,115.855738 C941.577136,117.005797 941.487216,118.44687 942.066706,119.678132 C947.33676,129.379041 957.059516,135.866644 968.058995,137.021738 C979.058474,138.176831 989.922184,133.851085 997.101447,125.457522 C998.165397,123.839211 1000.30252,123.317074 1001.99564,124.261786 L1018.27634,134.226251 C1019.25606,134.792239 1019.94048,135.755445 1020.15144,136.865107 C1020.36239,137.974769 1020.079,139.121091 1019.37504,140.00564 C1007.8378,154.665913 989.892864,162.837118 971.232123,161.927463 C955.653744,162.723036 940.458221,156.945694 929.361918,146.0084 C918.265616,135.071106 912.291729,119.982392 912.90129,104.432501 Z M946.960903,91.97692 L993.705474,91.97692 C995.06892,91.9698645 996.334621,91.2696287 997.062701,90.1195695 C997.790781,88.9695102 997.880701,87.5284376 997.301211,86.2971751 C992.35035,76.1550869 981.711309,70.0393256 970.43307,70.8522547 C959.387892,70.6722036 949.139256,76.5693809 943.764693,86.1975304 C943.106939,87.3695235 943.102471,88.7972829 943.752879,89.9733496 C944.403286,91.1494164 945.616344,91.9070312 946.960903,91.97692 Z" id="Shape" fill-rule="nonzero"></path>
                <path d="M1042.59794,104.421558 C1042.40714,89.1100268 1048.43477,74.372787 1059.30902,63.5638451 C1070.18327,52.7549032 1084.97906,46.7937894 1100.32905,47.0371768 C1115.52312,46.4789819 1130.26961,52.2268621 1141.05851,62.9126866 C1151.84742,73.5985111 1157.71372,88.2664908 1157.26111,103.425301 L1157.26111,113.985621 L1075.35885,113.985621 C1073.99541,113.992675 1072.72972,114.692778 1072.00165,115.842618 C1071.27357,116.992458 1071.18365,118.433256 1071.76314,119.664284 C1077.12632,131.153222 1089.05631,138.134271 1101.72738,137.1984 C1111.6114,137.699175 1121.10581,133.299655 1127.09711,125.442572 C1128.1977,123.810603 1130.36786,123.291093 1132.09115,124.247064 L1148.27184,134.20963 C1149.26748,134.757956 1149.97314,135.712913 1150.20357,136.823801 C1150.43399,137.934689 1150.16617,139.090543 1149.47041,139.987919 C1137.93326,154.645398 1119.98846,162.815047 1101.32786,161.905564 C1085.68225,162.817446 1070.37875,157.092868 1059.19262,146.144049 C1048.0065,135.195231 1041.97932,120.041633 1042.59794,104.421558 Z M1076.6573,91.96835 L1123.40152,91.96835 C1124.76495,91.9612958 1126.03064,91.2611935 1126.75872,90.1113534 C1127.48679,88.9615133 1127.57671,87.5207152 1126.99723,86.2896874 C1122.0464,76.1495317 1111.40744,70.0349357 1100.12929,70.8477098 C1089.08419,70.667693 1078.83563,76.5637467 1073.46111,86.1900617 C1072.80336,87.3618314 1072.7989,88.7893188 1073.4493,89.9651614 C1074.0997,91.1410041 1075.31275,91.8984745 1076.6573,91.96835 Z" id="Shape" fill-rule="nonzero"></path>
                <path d="M1214.88388,118.386095 L1202.17294,132.489137 C1201.5383,133.203081 1201.18313,134.119438 1201.17208,135.071384 L1201.17208,156.027312 C1201.19908,157.071692 1200.79978,158.082608 1200.06481,158.83063 C1199.32984,159.578652 1198.32153,160.000343 1197.26872,160 L1177.2515,160 C1175.04045,160 1173.24805,158.221367 1173.24805,156.027312 L1173.24805,3.97268797 C1173.24805,1.7786331 1175.04045,2.09680093e-07 1177.2515,2.09680093e-07 L1197.26872,2.09680093e-07 C1198.32153,-0.000343281319 1199.32984,0.421347917 1200.06481,1.16937005 C1200.79978,1.91739218 1201.19908,2.92830802 1201.17208,3.97268797 L1201.17208,90.9745499 C1201.16869,92.6078976 1202.19821,94.0678256 1203.74576,94.6242246 C1205.29331,95.1806237 1207.02628,94.7139072 1208.07802,93.4574798 L1244.80963,51.7442583 C1245.53406,50.8375244 1246.64657,50.3223442 1247.81222,50.3538176 L1270.73194,50.3538176 C1272.26999,50.3565112 1273.66306,51.2552079 1274.28972,52.6490097 C1274.91639,54.0428115 1274.65981,55.6718519 1273.63444,56.8094352 L1240.7061,94.7486033 C1239.60393,96.1494902 1239.60393,98.1149417 1240.7061,99.5158286 L1278.33849,153.842334 C1279.13575,155.041775 1279.2182,156.574936 1278.55409,157.851759 C1277.88998,159.128581 1276.58284,159.950046 1275.13573,160 L1252.31609,160 C1251.03811,159.976826 1249.84809,159.349487 1249.11334,158.311607 L1220.68888,119.081316 C1220.05367,118.168144 1219.05431,117.569144 1217.94419,117.436192 C1216.83406,117.303241 1215.71978,117.649107 1214.88388,118.386095 Z" id="Path"></path>
            </g>
        </g>
    </g>
</svg>