<svg viewBox="0 0 800 600" xmlns="http://www.w3.org/2000/svg"><circle cx="203.22" cy="164.46" fill="#cfffea" r="35.22"/><path d="m518.94 141.74-1-.78a57.39 57.39 0 0 0 -76.19 6l-57.23 59.76a19.4 19.4 0 0 1 -1.75 1.64l-43.74 37c-17.88 15.13-44.27-3.11-36.41-25.27l.45-1.28a34.73 34.73 0 0 0 -12-39.48l-2.51-1.87c-26.81-20-64.68.87-62.16 34.21a45.6 45.6 0 0 1 -47.79 49l-3.66-.19a33.1 33.1 0 0 0 -33.31 42.83l11.17 36.16a27.24 27.24 0 0 1 -7.73 28.22 43.29 43.29 0 0 0 -1.59 62.59l.87.88a37.08 37.08 0 0 0 52 .58l.41-.39a8.81 8.81 0 0 1 12.61.41l28.57 31.2a145.61 145.61 0 0 0 152.43 40.15l43.6-14.18a23 23 0 0 0 13.02-32.8 57.68 57.68 0 0 1 23.19-78.29l18.53-10a62.7 62.7 0 0 0 23.28-88.48l-.21-.34c-3.62-5.78 10.49-36.33 24.26-63.25a59.15 59.15 0 0 0 -17.11-74.03zm-305.71 256.44a22.66 22.66 0 1 1 22.67-22.66 22.66 22.66 0 0 1 -22.67 22.66zm260-60a22.66 22.66 0 1 1 22.67-22.66 22.66 22.66 0 0 1 -22.67 22.66z" fill="#cfffea"/><circle cx="484.36" cy="423.68" fill="#cfffea" r="29.85"/><circle cx="107.62" cy="338.02" fill="#cfffea" r="29.85"/><path d="m254.67 417.46a14 14 0 0 0 14 14h439.6a14 14 0 0 0 14-14v-298.88h-467.6z" fill="#d9faff" stroke="#70004b" stroke-linecap="round" stroke-linejoin="round" stroke-width="4"/><path d="m268.65 419.81a2.35 2.35 0 0 1 -2.35-2.35v-287.25h444.3v287.25a2.35 2.35 0 0 1 -2.35 2.35z" fill="#fff"/><rect fill="#23d5f2" height="18.4" rx="9.2" width="421.03" x="277.93" y="141.84"/><path d="m708.25 89.77h-439.6a14 14 0 0 0 -14 14v14.83h467.58v-14.85a14 14 0 0 0 -13.98-13.98z" fill="#f2f2f2"/><path d="m622.13 89.77h16.89v28.81h-16.89z" fill="#fff"/><path d="m551.89 89.77h63.49v28.81h-63.49z" fill="#fff"/><path d="m525.55 89.77h9.46v28.81h-9.46z" fill="#fff"/><path d="m708.25 89.77h-439.6a14 14 0 0 0 -14 14v14.83h467.58v-14.85a14 14 0 0 0 -13.98-13.98z" fill="none" stroke="#70004b" stroke-linecap="round" stroke-linejoin="round" stroke-width="4"/><rect fill="#cce6ff" height="106.26" rx="11.08" width="421.03" x="277.93" y="174.65"/><circle cx="553.7" cy="206.98" fill="#ffe280" r="19.95"/><path d="m501.84 216.46a7.89 7.89 0 0 1 .84 0 19.25 19.25 0 0 1 38.13-3.75 12 12 0 1 1 5 23h-43.97a9.63 9.63 0 1 1 0-19.25z" fill="#fff"/><path d="m607.2 202.75h.85a19.25 19.25 0 0 1 38.12-3.75 12 12 0 1 1 5 23h-44a9.63 9.63 0 0 1 0-19.25z" fill="#fff"/><path d="m644.72 280.91h-142.15c11.72-17 29.15-61.46 75.76-58.54 31.8 2 55.5 36.12 66.39 58.54z" fill="#47b881"/><path d="m531.5 251.19c19.81 2.7 29.27 18.91 53.13 9.77 31.28-12 26.79-52.32 66.64-59.59 20.92-3.81 36.25 6.31 47.7 22.28v42.59a14.67 14.67 0 0 1 -14.67 14.67h-203.23s30.62-32.42 50.43-29.72z" fill="#57e09e"/><rect fill="#ccc" height="7.43" rx="3.71" width="94.11" x="441.4" y="374.12"/><rect fill="#ccc" height="7.43" rx="3.71" width="94.11" x="441.4" y="392.29"/><rect fill="#ccc" height="7.43" rx="3.71" width="94.11" x="585.48" y="374.12"/><rect fill="#ccc" height="7.43" rx="3.71" width="94.11" x="585.48" y="392.29"/><rect fill="#735dd0" height="69.83" rx="7.24" width="132.87" x="422.02" y="293.55"/><path d="m554.88 359.17v-54.4c-35.5-.9-66.43 58.6-66.43 58.6h62.23a4.2 4.2 0 0 0 4.2-4.2z" fill="#37248f"/><path d="m554.88 359.17v-17.62c-17 15.62-35.19-10.66-58.6-20.57s-49.53 42.39-49.53 42.39h103.93a4.2 4.2 0 0 0 4.2-4.2z" fill="#8c73f0"/><circle cx="445.17" cy="314" fill="#c9bff8" r="9.23"/><rect fill="#1070ca" height="69.83" rx="7.24" width="132.87" x="566.1" y="293.55"/><path d="m699 359.17v-54.4c-35.5-.9-66.44 58.6-66.44 58.6h62.23a4.21 4.21 0 0 0 4.21-4.2z" fill="#084b8a"/><path d="m699 359.17v-17.62c-17 15.62-35.19-10.66-58.61-20.57s-49.53 42.39-49.53 42.39h103.9a4.21 4.21 0 0 0 4.24-4.2z" fill="#599ede"/><circle cx="589.26" cy="314" fill="#a1d1ff" r="9.23"/><path d="m315.56 299.32-140.42-36.69 36.69-140.42 111.18 29.05 21.6 36.88z" fill="#ffe280"/><path d="m342.66 195.6-34.37-9a2.4 2.4 0 0 1 -1.72-3l9-34.36 7.47 1.95 21.6 36.88z" fill="#d9b74a"/><g stroke-linecap="round" stroke-linejoin="round" stroke-width="4"><path d="m315.56 299.32-140.42-36.69 36.69-140.42 111.18 29.05 21.6 36.88z" fill="none" stroke="#70004b"/><path d="m315.37 180.5 29.24 7.64-21.6-36.88z" fill="#fbecba" stroke="#70004b"/><path d="m219 175.33c5.62 1.47 3.09 11.14 8.7 12.61s8.14-8.21 13.75-6.74 3.08 11.14 8.69 12.6 8.14-8.21 13.75-6.74 3.08 11.14 8.7 12.61 8.14-8.21 13.75-6.75 3.08 11.15 8.7 12.61 8.14-8.21 13.76-6.74 3.08 11.14 8.7 12.61" fill="none" stroke="#d9b74a"/><path d="m214 194.3c5.61 1.46 3.08 11.14 8.69 12.6s8.14-8.21 13.76-6.74 3.08 11.14 8.69 12.61 8.14-8.21 13.75-6.75 3.08 11.14 8.69 12.61 8.14-8.21 13.76-6.74 3.08 11.14 8.69 12.61 8.15-8.21 13.76-6.75 3.09 11.15 8.7 12.61" fill="none" stroke="#d9b74a"/><path d="m209.09 213.26c5.61 1.47 3.08 11.14 8.69 12.61s8.14-8.21 13.75-6.75 3.08 11.15 8.69 12.61 8.14-8.21 13.75-6.74 3.09 11.14 8.7 12.6 8.14-8.2 13.75-6.74 3.09 11.14 8.7 12.61 8.14-8.21 13.76-6.74 3.08 11.14 8.7 12.61" fill="none" stroke="#d9b74a"/><path d="m204.13 232.23c5.61 1.46 3.08 11.14 8.7 12.6s8.13-8.21 13.75-6.74 3.08 11.14 8.69 12.61 8.14-8.21 13.75-6.75 3.08 11.14 8.69 12.61 8.14-8.21 13.76-6.74 3.08 11.14 8.69 12.6 8.15-8.2 13.76-6.74 3.09 11.15 8.71 12.61" fill="none" stroke="#d9b74a"/></g><path d="m347.01 409.72-132.73-58.71 58.71-132.73 105.09 46.49 15.42 39.86z" fill="#ff6e6b"/><path d="m390.38 311.69-32.49-14.37a2.42 2.42 0 0 1 -1.23-3.19l14.34-32.48 7.05 3.12 15.42 39.86z" fill="#ec4c47"/><path d="m347.01 409.72-132.73-58.71 58.71-132.73 105.09 46.49 15.42 39.86z" fill="none" stroke="#70004b" stroke-linecap="round" stroke-linejoin="round" stroke-width="4"/><path d="m365.86 292.41 27.64 12.22-15.42-39.86z" fill="#fae8e8" stroke="#70004b" stroke-linecap="round" stroke-linejoin="round" stroke-width="4"/><path d="m291.32 263.06c3.4 4.69-4.69 10.57-1.28 15.26s11.5-1.18 14.9 3.51-4.68 10.57-1.28 15.26 11.5-1.18 14.91 3.52-4.69 10.56-1.28 15.26 11.5-1.18 14.9 3.52-4.68 10.56-1.28 15.26 11.51-1.18 14.92 3.52-4.69 10.57-1.28 15.27" fill="none" stroke="#ec4c47" stroke-linecap="round" stroke-linejoin="round" stroke-width="4"/><path d="m286.31 289.53c2.81 3.87-5.29 9.74-2.49 13.6s10.9-2 13.7 1.85-5.29 9.74-2.49 13.6 10.9-2 13.7 1.85-5.29 9.74-2.48 13.6 10.89-2 13.7 1.86-5.29 9.73-2.49 13.6 10.9-2 13.71 1.85-5.29 9.74-2.48 13.61" fill="none" stroke="#ec4c47" stroke-linecap="round" stroke-linejoin="round" stroke-width="4"/><path d="m272.24 314.18c1.94 2.67-6.16 8.54-4.21 11.22s10-3.2 12-.53-6.15 8.55-4.21 11.23 10-3.2 12-.53-6.16 8.55-4.21 11.23 10-3.2 12-.53-6.15 8.55-4.21 11.23 10-3.2 12-.52-6.15 8.56-4.2 11.23" fill="none" stroke="#ec4c47" stroke-linecap="round" stroke-linejoin="round" stroke-width="4"/><path d="m330.76 452.91-144.34 15.14-15.13-144.34 114.28-11.99 33.21 26.91z" fill="#57e09e"/><path d="m319.58 346.3-35.32 3.7a2.43 2.43 0 0 1 -2.66-2.16l-3.7-35.32 7.67-.81 33.21 26.91z" fill="#47b881"/><path d="m330.76 452.91-144.34 15.14-15.13-144.34 114.28-11.99 33.21 26.91z" fill="none" stroke="#70004b" stroke-linecap="round" stroke-linejoin="round" stroke-width="4"/><path d="m288.72 341.78 30.06-3.15-33.21-26.91z" fill="#cfffea" stroke="#70004b" stroke-linecap="round" stroke-linejoin="round" stroke-width="4"/><circle cx="212.22" cy="372.87" fill="none" r="15.23" stroke="#47b881" stroke-linecap="round" stroke-linejoin="round" stroke-width="4"/><path d="m204.89 448.92 38.79-48.86 30.46 41.6z" fill="none" stroke="#47b881" stroke-linecap="round" stroke-linejoin="round" stroke-width="4"/><path d="m274.14 441.66-22.23-30.36 30.01-40.45 28.2 67.03z" fill="none" stroke="#47b881" stroke-linecap="round" stroke-linejoin="round" stroke-width="4"/></svg>