<svg viewBox="0 0 1282.42 961.69" xmlns="http://www.w3.org/2000/svg"><circle cx="600.85" cy="507.03" fill="#fae8e8" r="35.22"/><path d="m578.14 191.31-.78 1a57.38 57.38 0 0 0 6 76.2l59.75 57.22c.58.56 1.13 1.14 1.65 1.75 3.62 4.29 19.48 23 37 43.75 15.13 17.87-3.1 44.27-25.27 36.41l-1.27-.46a34.78 34.78 0 0 0 -39.49 12l-1.86 2.51c-20 26.82.87 64.68 34.21 62.16a45.6 45.6 0 0 1 49 47.79l-.19 3.66a33.11 33.11 0 0 0 42.84 33.32l36.15-11.17a27.26 27.26 0 0 1 28.23 7.72 43.29 43.29 0 0 0 62.59 1.6l.87-.87a37.07 37.07 0 0 0 .59-52l-.4-.41a8.83 8.83 0 0 1 .41-12.62l31.21-28.56a145.61 145.61 0 0 0 40.14-152.43l-14.22-43.56a22.94 22.94 0 0 0 -32.78-13.05 57.68 57.68 0 0 1 -78.28-23.19l-10-18.54a62.7 62.7 0 0 0 -88.44-23.25l-.33.2c-5.78 3.62-36.34-10.49-63.26-24.25a59.13 59.13 0 0 0 -74.07 17.07zm256.44 305.69a22.67 22.67 0 1 1 -22.67-22.66 22.66 22.66 0 0 1 22.67 22.66zm-60-260a22.67 22.67 0 1 1 -22.67-22.66 22.66 22.66 0 0 1 22.67 22.66z" fill="#fae8e8"/><circle cx="860.07" cy="225.89" fill="#fae8e8" r="29.85"/><circle cx="774.41" cy="602.63" fill="#fae8e8" r="29.85"/><circle cx="305.24" cy="668.46" fill="#cfffea" r="35.22"/><path d="m282.53 352.74-.78 1a57.36 57.36 0 0 0 6 76.19l59.76 57.23a22.48 22.48 0 0 1 1.64 1.74l37 43.75c15.13 17.88-3.1 44.27-25.26 36.41l-1.28-.45a34.73 34.73 0 0 0 -39.48 12l-1.87 2.5c-20 26.82.87 64.68 34.21 62.17a45.6 45.6 0 0 1 49 47.79l-.19 3.66a33.1 33.1 0 0 0 42.83 33.31l36.16-11.17a27.24 27.24 0 0 1 28.22 7.73 43.29 43.29 0 0 0 62.59 1.59l.88-.87a37.08 37.08 0 0 0 .58-52l-.39-.41a8.8 8.8 0 0 1 .41-12.61l31.2-28.57a145.61 145.61 0 0 0 40.15-152.43l-14.19-43.6a22.93 22.93 0 0 0 -32.77-13.06 57.68 57.68 0 0 1 -78.29-23.19l-10-18.54a62.7 62.7 0 0 0 -88.44-23.25l-.34.21c-5.78 3.62-36.33-10.49-63.25-24.26a59.15 59.15 0 0 0 -74.1 17.13zm256.47 305.7a22.66 22.66 0 1 1 -22.66-22.66 22.67 22.67 0 0 1 22.66 22.66zm-60-260a22.66 22.66 0 1 1 -22.66-22.66 22.67 22.67 0 0 1 22.66 22.66z" fill="#cfffea"/><circle cx="564.47" cy="387.32" fill="#cfffea" r="29.85"/><circle cx="478.81" cy="764.06" fill="#cfffea" r="29.85"/><circle cx="641.21" cy="501.53" fill="#4d4d4d" r="180.69"/><g fill="none" stroke-miterlimit="10"><circle cx="641.21" cy="501.53" r="180.69" stroke="#ec4c47" stroke-width="20"/><path d="m725.61 463.75c0 55.29-84.4 111.77-84.4 111.77s-84.4-56.48-84.4-111.77 37.79-88.48 84.4-88.48 84.4 33.18 84.4 88.48z" stroke="#23d5f2" stroke-width="10"/><path d="m641.21 575.52s-53.83 35-192.91 18.26" stroke="#23d5f2" stroke-width="10"/><path d="m641.21 575.52s53.83 35 192.91 18.26" stroke="#23d5f2" stroke-width="10"/><path d="m768.98 373.77-255.53 255.53" stroke="#ec4c47" stroke-width="20"/></g><path d="m201 486.6 187.11 146c6.73 6.73 37.72-13.33 69.21-44.82s51.55-62.47 44.81-69.21l-146-187.1z" fill="#57e09e"/><path d="m246.27 473.77-23.92-8.51-21.35 21.34 187.11 146c6.73 6.73 37.72-13.33 69.21-44.82s51.55-62.47 44.81-69.21a217.53 217.53 0 0 1 -207-13.9z" fill="#47b881"/><path d="m201 486.6 187.11 146c6.73 6.73 37.72-13.33 69.21-44.82s51.55-62.47 44.81-69.21l-146-187.1z" fill="none" stroke="#70004b" stroke-linecap="round" stroke-linejoin="round" stroke-width="4"/><path d="m297.21 427.72c-20.33 20.33-40.61 38.39-57.11 50.83-22.41 16.9-34.32 21-41.09 14.26s-2.65-18.68 14.26-41.09c12.44-16.5 30.49-36.78 50.82-57.12s40.62-38.38 57.12-50.82c22.41-16.91 34.32-21 41.09-14.26s2.64 18.68-14.26 41.09c-12.45 16.5-30.5 36.78-50.83 57.11z" fill="#f2f2f2"/><ellipse cx="279.56" cy="410.07" fill="#4d4d4d" rx="105.82" ry="15.32" transform="matrix(.70710678 -.70710678 .70710678 .70710678 -208.08 317.78)"/><path d="m297.21 427.72c-20.33 20.33-40.61 38.39-57.11 50.83-22.41 16.9-34.32 21-41.09 14.26s-2.65-18.68 14.26-41.09c12.44-16.5 30.49-36.78 50.82-57.12s40.62-38.38 57.12-50.82c22.41-16.91 34.32-21 41.09-14.26s2.64 18.68-14.26 41.09c-12.45 16.5-30.5 36.78-50.83 57.11z" fill="none" stroke="#70004b" stroke-linecap="round" stroke-linejoin="round" stroke-width="4"/><path d="m374 393.61a220.85 220.85 0 0 1 21.59 19.77q10.12 10.44 19.41 21.62t17.76 23a218.27 218.27 0 0 1 15.56 24.8 219.63 219.63 0 0 1 -21.62-19.8q-10.12-10.44-19.4-21.6t-17.75-23a222 222 0 0 1 -15.55-24.79z" fill="#a4edca"/><path d="m1081.42 489.15-187.11 146.05c-6.73 6.73-37.72-13.33-69.21-44.82s-51.55-62.47-44.81-69.21l146-187.1z" fill="#8c73f0"/><path d="m1036.15 476.33 23.92-8.52 21.35 21.34-187.11 146.05c-6.73 6.73-37.72-13.33-69.21-44.82s-51.55-62.47-44.81-69.21a217.52 217.52 0 0 0 207-13.9z" fill="#735dd0"/><path d="m1081.42 489.15-187.11 146.05c-6.73 6.73-37.72-13.33-69.21-44.82s-51.55-62.47-44.81-69.21l146-187.1z" fill="none" stroke="#70004b" stroke-linecap="round" stroke-linejoin="round" stroke-width="4"/><path d="m985.21 430.28c20.33 20.32 40.61 38.38 57.11 50.82 22.42 16.9 34.32 21 41.1 14.26s2.64-18.68-14.27-41.09c-12.44-16.5-30.49-36.78-50.82-57.11s-40.61-38.39-57.11-50.83c-22.42-16.91-34.32-21-41.1-14.26s-2.64 18.68 14.26 41.09c12.45 16.5 30.5 36.78 50.83 57.12z" fill="#f2f2f2"/><ellipse cx="1002.87" cy="412.62" fill="#4d4d4d" rx="15.32" ry="105.82" transform="matrix(.70710678 -.70710678 .70710678 .70710678 1.97 829.99)"/><path d="m985.21 430.28c20.33 20.32 40.61 38.38 57.11 50.82 22.42 16.9 34.32 21 41.1 14.26s2.64-18.68-14.27-41.09c-12.44-16.5-30.49-36.78-50.82-57.11s-40.61-38.39-57.11-50.83c-22.42-16.91-34.32-21-41.1-14.26s-2.64 18.68 14.26 41.09c12.45 16.5 30.5 36.78 50.83 57.12z" fill="none" stroke="#70004b" stroke-linecap="round" stroke-linejoin="round" stroke-width="4"/><path d="m908.44 396.16a220.85 220.85 0 0 0 -21.59 19.77q-10.12 10.44-19.41 21.59t-17.76 23a219.69 219.69 0 0 0 -15.56 24.8 217.38 217.38 0 0 0 21.6-19.76q10.14-10.44 19.4-21.6t17.75-23a222 222 0 0 0 15.57-24.8z" fill="#c9bff8"/></svg>