<svg id="Layer_1" data-name="Layer 1" xmlns="http://www.w3.org/2000/svg" viewBox="0 0 800 600"><defs><style>.cls-1{fill:#d9faff;}.cls-11,.cls-2{fill:#f29a41;}.cls-10,.cls-11,.cls-12,.cls-13,.cls-14,.cls-16,.cls-2,.cls-3,.cls-5,.cls-6,.cls-7,.cls-8,.cls-9{fill-rule:evenodd;}.cls-3{fill:#d9822b;}.cls-4,.cls-5{fill:none;}.cls-11,.cls-12,.cls-4,.cls-5,.cls-6,.cls-9{stroke:#70004b;stroke-linecap:round;stroke-linejoin:round;stroke-width:4px;}.cls-6{fill:#4d4d4d;}.cls-7{fill:#7d838d;}.cls-8{fill:#abb1ba;}.cls-9{fill:gray;}.cls-10,.cls-12,.cls-15{fill:#fff;}.cls-13{fill:#2b5761;}.cls-14{fill:#7ebecc;}.cls-16{fill:#ec4c47;}</style></defs><title>Save time by  gathering team feedback earlier</title><circle class="cls-1" cx="365.79" cy="108.66" r="35.22"/><path class="cls-1" d="M166.76,380.26c28.76,9.3,60.35,20.93,61.88,27.58,0,.12.05.25.08.38a62.7,62.7,0,0,0,79,46.09l20.2-6a57.69,57.69,0,0,1,71.76,39h0a22.94,22.94,0,0,0,32.41,13.94l40.86-20.8a145.59,145.59,0,0,0,79.39-136.17L550.47,302a8.82,8.82,0,0,1,8.63-9.21h.57A37.06,37.06,0,0,0,596,255.59v-1.24a43.29,43.29,0,0,0-45.39-43.12h0a27.25,27.25,0,0,1-25.42-14.5l-17.66-33.46a33.11,33.11,0,0,0-53.85-6.73l-2.45,2.72a45.61,45.61,0,0,1-68.43-.84h0c-21.79-25.36-63.3-13.32-68.14,19.76l-.45,3.1a34.75,34.75,0,0,0,19.43,36.4l1.22.58c21.23,10.12,15.46,41.67-7.88,43.62l-57.11,4.75a21.38,21.38,0,0,1-2.4.07l-82.72-1.79a57.39,57.39,0,0,0-58.1,49.66l-.17,1.28A59.14,59.14,0,0,0,166.76,380.26ZM491.93,281A22.66,22.66,0,1,1,524,281,22.66,22.66,0,0,1,491.93,281ZM265.65,422.43a22.66,22.66,0,1,1,32.05,0A22.66,22.66,0,0,1,265.65,422.43Z"/><circle class="cls-1" cx="350.29" cy="490.75" r="29.85"/><circle class="cls-1" cx="556.11" cy="163.79" r="29.85"/><path class="cls-2" d="M658.07,312.76,216.6,159.91c-55.89-19.35-96.82,28.75-47.87,45.46L572.06,343C636.48,365,698.23,326.67,658.07,312.76Z"/><path class="cls-3" d="M658.07,312.76l-8.53-2.95h0c-50.87,39.52-294.42-58.1-403.44-92.16s-84.9-54.72-84.9-54.72c-18.88,11.32-21.68,32.47,7.53,42.44L572.06,343C636.48,365,698.23,326.67,658.07,312.76Z"/><polyline class="cls-4" points="603.6 301.18 567.93 400.37 571.65 319.21 541.45 395.63"/><path class="cls-5" d="M658.07,312.76,216.6,159.91c-55.89-19.35-96.82,28.75-47.87,45.46L572.06,343C636.48,365,698.23,326.67,658.07,312.76Z"/><path class="cls-2" d="M622.57,409,450.25,349.3a78.69,78.69,0,0,1-17.09,8.45l-63.4,22.49L539.5,438.18C601.71,459.41,661.34,422.39,622.57,409Z"/><path class="cls-5" d="M622.57,409,450.25,349.3a78.69,78.69,0,0,1-17.09,8.45l-63.4,22.49L539.5,438.18C601.71,459.41,661.34,422.39,622.57,409Z"/><path class="cls-6" d="M483.33,394.1c-7.28-2.68-16.91,5.25-21.5,17.7s-2.43,24.55,4.75,27.33h0l8.61,3.33c7.29,2.67,16.92-5.25,21.5-17.7s2.43-24.55-4.75-27.33h0Z"/><path class="cls-7" d="M480.32,398.69c-5.67-2.07-13.16,4.09-16.72,13.77s-1.87,19.21,3.8,21.28,13.15-4.08,16.72-13.76S486,400.77,480.32,398.69Z"/><path class="cls-8" d="M477.81,405.49c-3.47-1.27-8.05,2.5-10.23,8.43s-1.14,11.75,2.32,13,8.05-2.5,10.23-8.42S481.28,406.77,477.81,405.49Z"/><path class="cls-9" d="M458.33,343.09l-5.41.94-11.63,7.89L469,416.51a3.19,3.19,0,0,0,3,1.89l.9,0a3.18,3.18,0,0,0,2.64-1.53h0a3.17,3.17,0,0,0,.37-2.44Z"/><path class="cls-2" d="M429.22,273.62c42.44-23.58,82.59,58.55,31,76.46l-259.35,90c-32.17,11.16-41.23-16.62-15.56-30.88Z"/><path class="cls-3" d="M429.22,273.62l-12.53,7c-.59,4.39-.16,10,1.91,17.18,9.29,32.13,21.55,49.53-9.74,58.25s-214.5,81.5-217.73,74.53c-2.24-4.81-9.41-10.94-3.28-22.8l-2.57,1.43c-25.67,14.26-16.61,42,15.56,30.88l259.35-90C511.81,332.17,471.66,250,429.22,273.62Z"/><path class="cls-10" d="M448.66,270.81c-12.85.74-19.06,15.58-13.87,33.15s19.8,31.2,32.64,30.45,19.06-15.58,13.88-33.15S461.51,270.06,448.66,270.81Z"/><path class="cls-5" d="M429.22,273.62c42.44-23.58,82.59,58.55,31,76.46l-259.35,90c-32.17,11.16-41.23-16.62-15.56-30.88Z"/><path class="cls-11" d="M222.36,340.48s-4.22-5.81-11.7-.62-10.35,15.29-10.35,15.29l-15,54,60.82-33.8Z"/><path class="cls-12" d="M196.28,409.18,254.2,377l-96.77-11.26c-31.5-3.66-34.52,11.24-18.76,18.79l54.9,26.3C194.43,410.26,195.33,409.71,196.28,409.18Z"/><polyline class="cls-4" points="209.81 282.27 226.87 200.93 238.79 286.34 259.74 180.48"/><line class="cls-4" x1="489.16" y1="268.59" x2="470.84" y2="282.25"/><path class="cls-12" d="M317.77,426.38l-22.9-18.95-54.76,19,45.52,12.3C314.09,446.42,325.2,432.54,317.77,426.38Z"/><path class="cls-2" d="M392.86,333.38l-196.38-68c-54-18.69-93.49,27.77-46.22,43.9l177.11,60.44,54-24,9.61-5.42,1.87-7Z"/><path class="cls-3" d="M198,315.37c-49.59-19.42-56.75-36.77-55.4-46.82-17.85,11-20.29,31.18,7.7,40.73l177.11,60.44,54-24,9.61-5.42,1.87-7-44.6-15.45C316,326.14,253,336.94,198,315.37Z"/><path class="cls-5" d="M392.86,333.38l-196.38-68c-54-18.69-93.49,27.77-46.22,43.9l177.11,60.44,54-24,9.61-5.42,1.87-7Z"/><path class="cls-9" d="M407.18,318.92h0l-14.55,10.44.23,4-1.87,7-9.38,25.93,4.29-.25,1.42,4.91,24.45-45.86C414.37,320.2,409.69,317.17,407.18,318.92Z"/><path class="cls-6" d="M371.88,350.53c-8.29-1.81-17.53,8.19-20.66,22.35s1,26.93,9.19,28.88h0l9.81,2.33c8.29,1.82,17.54-8.19,20.66-22.34s-1-26.94-9.18-28.88h0Z"/><path class="cls-13" d="M453.44,289.34c-7.12.41-11.26,7.29-9.24,15.37s9.43,14.28,16.56,13.87S472,311.29,470,303.21,460.57,288.93,453.44,289.34Z"/><path class="cls-14" d="M459.52,292.84c-4.45.26-7,4.55-5.77,9.59s5.89,8.91,10.33,8.66,7-4.55,5.77-9.59S464,292.58,459.52,292.84Z"/><path class="cls-8" d="M369.21,356.33c-6.32-1.39-13.37,6.25-15.76,17.05s.81,20.67,7.13,22.06,13.38-6.25,15.76-17.05S375.53,357.71,369.21,356.33Z"/><path class="cls-13" d="M464.5,297.78a1.93,1.93,0,0,0-1.59,2.64,3,3,0,0,0,2.85,2.39,1.93,1.93,0,0,0,1.59-2.64A3,3,0,0,0,464.5,297.78Z"/><line class="cls-4" x1="386.98" y1="228.77" x2="414.24" y2="290.12"/><line class="cls-4" x1="390.22" y1="305.44" x2="356.47" y2="248.53"/><ellipse class="cls-15" cx="171.01" cy="288.48" rx="24.12" ry="13.49"/><path class="cls-16" d="M171,298c-11.52,0-20.12-5-20.12-9.48S159.49,279,171,279s20.12,5,20.12,9.49S182.52,298,171,298Z"/><ellipse class="cls-15" cx="579.48" cy="424.21" rx="24.12" ry="13.49"/><path class="cls-16" d="M579.48,433.7c-11.52,0-20.12-5-20.12-9.49s8.6-9.48,20.12-9.48,20.12,5,20.12,9.48S591,433.7,579.48,433.7Z"/></svg>