<svg viewBox="0 0 800 600" xmlns="http://www.w3.org/2000/svg"><circle cx="293.1" cy="149.4" fill="#eae5fc" r="35.22"/><path d="m608.82 126.69-1-.78a57.38 57.38 0 0 0 -76.19 6l-35.2 36.76a628.11 628.11 0 0 1 -48.08 45.21l-19.44 16.46c-17.91 15.09-44.3-3.14-36.44-25.34l.46-1.28a34.75 34.75 0 0 0 -12-39.48l-.11-.08c-26.66-19.86-64.56-.82-64.56 32.42a48.87 48.87 0 0 1 -51.35 48.8h-.1a33.11 33.11 0 0 0 -33.32 42.83l11.17 36.16a27.18 27.18 0 0 1 -6.75 27.25l-1.62 1.62a44.48 44.48 0 0 0 -.08 62.82 37.08 37.08 0 0 0 52 .58l.41-.39a8.81 8.81 0 0 1 12.61.41l28.57 31.2a145.61 145.61 0 0 0 152.4 40.14l49.24-16a18.66 18.66 0 0 0 7.42-30.94 57.7 57.7 0 0 1 23.19-78.29l18.54-10a62.7 62.7 0 0 0 23.25-88.44l-.21-.34c-3.61-5.78 10.5-36.33 24.26-63.25a59.14 59.14 0 0 0 -17.07-74.05zm-155.13 332.71a37.45 37.45 0 1 1 34.94-34.95 37.47 37.47 0 0 1 -34.94 34.95z" fill="#eae5fc"/><circle cx="574.24" cy="408.63" fill="#eae5fc" r="29.85"/><circle cx="197.5" cy="322.97" fill="#eae5fc" r="29.85"/><g fill="#735dd0"><path d="m385.17 294.3c18.5 5.14 32.86 41.67-28 73.56l-35.47 16-9.45-35.95 30.75-39.28c20.17-22.55 42.13-14.33 42.13-14.33z"/><path d="m308 391.88-9 6.55a17 17 0 0 1 -23-2.82c-.24-.3-.48-.6-.71-.92a17 17 0 0 1 3.77-23.69l19.12-13.92z"/><path d="m517.2 183.84c18.49 5.13 32.86 41.67-28.05 73.56l-35.47 16-9.44-36 30.82-39.32c20.17-22.54 42.14-14.32 42.14-14.32z"/><path d="m440.07 281.41-9 6.56a17 17 0 0 1 -23-2.83c-.25-.29-.49-.6-.72-.91a17 17 0 0 1 3.74-23.72l19.11-13.91z"/><path d="m390.12 224.65s4.17 23.08-21.61 38.91l-44.18 23.32-33.68-15.7 22.09-32.05c42.24-54.24 75.62-33.59 77.38-14.48z"/><path d="m295.76 315.4a17 17 0 0 1 -24-.55c-.27-.27-.52-.56-.76-.85a17 17 0 0 1 1.31-23.15l8.05-7.7 32.5 15.92z"/></g><path d="m487.54 325.95h28.45v28.64h-28.45z" fill="#808080" stroke="#70004b" stroke-linecap="round" stroke-linejoin="round" stroke-width="4" transform="matrix(.70710678 -.70710678 .70710678 .70710678 -93.64 454.47)"/><circle cx="403.6" cy="242.11" fill="#14b5d0" opacity=".3" r="113.79"/><path d="m403.6 104.82a137.29 137.29 0 1 0 137.29 137.29 137.28 137.28 0 0 0 -137.29-137.29zm113.79 137.29a113.79 113.79 0 1 1 -113.79-113.79 113.79 113.79 0 0 1 113.79 113.79z" fill="#ccc"/><path d="m519.64 232.06a113.78 113.78 0 0 0 -225.79-20 113.77 113.77 0 0 1 221.75 50 114 114 0 0 0 4.04-30z" fill="#999"/><path d="m405.85 369.35a137.33 137.33 0 0 1 -134.99-162.35 137.3 137.3 0 1 0 267.73 60.19 137.33 137.33 0 0 1 -132.74 102.16z" fill="#999"/><path d="m403.6 104.82a137.29 137.29 0 1 0 137.29 137.29 137.28 137.28 0 0 0 -137.29-137.29zm113.79 137.29a113.79 113.79 0 1 1 -113.79-113.79 113.79 113.79 0 0 1 113.79 113.79z" fill="none" stroke="#70004b" stroke-linecap="round" stroke-linejoin="round" stroke-width="4"/><path d="m546.41 328.77h35.36a2.73 2.73 0 0 1 2.73 2.73v135.19a9.72 9.72 0 0 1 -9.72 9.72h-21.37a9.72 9.72 0 0 1 -9.72-9.72v-135.19a2.73 2.73 0 0 1 2.72-2.73z" fill="#ccc" transform="matrix(.70710678 -.70710678 .70710678 .70710678 -119.46 516.79)"/><path d="m622.67 432.32-13.93 13.93a9.72 9.72 0 0 1 -13.75 0l-89.48-89.47-6.12 6.12a2.73 2.73 0 0 0 0 3.85l95.6 95.6a9.72 9.72 0 0 0 13.75 0l15.11-15.11a9.74 9.74 0 0 0 0-13.75z" fill="#999"/><path d="m546.41 328.77h35.36a2.73 2.73 0 0 1 2.73 2.73v135.19a9.72 9.72 0 0 1 -9.72 9.72h-21.37a9.72 9.72 0 0 1 -9.72-9.72v-135.19a2.73 2.73 0 0 1 2.72-2.73z" fill="none" stroke="#70004b" stroke-linecap="round" stroke-linejoin="round" stroke-width="4" transform="matrix(.70710678 -.70710678 .70710678 .70710678 -119.46 516.79)"/><path d="m443.62 165.42-30.11 30.11" fill="none" stroke="#fff" stroke-linecap="round" stroke-linejoin="round" stroke-width="10"/><path d="m451.25 180.13-23.03 23.04" fill="none" stroke="#fff" stroke-linecap="round" stroke-linejoin="round" stroke-width="10"/></svg>