<svg id="Layer_1" data-name="Layer 1" xmlns="http://www.w3.org/2000/svg" viewBox="0 0 1722.97 800"><defs><style>.cls-1{fill:#d9faff;}.cls-2{fill:#fef8e7;}.cls-3{fill:#fae8e8;}.cls-19,.cls-4{fill:#a1d1ff;}.cls-21,.cls-25,.cls-26,.cls-29,.cls-34,.cls-5{fill:none;}.cls-19,.cls-21,.cls-32,.cls-5,.cls-6{stroke:#70004b;}.cls-19,.cls-21,.cls-25,.cls-26,.cls-29,.cls-32,.cls-34,.cls-5,.cls-6{stroke-linecap:round;stroke-linejoin:round;}.cls-19,.cls-21,.cls-25,.cls-26,.cls-32,.cls-34,.cls-5,.cls-6{stroke-width:4px;}.cls-6,.cls-9{fill:#fff;}.cls-7{fill:#e6e6e6;}.cls-8{fill:#599ede;}.cls-10{fill:#0c5166;}.cls-11{fill:#093247;opacity:0.6;isolation:isolate;}.cls-12{fill:#05c5cc;}.cls-13{fill:#ccc;}.cls-14{fill:#cce6ff;}.cls-15{fill:#ec4c47;}.cls-16{fill:#bf0e08;}.cls-17{fill:#fabbbb;}.cls-18{fill:#4d4d4d;}.cls-20{fill:#70004b;}.cls-21{stroke-dasharray:12.01 12.01;}.cls-22{fill:#f2c698;}.cls-23{fill:#b3b3b3;}.cls-24{fill:#47b881;}.cls-25{stroke:#fff;}.cls-26{stroke:#47b881;}.cls-27{fill:#f29a41;}.cls-28{fill:#ffebd6;}.cls-29{stroke:#14b5d0;stroke-width:8px;}.cls-30{fill:#14b5d0;}.cls-31{fill:#ffe280;}.cls-32{fill:#f2f2f2;}.cls-33{fill:#8c73f0;}.cls-34{stroke:#e6e6e6;}.cls-35{fill:#23d5f2;}.cls-36{fill:#ff6e6b;}.cls-37{fill:#57e09e;}.cls-38{fill:#a4edca;}.cls-39{fill:#f7d154;}</style></defs><title>Run FeaturePeek in your CI pipeline</title><circle class="cls-1" cx="249.64" cy="269.37" r="35.22"/><path class="cls-1" d="M565.36,246.65l-1-.78a57.39,57.39,0,0,0-76.19,6L430.91,311.6a20.71,20.71,0,0,1-1.74,1.64l-43.75,37C367.54,365.4,341.15,347.16,349,325l.45-1.28a34.73,34.73,0,0,0-12-39.48l-2.5-1.87c-26.82-20-64.68.87-62.17,34.21h0a45.6,45.6,0,0,1-47.79,49l-3.66-.19A33.1,33.1,0,0,0,188,408.2l11.17,36.16a27.24,27.24,0,0,1-7.73,28.22h0a43.29,43.29,0,0,0-1.59,62.59l.87.88a37.07,37.07,0,0,0,52,.58l.41-.39a8.81,8.81,0,0,1,12.61.41l28.57,31.2A145.61,145.61,0,0,0,436.74,608l43.6-14.18A23,23,0,0,0,493.4,561h0a57.68,57.68,0,0,1,23.19-78.29l18.54-10a62.7,62.7,0,0,0,23.25-88.44l-.21-.34c-3.62-5.78,10.49-36.33,24.26-63.25A59.15,59.15,0,0,0,565.36,246.65ZM259.66,503.09a22.66,22.66,0,1,1,22.66-22.66A22.66,22.66,0,0,1,259.66,503.09Zm260-60a22.66,22.66,0,1,1,22.66-22.66A22.66,22.66,0,0,1,519.66,443.09Z"/><circle class="cls-1" cx="530.78" cy="528.59" r="29.85"/><circle class="cls-1" cx="154.04" cy="442.93" r="29.85"/><circle class="cls-2" cx="748.12" cy="134.22" r="35.22"/><path class="cls-2" d="M1063.84,111.51l-1-.78a57.38,57.38,0,0,0-76.2,6L929.4,176.46c-.56.58-1.14,1.12-1.75,1.64l-43.75,37c-17.87,15.13-44.27-3.1-36.4-25.26l.45-1.28a34.74,34.74,0,0,0-12-39.48l-2.51-1.87c-26.82-20-64.68.87-62.16,34.21h0a45.6,45.6,0,0,1-47.79,49l-3.66-.19a33.1,33.1,0,0,0-33.31,42.83l11.16,36.15A27.23,27.23,0,0,1,690,337.44h0a43.29,43.29,0,0,0-1.6,62.59l.88.88a37.07,37.07,0,0,0,52,.58l.41-.39a8.81,8.81,0,0,1,12.62.41l28.57,31.2a145.6,145.6,0,0,0,152.43,40.15l43.6-14.19a22.93,22.93,0,0,0,13-32.77h0a57.7,57.7,0,0,1,23.19-78.29l18.54-10a62.71,62.71,0,0,0,23.25-88.45c-.07-.11-.14-.22-.2-.33-3.62-5.78,10.49-36.33,24.25-63.25A59.14,59.14,0,0,0,1063.84,111.51ZM758.14,368a22.66,22.66,0,1,1,22.66-22.66A22.66,22.66,0,0,1,758.14,368Zm260-60a22.66,22.66,0,1,1,22.66-22.66A22.66,22.66,0,0,1,1018.14,308Z"/><circle class="cls-2" cx="1029.27" cy="393.45" r="29.85"/><circle class="cls-2" cx="652.53" cy="307.79" r="29.85"/><circle class="cls-3" cx="1338.92" cy="244.5" r="35.22"/><path class="cls-3" d="M1654.64,221.79l-1-.78a57.36,57.36,0,0,0-76.19,6l-57.23,59.76a22.75,22.75,0,0,1-1.75,1.64l-43.74,37c-17.88,15.13-44.27-3.1-36.41-25.27l.45-1.27a34.73,34.73,0,0,0-12-39.48l-2.51-1.87c-26.81-20-64.68.87-62.16,34.21h0a45.6,45.6,0,0,1-47.79,49l-3.66-.18a33.1,33.1,0,0,0-33.31,42.83l11.17,36.15a27.26,27.26,0,0,1-7.73,28.23h0a43.29,43.29,0,0,0-1.59,62.59l.87.88a37.08,37.08,0,0,0,52,.58l.41-.39a8.8,8.8,0,0,1,12.61.41l28.57,31.2A145.59,145.59,0,0,0,1526,583.13l43.6-14.18a22.93,22.93,0,0,0,13.06-32.77h0a57.68,57.68,0,0,1,23.19-78.29l18.53-10a62.71,62.71,0,0,0,23.26-88.45l-.21-.33c-3.62-5.78,10.49-36.33,24.26-63.25A59.15,59.15,0,0,0,1654.64,221.79ZM1348.93,478.23a22.67,22.67,0,1,1,22.67-22.66A22.67,22.67,0,0,1,1348.93,478.23Zm260-60a22.67,22.67,0,1,1,22.67-22.66A22.67,22.67,0,0,1,1608.93,418.23Z"/><circle class="cls-3" cx="1620.06" cy="503.72" r="29.85"/><circle class="cls-3" cx="1243.32" cy="418.07" r="29.85"/><polygon class="cls-4" points="279.49 554.82 44.09 554.82 54.02 319.41 269.56 319.41 279.49 554.82"/><polygon class="cls-5" points="279.49 554.82 44.09 554.82 54.02 319.41 269.56 319.41 279.49 554.82"/><polygon class="cls-6" points="59.63 539.91 68.31 334.31 255.27 334.31 263.94 539.91 59.63 539.91"/><rect class="cls-6" x="44.08" y="554.82" width="235.41" height="43.08"/><rect class="cls-4" x="60.79" y="597.9" width="202" height="113.47"/><rect class="cls-7" x="119.96" y="568.54" width="83.66" height="172.19" transform="translate(816.42 492.84) rotate(90)"/><rect class="cls-8" x="60.79" y="597.9" width="202" height="14.91"/><rect class="cls-5" x="60.79" y="597.9" width="202" height="113.47"/><rect class="cls-9" x="129.92" y="578.51" width="63.73" height="152.26" transform="translate(816.42 492.84) rotate(90)"/><rect class="cls-4" x="44.08" y="711.37" width="235.41" height="27.69"/><rect class="cls-8" x="44.08" y="729.1" width="235.41" height="9.97"/><rect class="cls-5" x="44.08" y="711.37" width="235.41" height="27.69"/><circle class="cls-8" cx="117.55" cy="654.63" r="8.56"/><circle class="cls-8" cx="161.79" cy="654.63" r="8.56"/><circle class="cls-8" cx="206.02" cy="654.63" r="8.56"/><polygon class="cls-10" points="161.79 474.81 111.89 444.87 89.71 458.18 161.79 501.43 233.87 458.18 211.69 444.87 161.79 474.81"/><polygon class="cls-10" points="211.69 444.87 161.79 414.93 111.89 444.87 161.79 474.81 211.69 444.87"/><polygon class="cls-11" points="211.69 444.87 161.79 414.93 111.89 444.87 161.79 474.81 211.69 444.87"/><path class="cls-12" d="M161.79,372.8,233.86,416l-72.07,43.25L89.71,416Zm.22,23.28-32.93,20L162,436l32.93-20Z"/><path class="cls-7" d="M1453.08,373.77h154a0,0,0,0,1,0,0V426.7a66.19,66.19,0,0,1-66.19,66.19h-21.64a66.19,66.19,0,0,1-66.19-66.19V373.77a0,0,0,0,1,0,0Z" transform="translate(3060.19 866.67) rotate(-180)"/><path class="cls-13" d="M1541.14,373.77h-22.09a65.8,65.8,0,0,0-50,22.9,65.15,65.15,0,0,0,122,0A65.8,65.8,0,0,0,1541.14,373.77Z"/><path class="cls-9" d="M1524.45,373.77h-20.39a66,66,0,0,1,66,66V492.9h20.39V439.74A66,66,0,0,0,1524.45,373.77Z"/><path class="cls-5" d="M1453.08,373.77h154a0,0,0,0,1,0,0V426.7a66.19,66.19,0,0,1-66.19,66.19h-21.64a66.19,66.19,0,0,1-66.19-66.19V373.77a0,0,0,0,1,0,0Z" transform="translate(3060.19 866.67) rotate(-180)"/><rect class="cls-4" x="1453.08" y="492.9" width="154.03" height="246.17" transform="translate(3060.19 1231.96) rotate(-180)"/><rect class="cls-14" x="1567.68" y="492.9" width="25.26" height="246.17" transform="translate(3160.62 1231.96) rotate(-180)"/><rect class="cls-14" x="1542.73" y="492.9" width="12.63" height="246.17" transform="translate(3098.08 1231.96) rotate(-180)"/><rect class="cls-5" x="1453.08" y="492.9" width="154.03" height="246.17" transform="translate(3060.19 1231.96) rotate(-180)"/><rect class="cls-9" x="1371.77" y="73.17" width="283.27" height="19.87" transform="translate(3026.81 166.22) rotate(-180)"/><rect class="cls-7" x="1371.77" y="83.11" width="283.27" height="9.93" transform="translate(3026.81 176.15) rotate(-180)"/><rect class="cls-5" x="1371.77" y="73.17" width="283.27" height="19.87" transform="translate(3026.81 166.22) rotate(-180)"/><path class="cls-15" d="M1592.94,49.86h0a28.37,28.37,0,0,1,28.37,28.37V386a4.07,4.07,0,0,1-4.07,4.07h-48.61a4.07,4.07,0,0,1-4.07-4.07V78.23a28.37,28.37,0,0,1,28.37-28.37Z" transform="translate(224.07 -623.85) rotate(23.79)"/><path class="cls-16" d="M1517,321.81l-17,38.67a4.07,4.07,0,0,0,2.08,5.37l44.48,19.6a4.06,4.06,0,0,0,5.36-2.08l32.74-74.25C1549.66,299.18,1517,321.81,1517,321.81Z"/><path class="cls-17" d="M1677.56,83.11h0a28.33,28.33,0,0,0-16-18.8h0a28.38,28.38,0,0,0-37.41,14.52l-55.4,125.69C1581.92,175.64,1628.09,82.92,1677.56,83.11Z"/><path class="cls-5" d="M1592.94,49.86h0a28.37,28.37,0,0,1,28.37,28.37V386a4.07,4.07,0,0,1-4.07,4.07h-48.61a4.07,4.07,0,0,1-4.07-4.07V78.23a28.37,28.37,0,0,1,28.37-28.37Z" transform="translate(224.07 -623.85) rotate(23.79)"/><circle class="cls-9" cx="1650.61" cy="89.16" r="9.22"/><circle class="cls-9" cx="1626.04" cy="144.9" r="9.22"/><circle class="cls-9" cx="1601.47" cy="200.63" r="9.22"/><circle class="cls-9" cx="1576.9" cy="256.37" r="9.22"/><circle class="cls-9" cx="1530.1" cy="373.77" r="53.56"/><circle class="cls-5" cx="1530.1" cy="373.77" r="53.56"/><circle class="cls-4" cx="1530.1" cy="373.77" r="21.62"/><circle class="cls-18" cx="1530.1" cy="373.77" r="6.32"/><rect class="cls-6" x="1346.19" y="100.27" width="23.34" height="16.21" transform="translate(1466.23 -1249.48) rotate(90)"/><circle class="cls-19" cx="1357.86" cy="83.11" r="22.17"/><circle class="cls-20" cx="1357.86" cy="83.11" r="4.62"/><path class="cls-9" d="M1335.77,117h44.17a0,0,0,0,1,0,0v25.19a19,19,0,0,1-19,19h-6.21a19,19,0,0,1-19-19V117a0,0,0,0,1,0,0Z" transform="translate(2715.71 278.1) rotate(-180)"/><path class="cls-7" d="M1361,117h-6.34c-.62,0-1.24,0-1.85.09a18.92,18.92,0,0,1,17.07,18.82v25.26h10V135.88A18.91,18.91,0,0,0,1361,117Z"/><path class="cls-5" d="M1335.77,117h44.17a0,0,0,0,1,0,0v25.19a19,19,0,0,1-19,19h-6.21a19,19,0,0,1-19-19V117a0,0,0,0,1,0,0Z" transform="translate(2715.71 278.1) rotate(-180)"/><line class="cls-5" x1="1371.77" y1="161.14" x2="1371.77" y2="179.57"/><line class="cls-5" x1="1343.94" y1="161.14" x2="1343.94" y2="179.57"/><line class="cls-5" x1="1357.86" y1="161.14" x2="1357.86" y2="196.99"/><rect class="cls-9" x="246.81" y="544.04" width="1276.29" height="195.02" rx="90.54"/><rect class="cls-21" x="246.81" y="544.04" width="1276.29" height="195.02" rx="90.54"/><rect class="cls-22" x="797.41" y="13.37" width="175.09" height="1256.36" rx="80.54" transform="translate(1526.51 -243.4) rotate(90)"/><rect class="cls-2" x="807.38" y="23.34" width="155.16" height="1236.43" rx="70.54" transform="translate(1526.51 -243.4) rotate(90)"/><path class="cls-13" d="M416.41,651.28V631.83a7.06,7.06,0,0,0-7.06-7.06h-4.23a7.12,7.12,0,0,1-6.56-4.44l0-.09a7.11,7.11,0,0,1,1.48-7.8l3-3a7.07,7.07,0,0,0,0-10l-13.76-13.76a7.07,7.07,0,0,0-10,0l-3,3a7.11,7.11,0,0,1-7.8,1.48l-.09,0A7.12,7.12,0,0,1,364,583.6v-4.23a7.06,7.06,0,0,0-7.06-7.06H337.44a7.06,7.06,0,0,0-7.06,7.06v4.23a7.13,7.13,0,0,1-4.43,6.56l-.09,0a7.11,7.11,0,0,1-7.8-1.48l-3-3a7.07,7.07,0,0,0-10,0l-13.75,13.76a7,7,0,0,0,0,10l3,3a7.13,7.13,0,0,1,1.49,7.8l0,.09a7.12,7.12,0,0,1-6.55,4.44H285a7.06,7.06,0,0,0-7.06,7.06v19.45a7.06,7.06,0,0,0,7.06,7.06h4.24a7.12,7.12,0,0,1,6.55,4.43l0,.09a7.13,7.13,0,0,1-1.49,7.8l-3,3a7,7,0,0,0,0,10l13.75,13.75a7,7,0,0,0,10,0l3-3a7.13,7.13,0,0,1,7.8-1.49l.09,0a7.12,7.12,0,0,1,4.43,6.55v4.24a7.06,7.06,0,0,0,7.06,7.06h19.45a7.06,7.06,0,0,0,7.06-7.06V699.5a7.12,7.12,0,0,1,4.44-6.55l.09,0a7.13,7.13,0,0,1,7.8,1.49l3,3a7,7,0,0,0,10,0L403,683.64a7.07,7.07,0,0,0,0-10l-3-3a7.11,7.11,0,0,1-1.48-7.8l0-.09a7.13,7.13,0,0,1,6.56-4.43h4.23A7.06,7.06,0,0,0,416.41,651.28Z"/><path class="cls-23" d="M373.73,641.3a25.36,25.36,0,0,1-2.36,10.77l26.86,11.68a5.82,5.82,0,0,1,.3-.89l0-.09a7.13,7.13,0,0,1,6.56-4.43h4.23a7.06,7.06,0,0,0,7.06-7.06V631.83a7.06,7.06,0,0,0-7.06-7.06h-4.23a7.12,7.12,0,0,1-6.56-4.44l0-.09a5.71,5.71,0,0,1-.3-.88L371.47,631A25.32,25.32,0,0,1,373.73,641.3Z"/><path class="cls-23" d="M320.6,641.3A25.36,25.36,0,0,0,323,652.07L296.1,663.75a7.11,7.11,0,0,0-.29-.89l0-.09a7.12,7.12,0,0,0-6.55-4.43H285a7.06,7.06,0,0,1-7.06-7.06V631.83a7.06,7.06,0,0,1,7.06-7.06h4.24a7.12,7.12,0,0,0,6.55-4.44l0-.09a7,7,0,0,0,.29-.88L322.86,631A25.49,25.49,0,0,0,320.6,641.3Z"/><path class="cls-5" d="M416.41,651.28V631.83a7.06,7.06,0,0,0-7.06-7.06h-4.23a7.12,7.12,0,0,1-6.56-4.44l0-.09a7.11,7.11,0,0,1,1.48-7.8l3-3a7.07,7.07,0,0,0,0-10l-13.76-13.76a7.07,7.07,0,0,0-10,0l-3,3a7.11,7.11,0,0,1-7.8,1.48l-.09,0A7.12,7.12,0,0,1,364,583.6v-4.23a7.06,7.06,0,0,0-7.06-7.06H337.44a7.06,7.06,0,0,0-7.06,7.06v4.23a7.13,7.13,0,0,1-4.43,6.56l-.09,0a7.11,7.11,0,0,1-7.8-1.48l-3-3a7.07,7.07,0,0,0-10,0l-13.75,13.76a7,7,0,0,0,0,10l3,3a7.13,7.13,0,0,1,1.49,7.8l0,.09a7.12,7.12,0,0,1-6.55,4.44H285a7.06,7.06,0,0,0-7.06,7.06v19.45a7.06,7.06,0,0,0,7.06,7.06h4.24a7.12,7.12,0,0,1,6.55,4.43l0,.09a7.13,7.13,0,0,1-1.49,7.8l-3,3a7,7,0,0,0,0,10l13.75,13.75a7,7,0,0,0,10,0l3-3a7.13,7.13,0,0,1,7.8-1.49l.09,0a7.12,7.12,0,0,1,4.43,6.55v4.24a7.06,7.06,0,0,0,7.06,7.06h19.45a7.06,7.06,0,0,0,7.06-7.06V699.5a7.12,7.12,0,0,1,4.44-6.55l.09,0a7.13,7.13,0,0,1,7.8,1.49l3,3a7,7,0,0,0,10,0L403,683.64a7.07,7.07,0,0,0,0-10l-3-3a7.11,7.11,0,0,1-1.48-7.8l0-.09a7.13,7.13,0,0,1,6.56-4.43h4.23A7.06,7.06,0,0,0,416.41,651.28Z"/><path class="cls-7" d="M347.17,602.05a39.51,39.51,0,1,0,39.5,39.5A39.5,39.5,0,0,0,347.17,602.05Zm0,48.87a9.37,9.37,0,1,1,9.37-9.37A9.36,9.36,0,0,1,347.17,650.92Z"/><path class="cls-9" d="M375.1,669.49a39.51,39.51,0,0,0,0-55.87l-21.31,21.31a9.36,9.36,0,0,1,0,13.25Z"/><path class="cls-9" d="M319.23,669.49a39.51,39.51,0,0,1,0-55.87l21.31,21.31a9.38,9.38,0,0,0,0,13.25Z"/><path class="cls-5" d="M347.17,602.05a39.51,39.51,0,1,0,39.5,39.5A39.5,39.5,0,0,0,347.17,602.05Zm0,48.87a9.37,9.37,0,1,1,9.37-9.37A9.36,9.36,0,0,1,347.17,650.92Z"/><path class="cls-13" d="M595.67,651.28V631.83a7.06,7.06,0,0,0-7-7.06h-4.24a7.1,7.1,0,0,1-6.55-4.44l0-.09a7.13,7.13,0,0,1,1.48-7.8l3-3a7,7,0,0,0,0-10l-13.75-13.76a7.08,7.08,0,0,0-10,0l-3,3a7.11,7.11,0,0,1-7.8,1.48l-.09,0a7.14,7.14,0,0,1-4.44-6.56v-4.23a7.06,7.06,0,0,0-7.05-7.06H516.7a7.06,7.06,0,0,0-7.05,7.06v4.23a7.14,7.14,0,0,1-4.44,6.56l-.09,0a7.11,7.11,0,0,1-7.8-1.48l-3-3a7.07,7.07,0,0,0-10,0l-13.76,13.76a7.07,7.07,0,0,0,0,10l3,3a7.11,7.11,0,0,1,1.48,7.8l0,.09a7.1,7.1,0,0,1-6.55,4.44h-4.23a7.06,7.06,0,0,0-7.06,7.06v19.45a7.06,7.06,0,0,0,7.06,7.06h4.23a7.1,7.1,0,0,1,6.55,4.43l0,.09a7.11,7.11,0,0,1-1.48,7.8l-3,3a7.07,7.07,0,0,0,0,10l13.76,13.75a7,7,0,0,0,10,0l3-3a7.13,7.13,0,0,1,7.8-1.49l.09,0a7.13,7.13,0,0,1,4.44,6.55v4.24a7.06,7.06,0,0,0,7.05,7.06h19.46a7.06,7.06,0,0,0,7.05-7.06V699.5a7.13,7.13,0,0,1,4.44-6.55l.09,0a7.13,7.13,0,0,1,7.8,1.49l3,3a7.06,7.06,0,0,0,10,0l13.75-13.75a7,7,0,0,0,0-10l-3-3a7.12,7.12,0,0,1-1.48-7.8l0-.09a7.1,7.1,0,0,1,6.55-4.43h4.24A7.06,7.06,0,0,0,595.67,651.28Z"/><path class="cls-23" d="M553,641.3a25.37,25.37,0,0,1-2.37,10.77l26.86,11.68a9.3,9.3,0,0,1,.3-.89l0-.09a7.1,7.1,0,0,1,6.55-4.43h4.24a7.06,7.06,0,0,0,7-7.06V631.83a7.06,7.06,0,0,0-7-7.06h-4.24a7.1,7.1,0,0,1-6.55-4.44l0-.09a9.12,9.12,0,0,1-.3-.88L550.74,631A25.49,25.49,0,0,1,553,641.3Z"/><path class="cls-23" d="M499.86,641.3a25.37,25.37,0,0,0,2.37,10.77l-26.86,11.68a7.16,7.16,0,0,0-.3-.89l0-.09a7.1,7.1,0,0,0-6.55-4.43h-4.23a7.06,7.06,0,0,1-7.06-7.06V631.83a7.06,7.06,0,0,1,7.06-7.06h4.23a7.1,7.1,0,0,0,6.55-4.44l0-.09a7,7,0,0,0,.3-.88L502.12,631A25.49,25.49,0,0,0,499.86,641.3Z"/><path class="cls-5" d="M595.67,651.28V631.83a7.06,7.06,0,0,0-7-7.06h-4.24a7.1,7.1,0,0,1-6.55-4.44l0-.09a7.13,7.13,0,0,1,1.48-7.8l3-3a7,7,0,0,0,0-10l-13.75-13.76a7.08,7.08,0,0,0-10,0l-3,3a7.11,7.11,0,0,1-7.8,1.48l-.09,0a7.14,7.14,0,0,1-4.44-6.56v-4.23a7.06,7.06,0,0,0-7.05-7.06H516.7a7.06,7.06,0,0,0-7.05,7.06v4.23a7.14,7.14,0,0,1-4.44,6.56l-.09,0a7.11,7.11,0,0,1-7.8-1.48l-3-3a7.07,7.07,0,0,0-10,0l-13.76,13.76a7.07,7.07,0,0,0,0,10l3,3a7.11,7.11,0,0,1,1.48,7.8l0,.09a7.1,7.1,0,0,1-6.55,4.44h-4.23a7.06,7.06,0,0,0-7.06,7.06v19.45a7.06,7.06,0,0,0,7.06,7.06h4.23a7.1,7.1,0,0,1,6.55,4.43l0,.09a7.11,7.11,0,0,1-1.48,7.8l-3,3a7.07,7.07,0,0,0,0,10l13.76,13.75a7,7,0,0,0,10,0l3-3a7.13,7.13,0,0,1,7.8-1.49l.09,0a7.13,7.13,0,0,1,4.44,6.55v4.24a7.06,7.06,0,0,0,7.05,7.06h19.46a7.06,7.06,0,0,0,7.05-7.06V699.5a7.13,7.13,0,0,1,4.44-6.55l.09,0a7.13,7.13,0,0,1,7.8,1.49l3,3a7.06,7.06,0,0,0,10,0l13.75-13.75a7,7,0,0,0,0-10l-3-3a7.12,7.12,0,0,1-1.48-7.8l0-.09a7.1,7.1,0,0,1,6.55-4.43h4.24A7.06,7.06,0,0,0,595.67,651.28Z"/><path class="cls-7" d="M526.43,602.05a39.51,39.51,0,1,0,39.51,39.5A39.5,39.5,0,0,0,526.43,602.05Zm0,48.87a9.37,9.37,0,1,1,9.37-9.37A9.37,9.37,0,0,1,526.43,650.92Z"/><path class="cls-9" d="M554.37,669.49a39.51,39.51,0,0,0,0-55.87l-21.31,21.31a9.38,9.38,0,0,1,0,13.25Z"/><path class="cls-9" d="M498.49,669.49a39.51,39.51,0,0,1,0-55.87l21.32,21.31a9.36,9.36,0,0,0,0,13.25Z"/><path class="cls-5" d="M526.43,602.05a39.51,39.51,0,1,0,39.51,39.5A39.5,39.5,0,0,0,526.43,602.05Zm0,48.87a9.37,9.37,0,1,1,9.37-9.37A9.37,9.37,0,0,1,526.43,650.92Z"/><path class="cls-13" d="M774.94,651.28V631.83a7.06,7.06,0,0,0-7.06-7.06h-4.24a7.12,7.12,0,0,1-6.55-4.44l0-.09a7.13,7.13,0,0,1,1.49-7.8l3-3a7,7,0,0,0,0-10l-13.75-13.76a7.07,7.07,0,0,0-10,0l-3,3a7.11,7.11,0,0,1-7.8,1.48l-.08,0a7.12,7.12,0,0,1-4.44-6.56v-4.23a7.06,7.06,0,0,0-7.06-7.06H696a7.06,7.06,0,0,0-7.06,7.06v4.23a7.12,7.12,0,0,1-4.44,6.56l-.09,0a7.09,7.09,0,0,1-7.79-1.48l-3-3a7.07,7.07,0,0,0-10,0l-13.75,13.76a7,7,0,0,0,0,10l3,3a7.11,7.11,0,0,1,1.48,7.8l0,.09a7.12,7.12,0,0,1-6.55,4.44h-4.24a7.06,7.06,0,0,0-7.06,7.06v19.45a7.06,7.06,0,0,0,7.06,7.06h4.24a7.12,7.12,0,0,1,6.55,4.43l0,.09a7.11,7.11,0,0,1-1.48,7.8l-3,3a7,7,0,0,0,0,10l13.75,13.75a7,7,0,0,0,10,0l3-3a7.11,7.11,0,0,1,7.79-1.49l.09,0a7.12,7.12,0,0,1,4.44,6.55v4.24A7.06,7.06,0,0,0,696,710.8h19.45a7.06,7.06,0,0,0,7.06-7.06V699.5a7.12,7.12,0,0,1,4.44-6.55l.08,0a7.13,7.13,0,0,1,7.8,1.49l3,3a7,7,0,0,0,10,0l13.75-13.75a7,7,0,0,0,0-10l-3-3a7.13,7.13,0,0,1-1.49-7.8l0-.09a7.12,7.12,0,0,1,6.55-4.43h4.24A7.06,7.06,0,0,0,774.94,651.28Z"/><path class="cls-23" d="M732.26,641.3a25.36,25.36,0,0,1-2.36,10.77l26.86,11.68a7.11,7.11,0,0,1,.29-.89l0-.09a7.12,7.12,0,0,1,6.55-4.43h4.24a7.06,7.06,0,0,0,7.06-7.06V631.83a7.06,7.06,0,0,0-7.06-7.06h-4.24a7.12,7.12,0,0,1-6.55-4.44l0-.09a7,7,0,0,1-.29-.88L730,631A25.32,25.32,0,0,1,732.26,641.3Z"/><path class="cls-23" d="M679.13,641.3a25.36,25.36,0,0,0,2.36,10.77l-26.86,11.68a5.82,5.82,0,0,0-.3-.89l0-.09a7.12,7.12,0,0,0-6.55-4.43h-4.24a7.06,7.06,0,0,1-7.06-7.06V631.83a7.06,7.06,0,0,1,7.06-7.06h4.24a7.12,7.12,0,0,0,6.55-4.44l0-.09a5.71,5.71,0,0,0,.3-.88L681.39,631A25.32,25.32,0,0,0,679.13,641.3Z"/><path class="cls-5" d="M774.94,651.28V631.83a7.06,7.06,0,0,0-7.06-7.06h-4.24a7.12,7.12,0,0,1-6.55-4.44l0-.09a7.13,7.13,0,0,1,1.49-7.8l3-3a7,7,0,0,0,0-10l-13.75-13.76a7.07,7.07,0,0,0-10,0l-3,3a7.11,7.11,0,0,1-7.8,1.48l-.08,0a7.12,7.12,0,0,1-4.44-6.56v-4.23a7.06,7.06,0,0,0-7.06-7.06H696a7.06,7.06,0,0,0-7.06,7.06v4.23a7.12,7.12,0,0,1-4.44,6.56l-.09,0a7.09,7.09,0,0,1-7.79-1.48l-3-3a7.07,7.07,0,0,0-10,0l-13.75,13.76a7,7,0,0,0,0,10l3,3a7.11,7.11,0,0,1,1.48,7.8l0,.09a7.12,7.12,0,0,1-6.55,4.44h-4.24a7.06,7.06,0,0,0-7.06,7.06v19.45a7.06,7.06,0,0,0,7.06,7.06h4.24a7.12,7.12,0,0,1,6.55,4.43l0,.09a7.11,7.11,0,0,1-1.48,7.8l-3,3a7,7,0,0,0,0,10l13.75,13.75a7,7,0,0,0,10,0l3-3a7.11,7.11,0,0,1,7.79-1.49l.09,0a7.12,7.12,0,0,1,4.44,6.55v4.24A7.06,7.06,0,0,0,696,710.8h19.45a7.06,7.06,0,0,0,7.06-7.06V699.5a7.12,7.12,0,0,1,4.44-6.55l.08,0a7.13,7.13,0,0,1,7.8,1.49l3,3a7,7,0,0,0,10,0l13.75-13.75a7,7,0,0,0,0-10l-3-3a7.13,7.13,0,0,1-1.49-7.8l0-.09a7.12,7.12,0,0,1,6.55-4.43h4.24A7.06,7.06,0,0,0,774.94,651.28Z"/><path class="cls-7" d="M705.69,602.05a39.51,39.51,0,1,0,39.51,39.5A39.49,39.49,0,0,0,705.69,602.05Zm0,48.87a9.37,9.37,0,1,1,9.37-9.37A9.37,9.37,0,0,1,705.69,650.92Z"/><path class="cls-9" d="M733.63,669.49a39.51,39.51,0,0,0,0-55.87l-21.31,21.31a9.38,9.38,0,0,1,0,13.25Z"/><path class="cls-9" d="M677.76,669.49a39.51,39.51,0,0,1,0-55.87l21.31,21.31a9.36,9.36,0,0,0,0,13.25Z"/><path class="cls-5" d="M705.69,602.05a39.51,39.51,0,1,0,39.51,39.5A39.49,39.49,0,0,0,705.69,602.05Zm0,48.87a9.37,9.37,0,1,1,9.37-9.37A9.37,9.37,0,0,1,705.69,650.92Z"/><path class="cls-13" d="M954.2,651.28V631.83a7.06,7.06,0,0,0-7.06-7.06h-4.23a7.12,7.12,0,0,1-6.56-4.44l0-.09a7.11,7.11,0,0,1,1.48-7.8l3-3a7.07,7.07,0,0,0,0-10L927,585.71a7.07,7.07,0,0,0-10,0l-3,3a7.11,7.11,0,0,1-7.8,1.48l-.09,0a7.12,7.12,0,0,1-4.44-6.56v-4.23a7.06,7.06,0,0,0-7.06-7.06H875.23a7.06,7.06,0,0,0-7.06,7.06v4.23a7.13,7.13,0,0,1-4.43,6.56l-.09,0a7.11,7.11,0,0,1-7.8-1.48l-3-3a7.07,7.07,0,0,0-10,0l-13.75,13.76a7,7,0,0,0,0,10l3,3a7.13,7.13,0,0,1,1.49,7.8l0,.09a7.11,7.11,0,0,1-6.55,4.44h-4.24a7.06,7.06,0,0,0-7,7.06v19.45a7.06,7.06,0,0,0,7,7.06H827a7.11,7.11,0,0,1,6.55,4.43l0,.09a7.13,7.13,0,0,1-1.49,7.8l-3,3a7,7,0,0,0,0,10l13.75,13.75a7,7,0,0,0,10,0l3-3a7.13,7.13,0,0,1,7.8-1.49l.09,0a7.12,7.12,0,0,1,4.43,6.55v4.24a7.06,7.06,0,0,0,7.06,7.06h19.45a7.06,7.06,0,0,0,7.06-7.06V699.5a7.12,7.12,0,0,1,4.44-6.55l.09,0a7.13,7.13,0,0,1,7.8,1.49l3,3a7,7,0,0,0,10,0l13.76-13.75a7.07,7.07,0,0,0,0-10l-3-3a7.11,7.11,0,0,1-1.48-7.8l0-.09a7.13,7.13,0,0,1,6.56-4.43h4.23A7.06,7.06,0,0,0,954.2,651.28Z"/><path class="cls-23" d="M911.52,641.3a25.36,25.36,0,0,1-2.36,10.77L936,663.75a7.16,7.16,0,0,1,.3-.89l0-.09a7.13,7.13,0,0,1,6.56-4.43h4.23a7.06,7.06,0,0,0,7.06-7.06V631.83a7.06,7.06,0,0,0-7.06-7.06h-4.23a7.12,7.12,0,0,1-6.56-4.44l0-.09a7,7,0,0,1-.3-.88L909.26,631A25.32,25.32,0,0,1,911.52,641.3Z"/><path class="cls-23" d="M858.39,641.3a25.36,25.36,0,0,0,2.36,10.77l-26.86,11.68a7.11,7.11,0,0,0-.29-.89l0-.09a7.1,7.1,0,0,0-6.55-4.43h-4.24a7.06,7.06,0,0,1-7-7.06V631.83a7.06,7.06,0,0,1,7-7.06H827a7.1,7.1,0,0,0,6.55-4.44l0-.09a7,7,0,0,0,.29-.88L860.65,631A25.49,25.49,0,0,0,858.39,641.3Z"/><path class="cls-5" d="M954.2,651.28V631.83a7.06,7.06,0,0,0-7.06-7.06h-4.23a7.12,7.12,0,0,1-6.56-4.44l0-.09a7.11,7.11,0,0,1,1.48-7.8l3-3a7.07,7.07,0,0,0,0-10L927,585.71a7.07,7.07,0,0,0-10,0l-3,3a7.11,7.11,0,0,1-7.8,1.48l-.09,0a7.12,7.12,0,0,1-4.44-6.56v-4.23a7.06,7.06,0,0,0-7.06-7.06H875.23a7.06,7.06,0,0,0-7.06,7.06v4.23a7.13,7.13,0,0,1-4.43,6.56l-.09,0a7.11,7.11,0,0,1-7.8-1.48l-3-3a7.07,7.07,0,0,0-10,0l-13.75,13.76a7,7,0,0,0,0,10l3,3a7.13,7.13,0,0,1,1.49,7.8l0,.09a7.11,7.11,0,0,1-6.55,4.44h-4.24a7.06,7.06,0,0,0-7,7.06v19.45a7.06,7.06,0,0,0,7,7.06H827a7.11,7.11,0,0,1,6.55,4.43l0,.09a7.13,7.13,0,0,1-1.49,7.8l-3,3a7,7,0,0,0,0,10l13.75,13.75a7,7,0,0,0,10,0l3-3a7.13,7.13,0,0,1,7.8-1.49l.09,0a7.12,7.12,0,0,1,4.43,6.55v4.24a7.06,7.06,0,0,0,7.06,7.06h19.45a7.06,7.06,0,0,0,7.06-7.06V699.5a7.12,7.12,0,0,1,4.44-6.55l.09,0a7.13,7.13,0,0,1,7.8,1.49l3,3a7,7,0,0,0,10,0l13.76-13.75a7.07,7.07,0,0,0,0-10l-3-3a7.11,7.11,0,0,1-1.48-7.8l0-.09a7.13,7.13,0,0,1,6.56-4.43h4.23A7.06,7.06,0,0,0,954.2,651.28Z"/><path class="cls-7" d="M885,602.05a39.51,39.51,0,1,0,39.51,39.5A39.5,39.5,0,0,0,885,602.05Zm0,48.87a9.37,9.37,0,1,1,9.37-9.37A9.36,9.36,0,0,1,885,650.92Z"/><path class="cls-9" d="M912.89,669.49a39.48,39.48,0,0,0,0-55.87l-21.31,21.31a9.36,9.36,0,0,1,0,13.25Z"/><path class="cls-9" d="M857,669.49a39.51,39.51,0,0,1,0-55.87l21.31,21.31a9.38,9.38,0,0,0,0,13.25Z"/><path class="cls-5" d="M885,602.05a39.51,39.51,0,1,0,39.51,39.5A39.5,39.5,0,0,0,885,602.05Zm0,48.87a9.37,9.37,0,1,1,9.37-9.37A9.36,9.36,0,0,1,885,650.92Z"/><path class="cls-13" d="M1133.46,651.28V631.83a7.06,7.06,0,0,0-7-7.06h-4.24a7.1,7.1,0,0,1-6.55-4.44l0-.09a7.15,7.15,0,0,1,1.48-7.8l3-3a7,7,0,0,0,0-10l-13.75-13.76a7.08,7.08,0,0,0-10,0l-3,3a7.11,7.11,0,0,1-7.8,1.48l-.09,0a7.14,7.14,0,0,1-4.44-6.56v-4.23a7.06,7.06,0,0,0-7-7.06H1054.5a7.06,7.06,0,0,0-7.06,7.06v4.23a7.12,7.12,0,0,1-4.44,6.56l-.09,0a7.11,7.11,0,0,1-7.8-1.48l-3-3a7.07,7.07,0,0,0-10,0l-13.76,13.76a7.07,7.07,0,0,0,0,10l3,3a7.11,7.11,0,0,1,1.48,7.8l0,.09a7.12,7.12,0,0,1-6.56,4.44H1002a7.06,7.06,0,0,0-7.06,7.06v19.45a7.06,7.06,0,0,0,7.06,7.06h4.23a7.13,7.13,0,0,1,6.56,4.43l0,.09a7.11,7.11,0,0,1-1.48,7.8l-3,3a7.07,7.07,0,0,0,0,10l13.76,13.75a7,7,0,0,0,10,0l3-3a7.13,7.13,0,0,1,7.8-1.49l.09,0a7.12,7.12,0,0,1,4.44,6.55v4.24a7.06,7.06,0,0,0,7.06,7.06H1074a7.06,7.06,0,0,0,7-7.06V699.5a7.13,7.13,0,0,1,4.44-6.55l.09,0a7.13,7.13,0,0,1,7.8,1.49l3,3a7.06,7.06,0,0,0,10,0l13.75-13.75a7,7,0,0,0,0-10l-3-3a7.14,7.14,0,0,1-1.48-7.8l0-.09a7.1,7.1,0,0,1,6.55-4.43h4.24A7.06,7.06,0,0,0,1133.46,651.28Z"/><path class="cls-23" d="M1090.79,641.3a25.37,25.37,0,0,1-2.37,10.77l26.86,11.68a9.3,9.3,0,0,1,.3-.89l0-.09a7.1,7.1,0,0,1,6.55-4.43h4.24a7.06,7.06,0,0,0,7-7.06V631.83a7.06,7.06,0,0,0-7-7.06h-4.24a7.1,7.1,0,0,1-6.55-4.44l0-.09a9.12,9.12,0,0,1-.3-.88L1088.53,631A25.49,25.49,0,0,1,1090.79,641.3Z"/><path class="cls-23" d="M1037.65,641.3a25.37,25.37,0,0,0,2.37,10.77l-26.86,11.68a7.16,7.16,0,0,0-.3-.89l0-.09a7.13,7.13,0,0,0-6.56-4.43H1002a7.06,7.06,0,0,1-7.06-7.06V631.83a7.06,7.06,0,0,1,7.06-7.06h4.23a7.12,7.12,0,0,0,6.56-4.44l0-.09a7,7,0,0,0,.3-.88L1039.92,631A25.33,25.33,0,0,0,1037.65,641.3Z"/><path class="cls-5" d="M1133.46,651.28V631.83a7.06,7.06,0,0,0-7-7.06h-4.24a7.1,7.1,0,0,1-6.55-4.44l0-.09a7.15,7.15,0,0,1,1.48-7.8l3-3a7,7,0,0,0,0-10l-13.75-13.76a7.08,7.08,0,0,0-10,0l-3,3a7.11,7.11,0,0,1-7.8,1.48l-.09,0a7.14,7.14,0,0,1-4.44-6.56v-4.23a7.06,7.06,0,0,0-7-7.06H1054.5a7.06,7.06,0,0,0-7.06,7.06v4.23a7.12,7.12,0,0,1-4.44,6.56l-.09,0a7.11,7.11,0,0,1-7.8-1.48l-3-3a7.07,7.07,0,0,0-10,0l-13.76,13.76a7.07,7.07,0,0,0,0,10l3,3a7.11,7.11,0,0,1,1.48,7.8l0,.09a7.12,7.12,0,0,1-6.56,4.44H1002a7.06,7.06,0,0,0-7.06,7.06v19.45a7.06,7.06,0,0,0,7.06,7.06h4.23a7.13,7.13,0,0,1,6.56,4.43l0,.09a7.11,7.11,0,0,1-1.48,7.8l-3,3a7.07,7.07,0,0,0,0,10l13.76,13.75a7,7,0,0,0,10,0l3-3a7.13,7.13,0,0,1,7.8-1.49l.09,0a7.12,7.12,0,0,1,4.44,6.55v4.24a7.06,7.06,0,0,0,7.06,7.06H1074a7.06,7.06,0,0,0,7-7.06V699.5a7.13,7.13,0,0,1,4.44-6.55l.09,0a7.13,7.13,0,0,1,7.8,1.49l3,3a7.06,7.06,0,0,0,10,0l13.75-13.75a7,7,0,0,0,0-10l-3-3a7.14,7.14,0,0,1-1.48-7.8l0-.09a7.1,7.1,0,0,1,6.55-4.43h4.24A7.06,7.06,0,0,0,1133.46,651.28Z"/><path class="cls-7" d="M1064.22,602.05a39.51,39.51,0,1,0,39.51,39.5A39.5,39.5,0,0,0,1064.22,602.05Zm0,48.87a9.37,9.37,0,1,1,9.37-9.37A9.37,9.37,0,0,1,1064.22,650.92Z"/><path class="cls-9" d="M1092.16,669.49a39.51,39.51,0,0,0,0-55.87l-21.31,21.31a9.38,9.38,0,0,1,0,13.25Z"/><path class="cls-9" d="M1036.29,669.49a39.48,39.48,0,0,1,0-55.87l21.31,21.31a9.36,9.36,0,0,0,0,13.25Z"/><path class="cls-5" d="M1064.22,602.05a39.51,39.51,0,1,0,39.51,39.5A39.5,39.5,0,0,0,1064.22,602.05Zm0,48.87a9.37,9.37,0,1,1,9.37-9.37A9.37,9.37,0,0,1,1064.22,650.92Z"/><path class="cls-13" d="M1312.73,651.28V631.83a7.06,7.06,0,0,0-7.06-7.06h-4.24a7.12,7.12,0,0,1-6.55-4.44l0-.09a7.13,7.13,0,0,1,1.49-7.8l3-3a7,7,0,0,0,0-10l-13.75-13.76a7.07,7.07,0,0,0-10,0l-3,3a7.11,7.11,0,0,1-7.8,1.48l-.08,0a7.12,7.12,0,0,1-4.44-6.56v-4.23a7.06,7.06,0,0,0-7.06-7.06h-19.45a7.06,7.06,0,0,0-7.06,7.06v4.23a7.12,7.12,0,0,1-4.44,6.56l-.08,0a7.11,7.11,0,0,1-7.8-1.48l-3-3a7.07,7.07,0,0,0-10,0l-13.75,13.76a7,7,0,0,0,0,10l3,3a7.13,7.13,0,0,1,1.49,7.8l0,.09a7.12,7.12,0,0,1-6.55,4.44h-4.24a7.06,7.06,0,0,0-7.06,7.06v19.45a7.06,7.06,0,0,0,7.06,7.06h4.24a7.12,7.12,0,0,1,6.55,4.43l0,.09a7.13,7.13,0,0,1-1.49,7.8l-3,3a7,7,0,0,0,0,10l13.75,13.75a7,7,0,0,0,10,0l3-3a7.13,7.13,0,0,1,7.8-1.49l.08,0a7.12,7.12,0,0,1,4.44,6.55v4.24a7.06,7.06,0,0,0,7.06,7.06h19.45a7.06,7.06,0,0,0,7.06-7.06V699.5a7.12,7.12,0,0,1,4.44-6.55l.08,0a7.13,7.13,0,0,1,7.8,1.49l3,3a7,7,0,0,0,10,0l13.75-13.75a7,7,0,0,0,0-10l-3-3a7.13,7.13,0,0,1-1.49-7.8l0-.09a7.12,7.12,0,0,1,6.55-4.43h4.24A7.06,7.06,0,0,0,1312.73,651.28Z"/><path class="cls-23" d="M1270.05,641.3a25.36,25.36,0,0,1-2.36,10.77l26.86,11.68a7.11,7.11,0,0,1,.29-.89l0-.09a7.12,7.12,0,0,1,6.55-4.43h4.24a7.06,7.06,0,0,0,7.06-7.06V631.83a7.06,7.06,0,0,0-7.06-7.06h-4.24a7.12,7.12,0,0,1-6.55-4.44l0-.09a7,7,0,0,1-.29-.88L1267.79,631A25.32,25.32,0,0,1,1270.05,641.3Z"/><path class="cls-23" d="M1216.92,641.3a25.36,25.36,0,0,0,2.36,10.77l-26.86,11.68a7.11,7.11,0,0,0-.29-.89l0-.09a7.12,7.12,0,0,0-6.55-4.43h-4.24a7.06,7.06,0,0,1-7.06-7.06V631.83a7.06,7.06,0,0,1,7.06-7.06h4.24a7.12,7.12,0,0,0,6.55-4.44l0-.09a7,7,0,0,0,.29-.88L1219.18,631A25.32,25.32,0,0,0,1216.92,641.3Z"/><path class="cls-5" d="M1312.73,651.28V631.83a7.06,7.06,0,0,0-7.06-7.06h-4.24a7.12,7.12,0,0,1-6.55-4.44l0-.09a7.13,7.13,0,0,1,1.49-7.8l3-3a7,7,0,0,0,0-10l-13.75-13.76a7.07,7.07,0,0,0-10,0l-3,3a7.11,7.11,0,0,1-7.8,1.48l-.08,0a7.12,7.12,0,0,1-4.44-6.56v-4.23a7.06,7.06,0,0,0-7.06-7.06h-19.45a7.06,7.06,0,0,0-7.06,7.06v4.23a7.12,7.12,0,0,1-4.44,6.56l-.08,0a7.11,7.11,0,0,1-7.8-1.48l-3-3a7.07,7.07,0,0,0-10,0l-13.75,13.76a7,7,0,0,0,0,10l3,3a7.13,7.13,0,0,1,1.49,7.8l0,.09a7.12,7.12,0,0,1-6.55,4.44h-4.24a7.06,7.06,0,0,0-7.06,7.06v19.45a7.06,7.06,0,0,0,7.06,7.06h4.24a7.12,7.12,0,0,1,6.55,4.43l0,.09a7.13,7.13,0,0,1-1.49,7.8l-3,3a7,7,0,0,0,0,10l13.75,13.75a7,7,0,0,0,10,0l3-3a7.13,7.13,0,0,1,7.8-1.49l.08,0a7.12,7.12,0,0,1,4.44,6.55v4.24a7.06,7.06,0,0,0,7.06,7.06h19.45a7.06,7.06,0,0,0,7.06-7.06V699.5a7.12,7.12,0,0,1,4.44-6.55l.08,0a7.13,7.13,0,0,1,7.8,1.49l3,3a7,7,0,0,0,10,0l13.75-13.75a7,7,0,0,0,0-10l-3-3a7.13,7.13,0,0,1-1.49-7.8l0-.09a7.12,7.12,0,0,1,6.55-4.43h4.24A7.06,7.06,0,0,0,1312.73,651.28Z"/><path class="cls-7" d="M1243.48,602.05a39.51,39.51,0,1,0,39.51,39.5A39.5,39.5,0,0,0,1243.48,602.05Zm0,48.87a9.37,9.37,0,1,1,9.37-9.37A9.36,9.36,0,0,1,1243.48,650.92Z"/><path class="cls-9" d="M1271.42,669.49a39.51,39.51,0,0,0,0-55.87l-21.31,21.31a9.38,9.38,0,0,1,0,13.25Z"/><path class="cls-9" d="M1215.55,669.49a39.51,39.51,0,0,1,0-55.87l21.31,21.31a9.38,9.38,0,0,0,0,13.25Z"/><path class="cls-5" d="M1243.48,602.05a39.51,39.51,0,1,0,39.51,39.5A39.5,39.5,0,0,0,1243.48,602.05Zm0,48.87a9.37,9.37,0,1,1,9.37-9.37A9.36,9.36,0,0,1,1243.48,650.92Z"/><path class="cls-13" d="M1492,651.28V631.83a7.06,7.06,0,0,0-7.06-7.06h-4.23a7.12,7.12,0,0,1-6.56-4.44l0-.09a7.11,7.11,0,0,1,1.48-7.8l3-3a7.07,7.07,0,0,0,0-10l-13.76-13.76a7.07,7.07,0,0,0-10,0l-3,3a7.11,7.11,0,0,1-7.8,1.48l-.09,0a7.12,7.12,0,0,1-4.44-6.56v-4.23a7.06,7.06,0,0,0-7.06-7.06H1413a7.06,7.06,0,0,0-7,7.06v4.23a7.14,7.14,0,0,1-4.44,6.56l-.09,0a7.11,7.11,0,0,1-7.8-1.48l-3-3a7.08,7.08,0,0,0-10,0l-13.75,13.76a7,7,0,0,0,0,10l3,3a7.15,7.15,0,0,1,1.48,7.8l0,.09a7.1,7.1,0,0,1-6.55,4.44h-4.24a7.06,7.06,0,0,0-7,7.06v19.45a7.06,7.06,0,0,0,7,7.06h4.24a7.1,7.1,0,0,1,6.55,4.43l0,.09a7.14,7.14,0,0,1-1.48,7.8l-3,3a7,7,0,0,0,0,10l13.75,13.75a7.06,7.06,0,0,0,10,0l3-3a7.13,7.13,0,0,1,7.8-1.49l.09,0a7.13,7.13,0,0,1,4.44,6.55v4.24a7.06,7.06,0,0,0,7,7.06h19.45a7.06,7.06,0,0,0,7.06-7.06V699.5A7.12,7.12,0,0,1,1444,693l.09,0a7.13,7.13,0,0,1,7.8,1.49l3,3a7,7,0,0,0,10,0l13.76-13.75a7.07,7.07,0,0,0,0-10l-3-3a7.11,7.11,0,0,1-1.48-7.8l0-.09a7.13,7.13,0,0,1,6.56-4.43h4.23A7.06,7.06,0,0,0,1492,651.28Z"/><path class="cls-23" d="M1449.32,641.3a25.37,25.37,0,0,1-2.37,10.77l26.86,11.68a7.16,7.16,0,0,1,.3-.89l0-.09a7.13,7.13,0,0,1,6.56-4.43h4.23a7.06,7.06,0,0,0,7.06-7.06V631.83a7.06,7.06,0,0,0-7.06-7.06h-4.23a7.12,7.12,0,0,1-6.56-4.44l0-.09a7,7,0,0,1-.3-.88L1447.05,631A25.33,25.33,0,0,1,1449.32,641.3Z"/><path class="cls-23" d="M1396.18,641.3a25.37,25.37,0,0,0,2.37,10.77l-26.86,11.68a9.3,9.3,0,0,0-.3-.89l0-.09a7.1,7.1,0,0,0-6.55-4.43h-4.24a7.06,7.06,0,0,1-7-7.06V631.83a7.06,7.06,0,0,1,7-7.06h4.24a7.1,7.1,0,0,0,6.55-4.44l0-.09a9.12,9.12,0,0,0,.3-.88L1398.44,631A25.49,25.49,0,0,0,1396.18,641.3Z"/><path class="cls-5" d="M1492,651.28V631.83a7.06,7.06,0,0,0-7.06-7.06h-4.23a7.12,7.12,0,0,1-6.56-4.44l0-.09a7.11,7.11,0,0,1,1.48-7.8l3-3a7.07,7.07,0,0,0,0-10l-13.76-13.76a7.07,7.07,0,0,0-10,0l-3,3a7.11,7.11,0,0,1-7.8,1.48l-.09,0a7.12,7.12,0,0,1-4.44-6.56v-4.23a7.06,7.06,0,0,0-7.06-7.06H1413a7.06,7.06,0,0,0-7,7.06v4.23a7.14,7.14,0,0,1-4.44,6.56l-.09,0a7.11,7.11,0,0,1-7.8-1.48l-3-3a7.08,7.08,0,0,0-10,0l-13.75,13.76a7,7,0,0,0,0,10l3,3a7.15,7.15,0,0,1,1.48,7.8l0,.09a7.1,7.1,0,0,1-6.55,4.44h-4.24a7.06,7.06,0,0,0-7,7.06v19.45a7.06,7.06,0,0,0,7,7.06h4.24a7.1,7.1,0,0,1,6.55,4.43l0,.09a7.14,7.14,0,0,1-1.48,7.8l-3,3a7,7,0,0,0,0,10l13.75,13.75a7.06,7.06,0,0,0,10,0l3-3a7.13,7.13,0,0,1,7.8-1.49l.09,0a7.13,7.13,0,0,1,4.44,6.55v4.24a7.06,7.06,0,0,0,7,7.06h19.45a7.06,7.06,0,0,0,7.06-7.06V699.5A7.12,7.12,0,0,1,1444,693l.09,0a7.13,7.13,0,0,1,7.8,1.49l3,3a7,7,0,0,0,10,0l13.76-13.75a7.07,7.07,0,0,0,0-10l-3-3a7.11,7.11,0,0,1-1.48-7.8l0-.09a7.13,7.13,0,0,1,6.56-4.43h4.23A7.06,7.06,0,0,0,1492,651.28Z"/><path class="cls-7" d="M1422.75,602.05a39.51,39.51,0,1,0,39.51,39.5A39.5,39.5,0,0,0,1422.75,602.05Zm0,48.87a9.37,9.37,0,1,1,9.37-9.37A9.36,9.36,0,0,1,1422.75,650.92Z"/><path class="cls-9" d="M1450.68,669.49a39.48,39.48,0,0,0,0-55.87l-21.31,21.31a9.36,9.36,0,0,1,0,13.25Z"/><path class="cls-9" d="M1394.81,669.49a39.51,39.51,0,0,1,0-55.87l21.31,21.31a9.38,9.38,0,0,0,0,13.25Z"/><path class="cls-5" d="M1422.75,602.05a39.51,39.51,0,1,0,39.51,39.5A39.5,39.5,0,0,0,1422.75,602.05Zm0,48.87a9.37,9.37,0,1,1,9.37-9.37A9.36,9.36,0,0,1,1422.75,650.92Z"/><line class="cls-5" x1="327.49" y1="514.2" x2="1442.43" y2="514.2"/><polygon class="cls-9" points="540.35 514.2 396.84 514.2 396.84 309.8 513.69 309.8 540.35 336.45 540.35 514.2"/><polygon class="cls-7" points="540.35 336.45 529.35 325.46 396.84 514.2 540.35 514.2 540.35 336.45"/><polygon class="cls-5" points="540.35 514.2 396.84 514.2 396.84 309.8 513.69 309.8 540.35 336.45 540.35 514.2"/><polygon class="cls-6" points="513.69 336.45 540.35 336.45 513.69 309.8 513.69 336.45"/><line class="cls-5" x1="412.65" y1="330.8" x2="501.77" y2="330.8"/><line class="cls-5" x1="412.65" y1="347.04" x2="501.77" y2="347.04"/><line class="cls-5" x1="412.65" y1="363.28" x2="524.53" y2="363.28"/><line class="cls-5" x1="412.65" y1="395.76" x2="524.53" y2="395.76"/><line class="cls-5" x1="412.65" y1="412" x2="524.53" y2="412"/><line class="cls-5" x1="412.65" y1="428.24" x2="524.53" y2="428.24"/><line class="cls-5" x1="412.65" y1="444.48" x2="524.53" y2="444.48"/><line class="cls-5" x1="412.65" y1="460.73" x2="524.53" y2="460.73"/><line class="cls-5" x1="472.45" y1="493.21" x2="524.53" y2="493.21"/><circle class="cls-24" cx="396.84" cy="309.8" r="25.46"/><circle class="cls-5" cx="396.84" cy="309.8" r="25.46"/><line class="cls-25" x1="396.84" y1="318.87" x2="396.84" y2="300.74"/><line class="cls-25" x1="387.77" y1="309.8" x2="405.9" y2="309.8"/><polyline class="cls-26" points="678.5 428.24 700.27 406.48 678.5 384.71"/><line class="cls-26" x1="700.27" y1="406.47" x2="600.86" y2="406.47"/><polyline class="cls-26" points="1097.81 428.24 1119.58 406.48 1097.81 384.71"/><line class="cls-26" x1="1119.58" y1="406.47" x2="1020.17" y2="406.47"/><rect class="cls-22" x="760.92" y="386.8" width="149.64" height="127.4"/><path class="cls-27" d="M760.92,482.68V514.2H910.55V386.8S901.12,472,760.92,482.68Z"/><rect class="cls-5" x="760.92" y="386.8" width="149.64" height="127.4"/><rect class="cls-22" x="760.92" y="356.04" width="149.64" height="30.76"/><rect class="cls-28" x="760.92" y="356.04" width="149.64" height="10.57"/><rect class="cls-27" x="823.06" y="356.04" width="25.35" height="97.23"/><rect class="cls-22" x="823.06" y="356.04" width="25.35" height="10.57"/><rect class="cls-5" x="823.06" y="356.04" width="25.35" height="97.23"/><rect class="cls-5" x="760.92" y="356.04" width="149.64" height="30.76"/><rect class="cls-27" x="910.55" y="386.8" width="58.94" height="127.4" transform="translate(1880.05 901) rotate(180)"/><rect class="cls-5" x="910.55" y="386.8" width="58.94" height="127.4" transform="translate(1880.05 901) rotate(180)"/><rect class="cls-27" x="910.55" y="356.04" width="58.94" height="30.76" transform="translate(1880.05 742.84) rotate(180)"/><rect class="cls-22" x="910.55" y="356.04" width="58.94" height="10.57" transform="translate(1880.05 722.65) rotate(180)"/><rect class="cls-5" x="910.55" y="356.04" width="58.94" height="30.76" transform="translate(1880.05 742.84) rotate(180)"/><path class="cls-29" d="M807.19,275.13a77.26,77.26,0,0,1,109.12,0"/><path class="cls-29" d="M821,289a57.69,57.69,0,0,1,81.48,0"/><path class="cls-29" d="M834.83,302.77a38.1,38.1,0,0,1,53.84,0"/><path class="cls-29" d="M848.64,316.59a18.53,18.53,0,0,1,26.21,0"/><circle class="cls-30" cx="861.75" cy="329.69" r="5.86"/><path class="cls-6" d="M1169.33,346.73h210.44a0,0,0,0,1,0,0V511.67a2.53,2.53,0,0,1-2.53,2.53H1171.86a2.53,2.53,0,0,1-2.53-2.53V346.73A0,0,0,0,1,1169.33,346.73Z"/><rect class="cls-31" x="1268.95" y="264.46" width="11.21" height="193.1" transform="translate(1635.56 -913.54) rotate(90)"/><rect class="cls-1" x="1247.03" y="297.58" width="55.04" height="193.1" transform="translate(880.42 1668.68) rotate(-90)"/><path class="cls-32" d="M1171.86,326.78h205.38a2.53,2.53,0,0,1,2.53,2.53v17.42a0,0,0,0,1,0,0H1169.33a0,0,0,0,1,0,0V329.32A2.53,2.53,0,0,1,1171.86,326.78Z"/><rect class="cls-33" x="1191.82" y="433.4" width="41.28" height="41.28"/><line class="cls-34" x1="1191.82" y1="483.41" x2="1233.1" y2="483.41"/><line class="cls-34" x1="1191.82" y1="492.14" x2="1233.1" y2="492.14"/><rect class="cls-35" x="1253.91" y="433.4" width="41.28" height="41.28"/><line class="cls-34" x1="1253.91" y1="483.41" x2="1295.19" y2="483.41"/><line class="cls-34" x1="1253.91" y1="492.14" x2="1295.19" y2="492.14"/><rect class="cls-36" x="1316" y="433.4" width="41.28" height="41.28"/><line class="cls-34" x1="1316" y1="483.41" x2="1357.28" y2="483.41"/><line class="cls-34" x1="1316" y1="492.14" x2="1357.28" y2="492.14"/><path class="cls-37" d="M1324,389.06l-28.85,32.59h75.09l-28.85-32.59A11.61,11.61,0,0,0,1324,389.06Z"/><path class="cls-38" d="M1272.48,397.43,1251,421.65h60.27l-21.44-24.22A11.6,11.6,0,0,0,1272.48,397.43Z"/><circle class="cls-31" cx="1204.07" cy="387.53" r="12.25"/><circle class="cls-39" cx="1197.87" cy="336.76" r="2.36"/><circle class="cls-24" cx="1188.94" cy="336.76" r="2.36"/><circle class="cls-15" cx="1180" cy="336.76" r="2.36"/><polygon class="cls-31" points="1147.98 441.53 1159.79 465.45 1186.19 469.29 1167.08 487.91 1171.59 514.2 1147.98 501.79 1124.37 514.2 1128.88 487.91 1109.78 469.29 1136.17 465.45 1147.98 441.53"/><path class="cls-39" d="M1170.25,467c-5,9-16.24,19.53-41.54,21.94l-4.34,25.29L1148,501.79l23.61,12.41-4.51-26.29,19.11-18.62Z"/><polygon class="cls-5" points="1147.98 441.53 1159.79 465.45 1186.19 469.29 1167.08 487.91 1171.59 514.2 1147.98 501.79 1124.37 514.2 1128.88 487.91 1109.78 469.29 1136.17 465.45 1147.98 441.53"/><polygon class="cls-31" points="1377.92 288.34 1389.72 312.26 1416.12 316.1 1397.02 334.72 1401.53 361.01 1377.92 348.6 1354.31 361.01 1358.81 334.72 1339.71 316.1 1366.11 312.26 1377.92 288.34"/><path class="cls-39" d="M1400.18,313.78c-5,9-16.24,19.53-41.54,21.94L1354.3,361l23.62-12.42L1401.53,361,1397,334.72l19.1-18.63Z"/><polygon class="cls-5" points="1377.92 288.34 1389.72 312.26 1416.12 316.1 1397.02 334.72 1401.53 361.01 1377.92 348.6 1354.31 361.01 1358.81 334.72 1339.71 316.1 1366.11 312.26 1377.92 288.34"/><polygon class="cls-31" points="1341.54 259.44 1348.77 274.1 1364.95 276.45 1353.24 287.86 1356.01 303.97 1341.54 296.37 1327.07 303.97 1329.83 287.86 1318.13 276.45 1334.3 274.1 1341.54 259.44"/><path class="cls-39" d="M1355.18,275c-3.06,5.52-10,12-25.45,13.45L1327.07,304l14.47-7.6L1356,304l-2.77-16.11L1365,276.45Z"/><polygon class="cls-5" points="1341.54 259.44 1348.77 274.1 1364.95 276.45 1353.24 287.86 1356.01 303.97 1341.54 296.37 1327.07 303.97 1329.83 287.86 1318.13 276.45 1334.3 274.1 1341.54 259.44"/></svg>