<svg viewBox="0 0 800 600" xmlns="http://www.w3.org/2000/svg"><circle cx="238.43" cy="224.12" fill="#fae8e8" r="35.22"/><path d="m527.06 94.16-1.24-.38a57.37 57.37 0 0 0 -69.48 31.82l-33.17 75.8a21.43 21.43 0 0 1 -1.08 2.14l-28.33 49.82c-11.58 20.36-42.63 12.32-42.88-11.2v-1.35a34.73 34.73 0 0 0 -24.88-32.94l-3-.89c-32.06-9.52-60.44 23.07-46.6 53.51a45.6 45.6 0 0 1 -28 62.43l-3.5 1.08a33.11 33.11 0 0 0 -16.54 51.68l22.93 30.1a27.26 27.26 0 0 1 2.46 29.16 43.28 43.28 0 0 0 20 59.32l1.12.53a37.08 37.08 0 0 0 49-17.34c.09-.17.17-.34.25-.51a8.82 8.82 0 0 1 12-4l37.57 19.47a145.59 145.59 0 0 0 156.93-14.76l36.06-28.32a22.92 22.92 0 0 0 1-35.26 57.69 57.69 0 0 1 -5.16-81.49l14-15.81a62.71 62.71 0 0 0 -8.6-91l-.31-.24c-5.39-4.18-2.66-37.73 1-67.74a59.13 59.13 0 0 0 -41.55-63.63zm-198.8 346a22.66 22.66 0 1 1 13.48-29.08 22.65 22.65 0 0 1 -13.48 29.05zm223.48-145.8a22.66 22.66 0 1 1 13.48-29.08 22.67 22.67 0 0 1 -13.48 29.05z" fill="#fae8e8"/><circle cx="591.6" cy="370.77" fill="#fae8e8" r="29.85"/><circle cx="208.4" cy="419.98" fill="#fae8e8" r="29.85"/><path d="m326.45 137h147.1v147.1h-147.1z" fill="#f7df1e"/><path d="m365.13 259.94 11.26-6.82c2.17 3.85 4.14 7.11 8.88 7.11 4.54 0 7.41-1.77 7.41-8.69v-47h13.82v47.2c0 14.32-8.39 20.83-20.64 20.83-11.05 0-17.47-5.72-20.73-12.63"/><path d="m414 258.46 11.25-6.52c3 4.84 6.82 8.39 13.63 8.39 5.73 0 9.38-2.86 9.38-6.81 0-4.74-3.75-6.42-10.07-9.18l-3.46-1.49c-10-4.24-16.58-9.57-16.58-20.83 0-10.37 7.89-18.27 20.24-18.27 8.79 0 15.11 3.06 19.65 11.06l-10.77 6.91c-2.37-4.24-4.93-5.92-8.88-5.92s-6.62 2.57-6.62 5.92c0 4.15 2.57 5.83 8.49 8.4l3.46 1.48c11.75 5 18.37 10.17 18.37 21.72 0 12.44-9.78 19.26-22.91 19.26-12.84 0-21.13-6.13-25.18-14.12"/><g fill-rule="evenodd"><path d="m305.12 217.24h17.14v17.52h8.66a37.67 37.67 0 0 0 11.91-2 30.92 30.92 0 0 0 5.79-2.62 21.56 21.56 0 0 1 -4-11.08c-.49-5.34.59-12.3 4.21-16.49l1.8-2.08 2.14 1.72c5.41 4.34 9.95 10.41 10.76 17.33 6.5-1.91 14.14-1.46 19.88 1.85l2.35 1.36-1.23 2.41c-4.86 9.47-15 12.41-24.91 11.89-14.84 36.95-47.15 54.45-86.31 54.45-20.24 0-38.81-7.57-49.38-25.52l-.17-.29-1.54-3.14a49.79 49.79 0 0 1 -4-25.21l.25-2.59h14.65v-17.51h17.14v-17.13h34.27v-17.11h20.57v34.27" fill="#364548"/><path d="m360.65 223.73c1.14-8.94-5.54-15.95-9.68-19.28-4.78 5.52-5.52 20 2 26.09-4.18 3.71-13 7.08-22 7.08h-109.88a46.34 46.34 0 0 0 4.55 25.52l1.25 2.28a43.78 43.78 0 0 0 2.59 3.89q6.78.44 12.49.3c7.49-.16 13.59-1.05 18.22-2.65a1.32 1.32 0 0 1 .87 2.49c-.62.22-1.26.42-1.92.61a57.22 57.22 0 0 1 -12.59 2.05c.3 0-.31 0-.32 0l-.55.05c-2 .11-4.13.13-6.32.13-2.4 0-4.76 0-7.39-.18l-.07.05c9.15 10.28 23.46 16.45 41.4 16.45 38 0 70.16-16.83 84.41-54.6 10.12 1 19.84-1.55 24.26-10.18-7-4.06-16.1-2.77-21.31-.14" fill="#22a0c8"/><path d="m360.65 223.73c1.14-8.94-5.54-15.95-9.68-19.28-4.78 5.52-5.52 20 2 26.09-4.18 3.71-13 7.08-22 7.08h-103.38c-.44 14.42 4.91 25.37 14.38 32 7.49-.16 13.59-1.05 18.22-2.65a1.32 1.32 0 0 1 .87 2.49c-.62.22-1.26.42-1.92.61a60.1 60.1 0 0 1 -12.93 2.14l-.12-.12c12.92 6.63 31.65 6.6 53.13-1.65 24.08-9.25 46.49-26.87 62.12-47-.23.1-.46.21-.68.33" fill="#37b1d9"/><path d="m221.3 249.06a43.87 43.87 0 0 0 4.34 14.08l1.25 2.28a43.78 43.78 0 0 0 2.59 3.89q6.78.44 12.49.3c7.49-.16 13.59-1.05 18.22-2.65a1.32 1.32 0 0 1 .87 2.49c-.62.22-1.26.42-1.92.61a60.13 60.13 0 0 1 -12.91 2.09h-.64c-2 .11-4.11.17-6.3.17-2.39 0-4.84 0-7.48-.18 9.15 10.29 23.55 16.48 41.49 16.48 32.5 0 60.77-12.33 77.18-39.59h-129.18" fill="#1b81a5"/><path d="m228.58 249.06a33 33 0 0 0 13.42 20.55c7.49-.16 13.59-1.05 18.22-2.65a1.32 1.32 0 0 1 .87 2.49c-.62.22-1.26.42-1.92.61a61 61 0 0 1 -13 2.09c12.92 6.63 31.6 6.53 53.08-1.72a140.25 140.25 0 0 0 36.71-21.37z" fill="#1d91b4"/><path d="m236 220.1h14.85v14.9h-14.85zm1.23 1.24h1.18v12.38h-1.18zm2.21 0h1.22v12.38h-1.22zm2.25 0h1.22v12.38h-1.22zm2.25 0h1.22v12.38h-1.22zm2.25 0h1.22v12.38h-1.22zm2.25 0h1.17v12.38h-1.17zm4.69-18.34h14.87v14.85h-14.87zm1.24 1.24h1.17v12.38h-1.17zm2.21 0h1.21v12.38h-1.21v-12.42zm2.25 0h1.17v12.38h-1.21zm2.25 0h1.22v12.38h-1.22zm2.25 0h1.22v12.38h-1.22zm2.25 0h1.17v12.38h-1.17z" fill="#23a3c2"/><path d="m253.13 220.1h14.87v14.9h-14.87zm1.24 1.24h1.17v12.38h-1.17zm2.21 0h1.21v12.38h-1.21zm2.25 0h1.17v12.38h-1.21zm2.25 0h1.22v12.38h-1.22zm2.25 0h1.22v12.38h-1.22zm2.25 0h1.17v12.38h-1.17z" fill="#34bbde"/><path d="m270.27 220.1h14.86v14.9h-14.86zm1.24 1.24h1.17v12.38h-1.17zm2.2 0h1.22v12.38h-1.22zm2.25 0h1.22v12.38h-1.18zm2.26 0h1.21v12.38h-1.21zm2.25 0h1.22v12.38h-1.22zm2.25 0h1.17v12.38h-1.17z" fill="#23a3c2"/><path d="m270.27 203h14.86v14.85h-14.86zm1.24 1.24h1.17v12.38h-1.17zm2.2 0h1.22v12.38h-1.22zm2.25 0h1.22v12.38h-1.18zm2.26 0h1.21v12.38h-1.21zm2.25 0h1.22v12.38h-1.22zm2.25 0h1.17v12.38h-1.17zm4.69 15.9h14.85v14.86h-14.85zm1.24 1.24h1.17v12.38h-1.17zm2.2 0h1.22v12.38h-1.22zm2.25 0h1.22v12.38h-1.22zm2.25 0h1.22v12.38h-1.22zm2.25 0h1.22v12.38h-1.22zm2.26 0h1.14v12.38h-1.17z" fill="#34bbde"/><path d="m287.41 203h14.85v14.85h-14.85zm1.24 1.24h1.17v12.38h-1.17zm2.2 0h1.22v12.38h-1.22zm2.25 0h1.22v12.38h-1.22zm2.25 0h1.22v12.38h-1.22zm2.25 0h1.22v12.38h-1.22zm2.26 0h1.14v12.38h-1.17z" fill="#23a3c2"/><path d="m287.41 185.82h14.85v14.86h-14.85zm1.24 1.24h1.17v12.38h-1.17zm2.2 0h1.22v12.38h-1.22zm2.25 0h1.22v12.38h-1.22zm2.25 0h1.22v12.38h-1.22zm2.25 0h1.22v12.38h-1.22zm2.26 0h1.14v12.38h-1.17v-12.38z" fill="#34bbde"/><path d="m304.55 220.1h14.85v14.9h-14.85zm1.24 1.24h1.21v12.38h-1.17v-12.38zm2.2 0h1.22v12.38h-1.21v-12.38zm2.25 0h1.22v12.38h-1.22zm2.25 0h1.22v12.38h-1.22zm2.25 0h1.26v12.38h-1.22zm2.25 0h1.17v12.38h-1.16z" fill="#23a3c2"/><path d="m267.06 259a4.1 4.1 0 0 1 .11 8.19h-.11a4.1 4.1 0 0 1 0-8.19" fill="#d3ecec"/><path d="m267.06 260.2a2.89 2.89 0 0 1 1.06.2 1.2 1.2 0 0 0 .6 2.23 1.2 1.2 0 0 0 1-.62 3 3 0 1 1 -2.71-1.81m-72.48-9.66h190.67c-4.15-1-13.13-2.47-11.65-7.91-7.55 8.73-25.75 6.13-30.34 1.82-5.12 7.42-34.9 4.6-37-1.18-6.42 7.52-26.29 7.52-32.7 0-2.08 5.78-31.85 8.6-37 1.18-4.59 4.31-22.79 6.91-30.34-1.82 1.48 5.44-7.5 6.86-11.65 7.91" fill="#364548"/><path d="m278 288.56c-10.15-4.81-15.72-11.36-18.82-18.5a62.91 62.91 0 0 1 -13.56 2.05c-2 .12-4.07.17-6.26.17q-3.78 0-8-.22c9.31 9.3 20.76 16.46 42 16.59 1.56 0 3.11 0 4.66-.09" fill="#bdd9d7"/><path d="m262.9 276.65a35.67 35.67 0 0 1 -3.76-6.6 62.92 62.92 0 0 1 -13.57 2.07c3.62 2 8.79 3.78 17.33 4.53" fill="#d3ecec"/></g><path d="m565 193.78q-2.44-.84-4.94-1.56c.28-1.12.53-2.25.76-3.37 3.75-18.17 1.3-32.81-7.06-37.63-8-4.62-21.12.2-34.35 11.71-1.31 1.14-2.58 2.31-3.83 3.51-.83-.8-1.68-1.58-2.54-2.35-13.88-12.31-27.78-17.5-36.13-12.67-8 4.63-10.38 18.4-7 35.62.34 1.7.72 3.4 1.14 5.08q-3 .84-5.69 1.79c-16.26 5.67-26.65 14.56-26.65 23.77 0 9.53 11.15 19.07 28.09 24.86 1.38.47 2.76.9 4.16 1.3q-.69 2.73-1.21 5.49c-3.21 16.92-.7 30.35 7.28 35 8.25 4.75 22.09-.13 35.57-11.92q1.59-1.39 3.2-2.95 2 1.95 4.16 3.79c13 11.23 25.95 15.77 33.92 11.15 8.24-4.77 10.92-19.2 7.44-36.76-.26-1.34-.57-2.71-.92-4.11 1-.29 1.93-.58 2.86-.89 17.61-5.83 29.07-15.27 29.07-24.92-.01-9.29-10.73-18.23-27.33-23.94zm-41.29-25.9c11.35-9.87 21.94-13.76 26.77-11 5.15 3 7.15 14.93 3.92 30.62q-.33 1.53-.69 3.06a156 156 0 0 0 -20.54-3.25 154.16 154.16 0 0 0 -13-16.21q1.74-1.63 3.54-3.22zm-39.65 57.68q2.08 4 4.36 7.95c1.54 2.66 3.15 5.3 4.82 7.89a143.26 143.26 0 0 1 -14.16-2.28c1.36-4.38 3.03-8.93 4.98-13.56zm0-15.43c-1.91-4.54-3.54-9-4.88-13.3 4.38-1 9.06-1.78 13.93-2.39-1.63 2.54-3.2 5.13-4.71 7.74s-2.96 5.26-4.35 7.95zm3.49 7.71q3-6.32 6.54-12.38 3.5-6.08 7.44-11.86c4.57-.34 9.26-.52 14-.52s9.45.18 14 .53q3.91 5.77 7.41 11.81t6.62 12.33q-3.07 6.33-6.6 12.43-3.5 6.07-7.37 11.89c-4.56.33-9.27.5-14.07.5s-9.43-.15-13.91-.44q-4-5.82-7.51-11.91t-6.56-12.38zm55.09 15.62q2.32-4 4.46-8.14a138.47 138.47 0 0 1 5.15 13.52 141.58 141.58 0 0 1 -14.32 2.44q2.42-3.87 4.7-7.82zm4.36-23.33q-2.13-4-4.42-8-2.25-3.9-4.67-7.69c4.91.62 9.6 1.45 14 2.45a136.67 136.67 0 0 1 -4.91 13.24zm-31.44-34.31a139.77 139.77 0 0 1 9 10.91q-9.07-.43-18.15 0c3.04-3.94 6.1-7.6 9.17-10.91zm-35.36-18.72c5.14-3 16.5 1.27 28.48 11.9.76.68 1.53 1.39 2.3 2.13a157.5 157.5 0 0 0 -13.08 16.19 160.43 160.43 0 0 0 -20.5 3.19c-.39-1.57-.74-3.15-1.06-4.74-2.88-14.77-.97-25.88 3.86-28.67zm-7.49 80.42c-1.28-.36-2.54-.76-3.79-1.19-7.49-2.56-13.68-5.88-17.92-9.51-3.81-3.27-5.73-6.51-5.73-9.14 0-5.59 8.34-12.72 22.24-17.57 1.75-.61 3.51-1.16 5.29-1.67a157 157 0 0 0 7.49 19.4 160.56 160.56 0 0 0 -7.58 19.68zm35.56 29.91c-6 5.21-11.93 8.91-17.2 10.77-4.73 1.67-8.49 1.72-10.77.4-4.85-2.79-6.86-13.58-4.11-28.05.32-1.71.7-3.41 1.12-5.1a155.62 155.62 0 0 0 20.7 3 159.85 159.85 0 0 0 13.19 16.29c-.96.92-1.93 1.82-2.93 2.69zm7.5-7.41c-3.12-3.36-6.22-7.07-9.25-11.06q4.41.16 9 .17c3.13 0 6.23-.07 9.27-.21a139.93 139.93 0 0 1 -9.02 11.08zm39.84 9.13c-.91 4.93-2.75 8.22-5 9.53-4.84 2.8-15.19-.84-26.35-10.45q-1.92-1.65-3.87-3.52a153.53 153.53 0 0 0 12.88-16.35 153.26 153.26 0 0 0 20.8-3.2c.32 1.26.6 2.5.84 3.71 1.5 7.77 1.72 14.79.7 20.28zm5.58-32.78c-.83.28-1.7.55-2.58.81a152.91 152.91 0 0 0 -7.77-19.46 154.19 154.19 0 0 0 7.47-19.18c1.57.46 3.1.94 4.57 1.44 14.21 4.89 22.88 12.13 22.88 17.7-.01 5.94-9.37 13.65-24.57 18.69z" fill="#53c1de"/><path d="m515.51 204.1a13.72 13.72 0 1 1 -13.72 13.71 13.71 13.71 0 0 1 13.72-13.71" fill="#53c1de"/><path d="m223.82 282.66h233.69v170.47h-233.69z" fill="#f9f9fb"/><path d="m223.82 359.21h199.16l34.53-42.59v-33.96h-233.69z" fill="#e4e7eb"/><path d="m223.82 282.66h233.69v170.47h-233.69z" fill="none" stroke="#70004b" stroke-linecap="round" stroke-linejoin="round" stroke-width="4"/><path d="m412.9 337.68h-233.69l44.61-55.02h233.69z" fill="#fff" stroke="#70004b" stroke-linecap="round" stroke-linejoin="round" stroke-width="4"/><path d="m457.51 282.66h112.13v170.47h-112.13z" fill="#dcdcde" transform="matrix(-1 0 0 -1 1027.16 735.79)"/><path d="m457.51 316.62 39.79 42.59h72.35v-76.55h-112.14z" fill="#b8b8ba"/><path d="m457.51 282.66h112.13v170.47h-112.13z" fill="none" stroke="#70004b" stroke-linecap="round" stroke-linejoin="round" stroke-width="4" transform="matrix(-1 0 0 -1 1027.16 735.79)"/><path d="m508.66 337.68h112.13l-51.14-55.02h-112.14z" fill="#e4e7eb"/><path d="m477.66 282.66 2.91 2.92a30.29 30.29 0 0 0 21.43 8.88h78.93l-11.26-11.8z" fill="#f9f9fb"/><path d="m508.66 337.68h112.13l-51.14-55.02h-112.14z" fill="none" stroke="#70004b" stroke-linecap="round" stroke-linejoin="round" stroke-width="4"/><path d="m513.58 453.13v-50.17" fill="none" stroke="#70004b" stroke-linecap="round" stroke-linejoin="round" stroke-width="4"/></svg>