<svg id="Layer_1" data-name="Layer 1" xmlns="http://www.w3.org/2000/svg" viewBox="0 0 800 600"><defs><style>.cls-1{fill:#ffebd6;}.cls-2{fill:#95591e;}.cls-3{fill:#d9822b;}.cls-4{fill:#57e09e;}.cls-5{fill:#47b881;}.cls-6{fill:none;stroke:#70004b;stroke-linecap:round;stroke-linejoin:round;stroke-width:4px;}.cls-7{fill:#f2c698;}.cls-8{fill:#96d1f2;}.cls-9{fill:#58b6e7;}.cls-10{fill:#f7d154;}.cls-11{fill:#fbecba;}.cls-12{fill:#ff6e6b;}.cls-13{fill:#ec4c47;}</style></defs><title>Feature 2</title><g id="_2" data-name="2"><circle class="cls-1" cx="279.11" cy="171.59" r="35.22"/><path class="cls-1" d="M594.83,148.87l-1-.78a57.39,57.39,0,0,0-76.19,6l-57.23,59.76a20.83,20.83,0,0,1-1.75,1.64l-43.74,37c-17.88,15.13-44.27-3.11-36.41-25.27l.45-1.28a34.73,34.73,0,0,0-12-39.48l-2.51-1.87c-26.81-20-64.68.87-62.16,34.21h0a45.6,45.6,0,0,1-47.79,49l-3.66-.19a33.1,33.1,0,0,0-33.31,42.83l11.17,36.16a27.24,27.24,0,0,1-7.73,28.22h0a43.29,43.29,0,0,0-1.59,62.59l.87.88a37.08,37.08,0,0,0,52,.58l.41-.39a8.81,8.81,0,0,1,12.61.41l28.57,31.2a145.61,145.61,0,0,0,152.43,40.15L509.81,496a23,23,0,0,0,13.06-32.78h0A57.68,57.68,0,0,1,546.06,385l18.53-10a62.7,62.7,0,0,0,23.26-88.44l-.21-.34c-3.62-5.78,10.49-36.33,24.26-63.25A59.15,59.15,0,0,0,594.83,148.87ZM289.12,405.31a22.66,22.66,0,1,1,22.67-22.66A22.66,22.66,0,0,1,289.12,405.31Zm260-60a22.66,22.66,0,1,1,22.67-22.66A22.66,22.66,0,0,1,549.12,345.31Z"/><circle class="cls-1" cx="560.25" cy="430.81" r="29.85"/><circle class="cls-1" cx="183.51" cy="345.15" r="29.85"/><rect class="cls-2" x="182.7" y="176.43" width="94.29" height="24.8" transform="translate(-66.2 217.83) rotate(-45)"/><path class="cls-3" d="M267.79,326.53,307,365.7a13.44,13.44,0,0,0,19,0h0a13.42,13.42,0,0,0,0-19L286.8,307.51l1.21-1.2,58.47,58.47a17.3,17.3,0,0,0,24.44,0l.95-.95a17.3,17.3,0,0,0,0-24.44L313.4,280.92l1.69-1.69,70.69,70.69a17.28,17.28,0,0,0,24.44,0l.95-.95a17.29,17.29,0,0,0,0-24.43l-70.7-70.7,1.69-1.69,62.37,62.37a17.28,17.28,0,0,0,24.44,0l.95-.94a17.28,17.28,0,0,0,0-24.44l-62.37-62.37h0l-21.61-21.61h7.85a27.57,27.57,0,0,0,27.57-27.57v-6.71A10.35,10.35,0,0,0,371,160.53H280.83a32.7,32.7,0,0,0-12.11,2.31,44.63,44.63,0,0,0-17.66,10.87L214.74,210a44.86,44.86,0,0,0,0,63.44l53.05,53Z"/><rect class="cls-4" x="145.67" y="135" width="113.49" height="52.79" transform="translate(459.67 132.39) rotate(135)"/><rect class="cls-5" x="159.48" y="168.34" width="19.2" height="52.79" transform="translate(426.33 212.87) rotate(135)"/><path class="cls-2" d="M345.94,205.16h7.85a27.57,27.57,0,0,0,26.42-19.73,27.46,27.46,0,0,1-16.95,5.85H332.07Z"/><path class="cls-2" d="M267.79,326.53,307,365.7a13.44,13.44,0,0,0,19,0l2.64-2.63a10.48,10.48,0,0,0,1.33-1.67,9.73,9.73,0,0,1-12.09-1.33l-41.8-41.8h0l-53.05-53a44.86,44.86,0,0,1,0-63.44L214.74,210a44.86,44.86,0,0,0,0,63.44l53.05,53Z"/><path class="cls-6" d="M267.79,326.53,307,365.7a13.44,13.44,0,0,0,19,0h0a13.42,13.42,0,0,0,0-19L286.8,307.51l1.21-1.2,58.47,58.47a17.3,17.3,0,0,0,24.44,0l.95-.95a17.3,17.3,0,0,0,0-24.44L313.4,280.92l1.69-1.69,70.69,70.69a17.28,17.28,0,0,0,24.44,0l.95-.95a17.29,17.29,0,0,0,0-24.43l-70.7-70.7,1.69-1.69,62.37,62.37a17.28,17.28,0,0,0,24.44,0l.95-.94a17.28,17.28,0,0,0,0-24.44l-62.37-62.37h0l-21.61-21.61h7.85a27.57,27.57,0,0,0,27.57-27.57v-6.71A10.35,10.35,0,0,0,371,160.53H280.83A32.67,32.67,0,0,0,270,162.35l-15.62-15.63L187.74,213.4l15.68,15.67a44.83,44.83,0,0,0,11.32,44.41l53.05,53Z"/><rect class="cls-6" x="145.67" y="135" width="113.49" height="52.79" transform="translate(459.67 132.39) rotate(135)"/><rect class="cls-7" x="365.02" y="419.81" width="94.29" height="24.8"/><path class="cls-1" d="M482.7,308v-55.4a13.45,13.45,0,0,0-13.44-13.45h0a13.45,13.45,0,0,0-13.45,13.45V308H454.1V225.32A17.27,17.27,0,0,0,436.82,208h-1.34a17.28,17.28,0,0,0-17.28,17.28V308h-2.39V208a17.28,17.28,0,0,0-17.28-17.28h-1.34A17.28,17.28,0,0,0,379.91,208V308h-2.39V219.8a17.28,17.28,0,0,0-17.28-17.28H358.9a17.28,17.28,0,0,0-17.28,17.28V308h0v30.55L336.07,333a27.57,27.57,0,0,0-39,0l-4.74,4.75a10.34,10.34,0,0,0,0,14.64l63.76,63.77a32.93,32.93,0,0,0,10.2,6.92,44.54,44.54,0,0,0,20.18,4.8h51.37A44.85,44.85,0,0,0,482.7,383V308Z"/><rect class="cls-8" x="355.42" y="444.6" width="113.49" height="52.79"/><rect class="cls-9" x="449.71" y="444.6" width="19.2" height="52.79"/><path class="cls-7" d="M341.62,338.56,336.07,333a27.57,27.57,0,0,0-32.64-4.73,27.35,27.35,0,0,1,16.13,7.84l22.06,22.06Z"/><path class="cls-7" d="M482.7,308v-55.4a13.45,13.45,0,0,0-13.44-13.45h-3.72a9.84,9.84,0,0,0-2.12.24,9.73,9.73,0,0,1,7.6,9.49V308h0v75a44.85,44.85,0,0,1-44.86,44.86h11.69A44.85,44.85,0,0,0,482.7,383V308Z"/><path class="cls-6" d="M482.7,308v-55.4a13.45,13.45,0,0,0-13.44-13.45h0a13.45,13.45,0,0,0-13.45,13.45V308H454.1V225.32A17.27,17.27,0,0,0,436.82,208h-1.34a17.28,17.28,0,0,0-17.28,17.28V308h-2.39V208a17.28,17.28,0,0,0-17.28-17.28h-1.34A17.28,17.28,0,0,0,379.91,208V308h-2.39V219.8a17.28,17.28,0,0,0-17.28-17.28H358.9a17.28,17.28,0,0,0-17.28,17.28V308h0v30.55L336.07,333a27.56,27.56,0,0,0-39,0l-4.74,4.74a10.34,10.34,0,0,0,0,14.64l63.76,63.77a32.86,32.86,0,0,0,8.92,6.34V444.6h94.29V422.43A44.84,44.84,0,0,0,482.7,383V308Z"/><rect class="cls-6" x="355.42" y="444.6" width="113.49" height="52.79"/><rect class="cls-10" x="557.75" y="141.68" width="24.8" height="94.29" transform="translate(33.47 458.46) rotate(-45)"/><path class="cls-11" d="M532.21,326.53,493,365.7a13.44,13.44,0,0,1-19,0h0a13.42,13.42,0,0,1,0-19l39.17-39.18-1.21-1.2-58.47,58.47a17.3,17.3,0,0,1-24.44,0l-.95-.95a17.3,17.3,0,0,1,0-24.44l58.47-58.47-1.69-1.69-70.69,70.69a17.28,17.28,0,0,1-24.44,0l-.95-.95a17.29,17.29,0,0,1,0-24.43l70.7-70.7-1.69-1.69-62.37,62.37a17.28,17.28,0,0,1-24.44,0l-.95-.94a17.28,17.28,0,0,1,0-24.44l62.37-62.37h0l21.61-21.61h-7.85a27.57,27.57,0,0,1-27.57-27.57v-6.71A10.35,10.35,0,0,1,429,160.53h90.17a32.7,32.7,0,0,1,12.11,2.31,44.63,44.63,0,0,1,17.66,10.87L585.26,210a44.86,44.86,0,0,1,0,63.44l-53,53Z"/><rect class="cls-12" x="540.84" y="135" width="113.49" height="52.79" transform="translate(289.15 -375.28) rotate(45)"/><rect class="cls-13" x="621.32" y="168.34" width="19.2" height="52.79" transform="translate(322.49 -389.09) rotate(45)"/><path class="cls-10" d="M454.06,205.16h-7.85a27.57,27.57,0,0,1-26.42-19.73,27.46,27.46,0,0,0,16.95,5.85h31.19Z"/><path class="cls-10" d="M532.21,326.53,493,365.7a13.44,13.44,0,0,1-19,0l-2.64-2.63a10.48,10.48,0,0,1-1.33-1.67,9.73,9.73,0,0,0,12.09-1.33l41.8-41.8h0l53-53a44.86,44.86,0,0,0,0-63.44l8.26,8.26a44.86,44.86,0,0,1,0,63.44l-53,53Z"/><path class="cls-6" d="M532.21,326.53,493,365.7a13.44,13.44,0,0,1-19,0h0a13.42,13.42,0,0,1,0-19l39.17-39.18-1.21-1.2-58.47,58.47a17.3,17.3,0,0,1-24.44,0l-.95-.95a17.3,17.3,0,0,1,0-24.44l58.47-58.47-1.69-1.69-70.69,70.69a17.28,17.28,0,0,1-24.44,0l-.95-.95a17.29,17.29,0,0,1,0-24.43l70.7-70.7-1.69-1.69-62.37,62.37a17.28,17.28,0,0,1-24.44,0l-.95-.94a17.28,17.28,0,0,1,0-24.44l62.37-62.37h0l21.61-21.61h-7.85a27.57,27.57,0,0,1-27.57-27.57v-6.71A10.35,10.35,0,0,1,429,160.53h90.17A32.67,32.67,0,0,1,530,162.35l15.62-15.63,66.68,66.68-15.68,15.67a44.83,44.83,0,0,1-11.32,44.41l-53,53Z"/><rect class="cls-6" x="540.84" y="135" width="113.49" height="52.79" transform="translate(289.15 -375.28) rotate(45)"/></g></svg>