<svg viewBox="0 0 800 600" xmlns="http://www.w3.org/2000/svg"><circle cx="404.82" cy="111.64" fill="#fef8e7" r="35.22"/><path d="m205.79 383.24c28.77 9.3 60.35 20.93 61.88 27.57 0 .13.06.25.09.39a62.7 62.7 0 0 0 79 46.09l20.21-6a57.67 57.67 0 0 1 71.75 38.95 22.94 22.94 0 0 0 32.41 13.95l40.87-20.81a145.62 145.62 0 0 0 79.4-136.17l-1.9-42.21a8.82 8.82 0 0 1 8.63-9.21h.57a37.09 37.09 0 0 0 36.3-37.22v-1.24a43.28 43.28 0 0 0 -45.38-43.13 27.26 27.26 0 0 1 -25.43-14.49l-17.66-33.46a33.11 33.11 0 0 0 -53.85-6.74l-2.45 2.72a45.61 45.61 0 0 1 -68.43-.83c-21.8-25.4-63.27-13.32-68.11 19.76l-.45 3.09a34.75 34.75 0 0 0 19.43 36.41l1.22.58c21.23 10.12 15.46 41.67-7.88 43.61l-57.11 4.76c-.8.06-1.6.09-2.4.07l-82.71-1.79a57.38 57.38 0 0 0 -58.1 49.65l-.18 1.28a59.16 59.16 0 0 0 40.28 64.42zm325.21-99.24a22.66 22.66 0 1 1 32 0 22.66 22.66 0 0 1 -32 0zm-226.32 141.41a22.66 22.66 0 1 1 32.05 0 22.66 22.66 0 0 1 -32.05 0z" fill="#fef8e7"/><circle cx="389.32" cy="493.73" fill="#fef8e7" r="29.85"/><circle cx="595.15" cy="166.77" fill="#fef8e7" r="29.85"/><g stroke-linecap="round" stroke-linejoin="round" stroke-width="4"><circle cx="533.93" cy="297.57" fill="none" r="72.14" stroke="#f2f2f2"/><circle cx="533.93" cy="297.57" fill="none" r="97.69" stroke="#f2f2f2"/><circle cx="533.93" cy="297.57" fill="none" r="121.86" stroke="#f2f2f2"/><path d="m186.72 297.57h296.61" fill="#a1f1ff" stroke="#599ede"/><circle cx="165.46" cy="297.57" fill="#f2f2f2" r="21.26" stroke="#599ede"/><circle cx="250.24" cy="297.57" fill="#f2f2f2" r="21.26" stroke="#599ede"/><circle cx="335.02" cy="297.57" fill="#f2f2f2" r="21.26" stroke="#599ede"/><circle cx="419.8" cy="297.57" fill="#f2f2f2" r="21.26" stroke="#599ede"/><circle cx="533.93" cy="297.57" fill="#d9faff" r="50.61" stroke="#599ede"/></g><path d="m491.82 424.3 19.82-97.55-87.98 46.54 33.83 4.39-21 28.07 20.57 15.39 21-28.06z" fill="#a4edca"/><path d="m501.73 375.52a209.47 209.47 0 0 1 -56 17.87l-9.25 12.36 20.57 15.4 21-28.07 13.76 31.21 9.9-48.77z" fill="#57e09e"/><path d="m491.82 424.3 19.82-97.55-87.98 46.54 33.83 4.39-21 28.07 20.57 15.39 21-28.06z" fill="none" stroke="#70004b" stroke-linecap="round" stroke-linejoin="round" stroke-width="4"/></svg>