<svg viewBox="0 0 800 600" xmlns="http://www.w3.org/2000/svg"><g fill="#d9faff"><circle cx="238.43" cy="224.12" r="35.22"/><path d="m527.06 94.16-1.24-.38a57.37 57.37 0 0 0 -69.48 31.82l-33.17 75.8a21.43 21.43 0 0 1 -1.08 2.14l-28.33 49.82c-11.58 20.36-42.63 12.32-42.88-11.2v-1.35a34.73 34.73 0 0 0 -24.88-32.94l-3-.89c-32.06-9.52-60.44 23.07-46.6 53.51a45.6 45.6 0 0 1 -28 62.43l-3.5 1.08a33.11 33.11 0 0 0 -16.54 51.68l22.93 30.1a27.26 27.26 0 0 1 2.46 29.16 43.28 43.28 0 0 0 20 59.32l1.12.53a37.08 37.08 0 0 0 49-17.34c.09-.17.17-.34.25-.51a8.82 8.82 0 0 1 12-4l37.57 19.47a145.59 145.59 0 0 0 156.93-14.76l36.06-28.32a22.92 22.92 0 0 0 1-35.26 57.69 57.69 0 0 1 -5.16-81.49l14-15.81a62.71 62.71 0 0 0 -8.6-91l-.31-.24c-5.39-4.18-2.66-37.73 1-67.74a59.13 59.13 0 0 0 -41.55-63.63zm-198.8 346a22.66 22.66 0 1 1 13.48-29.08 22.65 22.65 0 0 1 -13.48 29.05zm223.48-145.8a22.66 22.66 0 1 1 13.48-29.08 22.67 22.67 0 0 1 -13.48 29.05z"/><circle cx="591.6" cy="370.77" r="29.85"/><circle cx="208.4" cy="419.98" r="29.85"/></g><rect fill="#4d4d4d" height="396.27" rx="32.18" stroke="#70004b" stroke-linecap="round" stroke-linejoin="round" stroke-width="4" width="219.2" x="290.4" y="101.86"/><path d="m477.42 111.86h-35.06a7.14 7.14 0 0 0 -7.13 7.14 10.65 10.65 0 0 1 -10.65 10.65h-49.16a10.65 10.65 0 0 1 -10.65-10.65 7.14 7.14 0 0 0 -7.13-7.14h-35.06a22.19 22.19 0 0 0 -22.18 22.19v331.95a22.19 22.19 0 0 0 22.18 22.19h154.84a22.19 22.19 0 0 0 22.18-22.19v-331.95a22.19 22.19 0 0 0 -22.18-22.19z" fill="#fff"/><path d="m378.51 116.79h42.98" fill="none" stroke="#fff" stroke-linecap="round" stroke-linejoin="round" stroke-width="4"/><path d="m499.6 176.66c-29.85 89-72.57 214.28-199.2 281.17v8.17a22.19 22.19 0 0 0 22.18 22.19h154.84a22.19 22.19 0 0 0 22.18-22.19z" fill="#f2f2f2"/><path d="m400 352.74-50.07-30.04-22.25 13.35 72.32 43.4 72.32-43.4-22.25-13.35z" fill="#0c5166"/><path d="m450.07 322.7-50.07-30.04-50.07 30.04 50.07 30.04z" fill="#0c5166"/><path d="m450.07 322.7-50.07-30.04-50.07 30.04 50.07 30.04z" fill="#093247" opacity=".6"/><path d="m400 250.38 72.32 43.39-72.32 43.4-72.32-43.4zm.22 23.36-33 20 33 20 33-20z" fill="#05c5cc"/></svg>