<svg id="Layer_1" data-name="Layer 1" xmlns="http://www.w3.org/2000/svg" viewBox="0 0 800 600"><defs><style>.cls-1{fill:#fae8e8;}.cls-15,.cls-2{fill:#a1f1ff;}.cls-10,.cls-11,.cls-14,.cls-2,.cls-8{stroke:#70004b;stroke-width:4px;}.cls-10,.cls-11,.cls-14,.cls-2,.cls-8,.cls-9{stroke-linecap:round;stroke-linejoin:round;}.cls-3{fill:#23d5f2;}.cls-4{fill:#d9faff;}.cls-5{fill:#57e09e;}.cls-6{fill:#ff6e6b;}.cls-7{fill:#14b5d0;}.cls-8,.cls-9{fill:none;}.cls-9{stroke:#d9faff;stroke-width:3px;}.cls-10{fill:#f2f2f2;}.cls-11{fill:#999;}.cls-12{fill:#fff;}.cls-13,.cls-14{fill:#ccc;}.cls-16{fill:#cfffea;}.cls-17{fill:#fabbbb;}</style></defs><title>Shorten feedback loops between cross-functional teams copy</title><circle class="cls-1" cx="200.05" cy="165.05" r="35.22"/><path class="cls-1" d="M514.87,132.1l-1.06-.75a57.38,57.38,0,0,0-76,8.44L382.6,201.37a20.86,20.86,0,0,1-1.69,1.7L338.39,241.5C321,257.2,294,239.83,301.18,217.42l.41-1.28a34.77,34.77,0,0,0-13.28-39.08l-2.57-1.78c-27.45-19.09-64.61,3-61,36.21h0A45.61,45.61,0,0,1,178.55,262l-3.66-.07A33.11,33.11,0,0,0,143,305.82l12.34,35.77a27.24,27.24,0,0,1-6.81,28.46h0a43.3,43.3,0,0,0,.44,62.61l.9.85a37.09,37.09,0,0,0,52-1.11l.4-.41a8.83,8.83,0,0,1,12.62,0l29.57,30.26a145.6,145.6,0,0,0,153.65,35.18l43.12-15.59a23,23,0,0,0,12-33.19h0a57.68,57.68,0,0,1,20.64-79L492,359a62.72,62.72,0,0,0,20.37-89.16l-.22-.32c-3.8-5.66,9.3-36.66,22.19-64A59.14,59.14,0,0,0,514.87,132.1ZM217.65,398.33a22.66,22.66,0,1,1,21.92-23.39A22.68,22.68,0,0,1,217.65,398.33Zm257.92-68.41a22.67,22.67,0,1,1,21.91-23.39A22.68,22.68,0,0,1,475.57,329.92Z"/><circle class="cls-1" cx="489.46" cy="415" r="29.85"/><circle class="cls-1" cx="110.14" cy="341.63" r="29.85"/><rect class="cls-2" x="434.49" y="43.06" width="84.03" height="261.79" transform="translate(650.46 -302.55) rotate(90)"/><rect class="cls-3" x="357.76" y="144.1" width="237.48" height="59.72"/><rect class="cls-4" x="452.72" y="61.3" width="47.56" height="225.32" transform="translate(650.46 -302.55) rotate(90)"/><rect class="cls-3" x="375.29" y="164.07" width="102.67" height="19.76" rx="8.13"/><circle class="cls-5" cx="505.72" cy="173.96" r="9.88"/><circle class="cls-6" cx="536.78" cy="173.96" r="9.88"/><circle class="cls-5" cx="567.83" cy="173.96" r="9.88"/><rect class="cls-2" x="434.49" y="127.09" width="84.03" height="261.79" transform="translate(734.49 -218.52) rotate(90)"/><rect class="cls-3" x="357.76" y="228.13" width="237.48" height="59.72"/><rect class="cls-4" x="452.72" y="145.33" width="47.56" height="225.32" transform="translate(734.49 -218.52) rotate(90)"/><rect class="cls-3" x="375.29" y="248.1" width="102.67" height="19.76" rx="8.13"/><circle class="cls-5" cx="505.72" cy="257.99" r="9.88"/><circle class="cls-6" cx="536.78" cy="257.99" r="9.88"/><circle class="cls-5" cx="567.83" cy="257.99" r="9.88"/><rect class="cls-2" x="434.49" y="211.12" width="84.03" height="261.79" transform="translate(818.52 -134.49) rotate(90)"/><rect class="cls-3" x="357.76" y="312.16" width="237.48" height="59.72"/><rect class="cls-4" x="452.72" y="229.36" width="47.56" height="225.32" transform="translate(818.52 -134.49) rotate(90)"/><rect class="cls-3" x="375.29" y="332.13" width="102.67" height="19.76" rx="8.13"/><circle class="cls-5" cx="505.72" cy="342.01" r="9.88"/><circle class="cls-6" cx="536.78" cy="342.01" r="9.88"/><circle class="cls-5" cx="567.83" cy="342.01" r="9.88"/><rect class="cls-2" x="434.49" y="295.15" width="84.03" height="261.79" transform="translate(902.55 -50.46) rotate(90)"/><rect class="cls-3" x="483.16" y="256.17" width="336.12" height="87.65" transform="translate(951.22 -351.22) rotate(90)"/><path class="cls-7" d="M695.05,468.06V361.79S667.18,426,607.4,414.12v53.94Z"/><rect class="cls-8" x="483.16" y="256.17" width="336.12" height="87.65" transform="translate(951.22 -351.22) rotate(90)"/><rect class="cls-9" x="495.32" y="268.33" width="311.8" height="63.34" transform="translate(951.22 -351.22) rotate(90)"/><rect class="cls-3" x="357.76" y="396.19" width="237.48" height="59.72"/><rect class="cls-4" x="452.72" y="313.38" width="47.56" height="225.32" transform="translate(902.55 -50.46) rotate(90)"/><rect class="cls-3" x="375.29" y="416.16" width="102.67" height="19.76" rx="8.13"/><circle class="cls-5" cx="505.72" cy="426.04" r="9.88"/><circle class="cls-6" cx="536.78" cy="426.04" r="9.88"/><circle class="cls-5" cx="567.83" cy="426.04" r="9.88"/><path class="cls-10" d="M155,396.84H411.95a0,0,0,0,1,0,0v27.3a7.24,7.24,0,0,1-7.24,7.24H162.25a7.24,7.24,0,0,1-7.24-7.24v-27.3A0,0,0,0,1,155,396.84Z"/><path class="cls-10" d="M162.25,253.67H404.71a7.24,7.24,0,0,1,7.24,7.24V396.84a0,0,0,0,1,0,0H155a0,0,0,0,1,0,0V260.91A7.24,7.24,0,0,1,162.25,253.67Z"/><path class="cls-11" d="M152.19,253.67H394.65a7.24,7.24,0,0,1,7.24,7.24V396.84a0,0,0,0,1,0,0H145a0,0,0,0,1,0,0V260.91A7.24,7.24,0,0,1,152.19,253.67Z"/><rect class="cls-12" x="213.99" y="208.94" width="118.86" height="232.63" transform="translate(598.68 51.83) rotate(90)"/><path class="cls-10" d="M145,396.84H401.89a0,0,0,0,1,0,0v27.3a7.24,7.24,0,0,1-7.24,7.24H152.19a7.24,7.24,0,0,1-7.24-7.24v-27.3A0,0,0,0,1,145,396.84Z"/><circle class="cls-13" cx="273.42" cy="414.12" r="8"/><path class="cls-14" d="M302.17,468.06c39.53,0,0-36.67,0-36.67H253.5s39.53,36.67,0,36.67Z"/><line class="cls-14" x1="224.01" y1="468.06" x2="348.15" y2="468.06"/><rect class="cls-15" x="171.15" y="279.2" width="204.55" height="20.06"/><rect class="cls-16" x="171.15" y="308.37" width="88.63" height="58.96"/><rect class="cls-17" x="270.44" y="313.42" width="105.25" height="8.08" rx="3.32"/><rect class="cls-17" x="270.44" y="333.81" width="105.25" height="8.08" rx="3.32"/><rect class="cls-17" x="270.44" y="354.2" width="105.25" height="8.08" rx="3.32"/></svg>