<svg id="Layer_1" data-name="Layer 1" xmlns="http://www.w3.org/2000/svg" xmlns:xlink="http://www.w3.org/1999/xlink" viewBox="0 0 800 600"><defs><style>.cls-1,.cls-6{fill:none;stroke:#70004b;}.cls-1{stroke-miterlimit:10;}.cls-2{fill:#cfffea;}.cls-3{fill:#57e09e;}.cls-4{fill:#00783e;}.cls-5{fill:#a4edca;}.cls-6{stroke-linecap:round;stroke-linejoin:round;stroke-width:4px;}.cls-7{fill:#d9822b;}.cls-8{clip-path:url(#clip-path);}.cls-9{fill:#b26a29;}.cls-10{fill:#f29a41;}</style><clipPath id="clip-path"><path class="cls-1" d="M552.83,260.9l-10.35-.55-2.58-.14a21.17,21.17,0,0,0-2.86.05,18.23,18.23,0,0,0-8.22,3,21.24,21.24,0,0,0-2.3,1.83l-3.85,3.46L515,275.45l-3.85,3.47c-.31.27-.68.62-.93.82s-.52.42-.78.61a13.23,13.23,0,0,1-1.69,1,11.94,11.94,0,0,1-3.7,1.1,13.49,13.49,0,0,1-1.68.07c.39-.56.79-1.12,1.17-1.7a46.52,46.52,0,0,0,5.15-10.62,37.81,37.81,0,0,0,2-11.43A36.63,36.63,0,0,0,509,247.6a35.83,35.83,0,0,1-.45,11,34.78,34.78,0,0,1-3.72,10,41.22,41.22,0,0,1-6.26,8.42,45.37,45.37,0,0,1-3.8,3.55c-.63.53-1.28,1-1.93,1.51l-3.54-.19-5.17-.28-2.59-.13-1.29-.07-.33,0h-1.3a21.44,21.44,0,0,0-13.05,4.79,21.92,21.92,0,0,0-4.77,5.38,25.28,25.28,0,0,0-1.67,3.23l-.61,1.59c-.11.23-.18.47-.31.69a8.8,8.8,0,0,1-4.11,4,8,8,0,0,1-2.67.74l-4.74.57a45.29,45.29,0,0,0,3.14-14c.1-1.36.05-2.72.06-4.07v-1l-.05-.86-.1-1.7-.19-3.39-.1-1.69,0-.83v-.7c0-.92-.08-1.86,0-2.79l.23-2.79.51-2.77c.18-.92.51-1.81.75-2.73a31.89,31.89,0,0,1,2.76-6.22,7,7,0,0,0,1.36-2.15,33.42,33.42,0,0,1,10-9.56,32.86,32.86,0,0,1,11.17-4.35,21.92,21.92,0,0,1,3-.45l1.53-.18,1.85-.19a26.42,26.42,0,0,0,3.66-.51L488,239a13.64,13.64,0,0,0,1.78-.45A40.45,40.45,0,0,0,512.62,222a40,40,0,0,0,5.58-12.76c.22-1.14.46-2.26.65-3.39l.33-3.43c.05-2.29,0-4.55-.14-6.81-.1,2.26-.33,4.52-.64,6.73l-.7,3.28c-.31,1.07-.67,2.12-1,3.18a37.54,37.54,0,0,1-6.58,11.32,35.76,35.76,0,0,1-21.7,12.35,8.77,8.77,0,0,1-1.54.2l-1.55.14a22.74,22.74,0,0,1-3.09.07l-3.39,0a29.06,29.06,0,0,0-3.73.12,42.63,42.63,0,0,0-9.81,1.94l-1.33-1c-.57-.48-1.15-1-1.71-1.5s-1.11-1.06-1.62-1.63a36.43,36.43,0,0,1-2.71-3.33,17,17,0,0,0,2.05-1,22,22,0,0,0,4.06-3.11,39,39,0,0,0,6.12-7.7,40.47,40.47,0,0,1,5.81-7.37,25.47,25.47,0,0,1,3.62-3,13.74,13.74,0,0,1,4.28-2,13.75,13.75,0,0,0-4.52,1.61,26.28,26.28,0,0,0-4,2.71,42.35,42.35,0,0,0-6.71,7,36.2,36.2,0,0,1-6.42,6.65,18.85,18.85,0,0,1-3.76,2.35,11.81,11.81,0,0,1-2.44.85h0c-.24-.41-.48-.82-.69-1.25a33.63,33.63,0,0,1-3.14-9,37.09,37.09,0,0,1-.68-4.84,20.32,20.32,0,0,1-.08-2.47l0-2.49-.44,2.46a18.8,18.8,0,0,0-.38,2.48,38.56,38.56,0,0,0-.24,5,36.37,36.37,0,0,0,1.53,10.19,37.28,37.28,0,0,0,4.36,9.61c.46.77,1,1.48,1.5,2.23.33.45.69.89,1,1.34a43.63,43.63,0,0,0-10.15,7.41,6.66,6.66,0,0,0-.77,0,44.61,44.61,0,0,1-18.68-2.25A46.93,46.93,0,0,1,413.79,234c-.36-.55-.71-1.09-1-1.66a28,28,0,0,1-2.07-4.45c-1.07-3-1.45-6.28-.27-9.07a10.06,10.06,0,0,1,2.79-3.72,36.11,36.11,0,0,0,4-3.84,25.09,25.09,0,0,0,3.22-4.52,14.58,14.58,0,0,0,1.79-5.15,14,14,0,0,1-2.56,4.65,24.1,24.1,0,0,1-3.72,3.7,37.4,37.4,0,0,1-4.36,2.95,13.23,13.23,0,0,0-4.26,4.32,13.81,13.81,0,0,0-1.85,5.93c0,.49-.06,1-.07,1.46a48.78,48.78,0,0,1-4.59-8.37,21.63,21.63,0,0,1-.92-2.43l-.86-2.47c-.49-1.67-.83-3.39-1.27-5.1-.28-1.74-.47-3.49-.72-5.26l-.44-5.35-.43,5.36c0,1.79-.13,3.61-.13,5.43s.21,3.65.44,5.47l.48,2.71a22.59,22.59,0,0,0,.55,2.72,53.93,53.93,0,0,0,9.77,20.15,55.92,55.92,0,0,0,32.25,20.33c-.1.21-.2.4-.29.61-.5,1.22-1.08,2.41-1.49,3.67s-.8,2.52-1.17,3.8l-.8,3.91c-.22,1.32-.3,2.65-.44,4l-.1,1-.05.86-.1,1.69-.19,3.39-.1,1.7-.05.83-.09.68c-.14.91-.19,1.81-.36,2.7a29.77,29.77,0,0,1-10.59,17.72,28.9,28.9,0,0,1-8.84,4.85,27.55,27.55,0,0,1-9.71,1.33l-1.22,0-1.7-.1-3.39-.19-6.78-.39h0a12.54,12.54,0,0,1-11.78-11.58c-.67-8.91-1.52-20-1.52-20l-.56-7.27-.14-1.82-.07-.91-.12-1.2c-.17-1.61-.34-3.2-.54-4.79a61.79,61.79,0,0,0-6-18.07,58.35,58.35,0,0,0-26.14-25.41A58.15,58.15,0,0,0,328,213.65l-4.43-.39c-1.48,0-2.95,0-4.42,0l-1.1,0h-.5l-.2,0a4.54,4.54,0,0,1-.82.07,3.75,3.75,0,0,1-.82,0l-.41,0-.41-.08a7.75,7.75,0,0,1-3.19-1.4,8.52,8.52,0,0,1-2.42-2.83,7.54,7.54,0,0,1-.73-1.81,8.33,8.33,0,0,1-.22-1,5.06,5.06,0,0,1-.08-.78l-.07-.9,0-.37,13.46-.88,4.17-.28,1-.07.53,0,.7-.06a27,27,0,0,0,2.83-.36,26.41,26.41,0,0,0,10.34-4.29,25.79,25.79,0,0,0,7.49-8,25.33,25.33,0,0,0,3.43-10.17l.13-1.33c0-.44,0-.89,0-1.33V176.1l0-.81,0-.78.06-.77c0-.26,0-.52.05-.78l.13-.76a15,15,0,0,1,2.38-5.86,15.83,15.83,0,0,1,11.22-6.65c.53-.09,1.3-.12,2-.17l2.09-.14,4.17-.27,4.17-.27c.71-.06,1.34-.07,2.16-.17a19.9,19.9,0,0,0,2.3-.33,21.33,21.33,0,0,0,14.32-10.19,20.36,20.36,0,0,0,2.61-8.23l.09-1.07c0-.36,0-.71,0-1.07,0-.71,0-1.41-.08-2.11l-.28-4.17-.27,4.17c0,.7-.1,1.39-.19,2.07,0,.34-.07.67-.13,1l-.22,1a18.69,18.69,0,0,1-3.36,7.2,18,18,0,0,1-13.08,7,12.56,12.56,0,0,1-1.84,0c-.58,0-1.34-.07-2-.1l-4.17-.28-4.17-.27L368,153.2c-.71,0-1.33-.11-2.19-.1a23.3,23.3,0,0,0-13.12,3.72,53.19,53.19,0,0,0-1.83-9.34,29.6,29.6,0,0,0-4.92-9.89,18.84,18.84,0,0,0-4-3.77,18.52,18.52,0,0,0-4.78-2.32,18,18,0,0,1,4,3.19,17.09,17.09,0,0,1,2.76,4.14,26.32,26.32,0,0,1,2.33,9.52,48.71,48.71,0,0,1-.4,9.87c-.22,1.64-.51,3.27-.85,4.88-.22,1-.46,2-.72,3h0a23.7,23.7,0,0,0-1.47,3.57l-.39,1.25c-.12.42-.19.85-.29,1.28l-.26,1.29-.14,1.31-.12,1.27-.12.76c0,.25-.05.51-.11.75l-.19.74a13.94,13.94,0,0,1-2.62,5.23,13.32,13.32,0,0,1-4.42,3.51,12.69,12.69,0,0,1-5.23,1.3,9.85,9.85,0,0,1-1.33,0h-.33l-.53,0-1-.06-4.17-.28-14.8-1-.33-4.19-.59-7.42a21.41,21.41,0,0,0-2.79-8.87,20.67,20.67,0,0,0-9.22-8.45,29.09,29.09,0,0,0,4.67-4.87,19.16,19.16,0,0,0,3.1-6.17,15.54,15.54,0,0,0,.41-6.62,14.89,14.89,0,0,1-1.9,6,16.82,16.82,0,0,1-4,4.57,24.78,24.78,0,0,1-5.12,3.16,28.81,28.81,0,0,1-2.77,1.14c-.47.16-.95.32-1.42.45a11.53,11.53,0,0,1-1.32.33,4.94,4.94,0,0,0-.52.13h-.52a9,9,0,0,0-1,.06l-.91.07-1.82.14-3.46.27a28.36,28.36,0,0,0,1.75-3.37,35.71,35.71,0,0,0,2.32-7.5l.32-1.92c.11-.63.14-1.28.22-1.91.16-1.28.16-2.56.21-3.83s-.06-2.54-.09-3.81-.24-2.51-.36-3.76l-.22,3.76c-.16,1.24-.26,2.48-.48,3.71s-.43,2.44-.77,3.63c-.17.59-.29,1.19-.49,1.78l-.58,1.74a33.21,33.21,0,0,1-3.15,6.48,22.81,22.81,0,0,1-2.08,2.82c-.37.45-.77.86-1.16,1.25-.21.19-.4.39-.61.56a5.5,5.5,0,0,1-.54.43,2.66,2.66,0,0,0-.44.33.73.73,0,0,0-.08.09l-.31,0-.81,0-.81,0-.8-.05a9.83,9.83,0,0,1-1.62-.2,14.87,14.87,0,0,1-6.1-2.58A16.22,16.22,0,0,1,254,142.5a17.4,17.4,0,0,0,5.21,13.64,17.92,17.92,0,0,0,6.67,4.12,12.88,12.88,0,0,0,1.93.55l1,.22,1,.13,1,.11.91.07,1.82.15,7.27.56,1.82.14.91.07c.3,0,.62,0,.85.09a12.52,12.52,0,0,1,2.86.66,12.69,12.69,0,0,1,7.78,7.5,11.84,11.84,0,0,1,.71,5.11l-.54,7.13-1.13,14.54-.57,7.28-.07.9c0,.32-.05.56-.05,1.05a25.65,25.65,0,0,0,.05,2.63,24.19,24.19,0,0,0,1,5.24,25.43,25.43,0,0,0,1,2.8l-27.13.73-4.22.12-2.11.06h-.53l-.4,0-.72,0a9.28,9.28,0,0,1-5.46-1.79,10,10,0,0,1-3.59-5,11.74,11.74,0,0,1-.38-1.58c0-.14,0-.27,0-.41l0-.21,0-.32c0-.43-.09-.85-.15-1.27a16.12,16.12,0,0,0-1.58-4.83,15.89,15.89,0,0,0-6.85-6.89,15.48,15.48,0,0,0-4.53-1.5,14.32,14.32,0,0,0-2.35-.19c-.39,0-.78,0-1.16,0l-1.06.08-16.88,1.31,16.88,1.3,1.06.09c.32,0,.63.06.94.12a10.75,10.75,0,0,1,1.82.44,11.69,11.69,0,0,1,3.26,1.67,11.38,11.38,0,0,1,4.08,5.62,10.74,10.74,0,0,1,.52,3.31c0,.28,0,.55,0,.83l0,.21v.32c0,.21,0,.43,0,.64a16.17,16.17,0,0,0,.19,2.6,17.12,17.12,0,0,0,4.71,9.41c.12.13.26.25.39.37-1.53,0-.73,0,0,0h-.07v.24l0,.25,0,.51a5.93,5.93,0,0,1,0,1,16.3,16.3,0,0,1-.15,2.08,16.52,16.52,0,0,1-1.29,4.06,17.18,17.18,0,0,1-2.52,3.66,16.48,16.48,0,0,1-3.58,2.87A16.74,16.74,0,0,1,238.1,239l-1.2.25c-.16,0-.5.07-.76.11l-.81.1-3.27.41L219,241.51l-6.54.82-1.66.2c-.26-.28-.52-.6-.77-.92a20.07,20.07,0,0,1-1.42-2.12,26.28,26.28,0,0,1-2.15-4.83,31.33,31.33,0,0,1-1.18-5.34c-.15-.91-.16-1.84-.25-2.77s0-1.87,0-2.82c-.22.91-.47,1.83-.66,2.76s-.37,1.88-.45,2.84a33.34,33.34,0,0,0-.17,5.84,29.79,29.79,0,0,0,1,5.92c.16.59.36,1.17.57,1.75a20,20,0,0,1-9.79-3.41c-1.57-1.08-3.26-2.66-4.93-4.05l-5-4.28-10-8.55,8.45,10.1,4.23,5,2.11,2.53a34,34,0,0,0,2.35,2.59,25.5,25.5,0,0,0,13,6.63,27.56,27.56,0,0,0,3.76.43l3.31.14,6.58.29,13.16.57,3.29.14.82,0c.3,0,.51,0,.88,0l2.08-.05a29.2,29.2,0,0,0,8.21-1.68,30.13,30.13,0,0,0,7.53-4,31.93,31.93,0,0,0,6.16-6.13,33,33,0,0,0,4.22-7.8c.37-1.12.74-2.26,1-3.42l1.44.12,46.35,3.87c.75.13,1.51.21,2.27.29l.7.06c.21,0,.27,0,.41.06l.71.11c1,.16,1.91.26,2.84.44l2.76.71a36.65,36.65,0,0,1,10,4.82,33,33,0,0,1,7.69,7.55,30.53,30.53,0,0,1,4.76,9.24,33.47,33.47,0,0,1,1.51,9.9c-.07.83-.13,1.66-.17,2.47l0,.62-.07.9-.14,1.82-.56,7.27s.82,41.64-13.6,53.75l-11.33.87-9,.69c-1.94.13-1.91.21-2.56.22a4.32,4.32,0,0,1-1.64-.3,5.38,5.38,0,0,1-2.76-2.38,5.9,5.9,0,0,1-.69-1.9l-.35-4.44-.7-9-.31-4a6.29,6.29,0,0,0,.74-.22,19.61,19.61,0,0,0,2.36-.87l1.14-.52,1.08-.61a21,21,0,0,0,10.35-15.37c.06-.77.15-1.54.16-2.31l0-1.14c0-.39,0-.77-.06-1.07l-.07-.8H320l4-.29,1-.07,1.1-.12a16.19,16.19,0,0,0,2.17-.39,18,18,0,0,0,7.61-3.94,17.14,17.14,0,0,0,4.83-6.76,17.18,17.18,0,0,0,1.18-7.95,16.64,16.64,0,0,1-4.5,10.5,16.28,16.28,0,0,1-2.9,2.36,14.93,14.93,0,0,1-6.83,2.37,11.63,11.63,0,0,1-1.77.05l-.89,0-1-.07-4-.29h-.33l-.17,0-2.63-29.14-2.78,30.71-.35,3.83a7.66,7.66,0,0,1-.11.86l-.12.77c-.11.51-.27,1-.39,1.49a13.18,13.18,0,0,1-3.09,5,11.81,11.81,0,0,1-4.75,3l-.64.22-.67.15a8.44,8.44,0,0,1-1.32.21c-.43.08-.89,0-1.32.06-.22,0-.44,0-.66-.05h0a18.29,18.29,0,0,0-1.41-1.75,18.82,18.82,0,0,0-4.89-3.74,18.29,18.29,0,0,0-5.75-1.91,18.83,18.83,0,0,0-3-.18h-.73l-.38,0a5.14,5.14,0,0,1-.78,0,9.59,9.59,0,0,1-5.95-2.23,10.43,10.43,0,0,1-3.48-5.85l-.13-.89a3.25,3.25,0,0,1-.06-.51l0-.56-.18-2.25-.34-4.5-.7-9-1.39-18-1.39,18-.69,9-.35,4.5-.17,2.25,0,.56a5.59,5.59,0,0,0,0,.62l0,1.35a16.68,16.68,0,0,0,4.05,10.14,17.19,17.19,0,0,0,9.86,5.63,11.94,11.94,0,0,0,1.46.21l.74.08.4.06a10.16,10.16,0,0,1,1.47.35,8.66,8.66,0,0,1,4.49,3.47,8.35,8.35,0,0,1,1,2.5,7,7,0,0,1,.15,2.58l-.33,4.36-.69,9-.35,4.56a21,21,0,0,0,.89,6.92,21.63,21.63,0,0,0,15,14.48,32,32,0,0,0,6.39.9l9,.7h0A11.64,11.64,0,0,1,333,363.87V536.38H412.8a102.94,102.94,0,0,1-16.86-40.55l7.21-.72,8.76-.86.54-.06h.17l.08,0a1.46,1.46,0,0,0,.32-.1,6.37,6.37,0,0,1,.65-.09,4.13,4.13,0,0,1,1.39.09,5.41,5.41,0,0,1,2.71,1.63,6.51,6.51,0,0,1,1,1.46,5.4,5.4,0,0,1,.31.88l.07.23a.47.47,0,0,1,0,.14l0,.27.11,1.1.43,4.37.22,2.22a25.51,25.51,0,0,0,.48,3.27,22.6,22.6,0,0,0,6.07,11.28,22,22,0,0,0,10.77,6,22.29,22.29,0,0,0,6,.46c.33,0,.49,0,.75-.07a3.42,3.42,0,0,1,.71,0c.24,0,.48,0,.73,0l.72.07a10.87,10.87,0,0,1,7.58,4.92,11.93,11.93,0,0,1,.8,1.45,13.6,13.6,0,0,1,.57,1.59,6.9,6.9,0,0,1,.27,1.13h6.63a16,16,0,0,0,0-2.19,18.77,18.77,0,0,0-.37-2.68,18.38,18.38,0,0,0-.79-2.62,18.77,18.77,0,0,0-2.67-4.86,20,20,0,0,0-9.11-6.75,22.11,22.11,0,0,0-5.73-1.25,10.47,10.47,0,0,1-2.61-.82A8.89,8.89,0,0,1,437,511.8a7.74,7.74,0,0,1-1.11-4.42,9.64,9.64,0,0,1,.12-1.08l.22-2.17.43-4.37.11-1.1,0-.27V498l0-.86a25.4,25.4,0,0,0-18-24.25,28.42,28.42,0,0,0-3.65-.85l-1.87-.22-1.39-.13-8.76-.87-8.87-.88V337.8a4.88,4.88,0,0,1,4.57-4.94h0l3.39-.2,1.7-.09,2.16-.2a47.49,47.49,0,0,0,27-11.15l16.08-3.69,5.29-1.22a22.71,22.71,0,0,0,6.93-3,23,23,0,0,0,5.53-5,22.67,22.67,0,0,0,3.57-6.45c.22-.57.36-1.17.54-1.75l.13-.49.09-.38a10.82,10.82,0,0,1,.53-1.44,9.35,9.35,0,0,1,1.76-2.59,9.94,9.94,0,0,1,5.75-2.91l.42-.06.22,0,.33,0,1.29-.07,2.59-.14,5.17-.27,10.35-.55,2.72-.15a20.67,20.67,0,0,0,3.23-.5,19.4,19.4,0,0,0,5.95-2.53,18.65,18.65,0,0,0,2.56-1.93c.4-.36.78-.73,1.15-1.12s.6-.66.9-1l3.47-3.85,6.93-7.71,3.46-3.85a13.69,13.69,0,0,1,7.58-4.49,14.92,14.92,0,0,1,2.3-.28l2.58-.14,10.35-.55,20.7-1.1Z"/></clipPath></defs><title>Feature 1</title><g id="_1" data-name="1"><circle class="cls-2" cx="256.6" cy="171.59" r="35.22"/><path class="cls-2" d="M572.32,148.87l-1-.78a57.39,57.39,0,0,0-76.19,6l-57.23,59.76a19.4,19.4,0,0,1-1.75,1.64l-43.74,37c-17.88,15.13-44.27-3.11-36.41-25.27l.45-1.28a34.73,34.73,0,0,0-12-39.48l-2.51-1.87c-26.81-20-64.68.87-62.16,34.21h0a45.6,45.6,0,0,1-47.79,49l-3.66-.19A33.1,33.1,0,0,0,195,310.42l11.17,36.16a27.24,27.24,0,0,1-7.73,28.22h0a43.29,43.29,0,0,0-1.59,62.59l.87.88a37.08,37.08,0,0,0,52,.58l.41-.39a8.81,8.81,0,0,1,12.61.41l28.57,31.2A145.61,145.61,0,0,0,443.7,510.22L487.3,496a23,23,0,0,0,13.06-32.78h0A57.68,57.68,0,0,1,523.55,385l18.53-10a62.7,62.7,0,0,0,23.26-88.44l-.21-.34c-3.62-5.78,10.49-36.33,24.26-63.25A59.15,59.15,0,0,0,572.32,148.87ZM446.61,405.31a22.66,22.66,0,1,1,22.67-22.66A22.66,22.66,0,0,1,446.61,405.31Z"/><circle class="cls-2" cx="537.74" cy="430.81" r="29.85"/><circle class="cls-2" cx="161" cy="345.15" r="29.85"/><path class="cls-3" d="M466.78,481.14l-.88,0a46.25,46.25,0,0,0-91.62,9c0,1.5.08,3,.22,4.44a21.53,21.53,0,0,0-4.85-.56,21.19,21.19,0,0,0,0,42.37h97.13a27.62,27.62,0,0,0,0-55.24Z"/><path class="cls-4" d="M468.8,481.22c-3.15,9.4-13.23,27.55-44.54,31.49-42.68,5.38-49.76-18.14-49.76-18.14a21.53,21.53,0,0,0-4.85-.56,21.19,21.19,0,0,0,0,42.37h97.13a27.62,27.62,0,0,0,2-55.16Z"/><path class="cls-5" d="M443.76,451.77c1,.05,1.88.08,2.72.09a46.22,46.22,0,0,0-72,34.5C375.1,485.2,395.56,449.3,443.76,451.77Z"/><path class="cls-6" d="M466.78,481.14l-.88,0a46.25,46.25,0,0,0-91.62,9c0,1.5.08,3,.22,4.44a21.53,21.53,0,0,0-4.85-.56,21.19,21.19,0,0,0,0,42.37h97.13a27.62,27.62,0,0,0,0-55.24Z"/><path class="cls-7" d="M552.83,260.9l-10.35-.55-2.58-.14a21.17,21.17,0,0,0-2.86.05,18.23,18.23,0,0,0-8.22,3,21.24,21.24,0,0,0-2.3,1.83l-3.85,3.46L515,275.45l-3.85,3.47c-.31.27-.68.62-.93.82s-.52.42-.78.61a13.23,13.23,0,0,1-1.69,1,11.94,11.94,0,0,1-3.7,1.1,13.49,13.49,0,0,1-1.68.07c.39-.56.79-1.12,1.17-1.7a46.52,46.52,0,0,0,5.15-10.62,37.81,37.81,0,0,0,2-11.43A36.63,36.63,0,0,0,509,247.6a35.83,35.83,0,0,1-.45,11,34.78,34.78,0,0,1-3.72,10,41.22,41.22,0,0,1-6.26,8.42,45.37,45.37,0,0,1-3.8,3.55c-.63.53-1.28,1-1.93,1.51l-3.54-.19-5.17-.28-2.59-.13-1.29-.07-.33,0h-1.3a21.44,21.44,0,0,0-13.05,4.79,21.92,21.92,0,0,0-4.77,5.38,25.28,25.28,0,0,0-1.67,3.23l-.61,1.59c-.11.23-.18.47-.31.69a8.8,8.8,0,0,1-4.11,4,8,8,0,0,1-2.67.74l-4.74.57a45.29,45.29,0,0,0,3.14-14c.1-1.36.05-2.72.06-4.07v-1l-.05-.86-.1-1.7-.19-3.39-.1-1.69,0-.83v-.7c0-.92-.08-1.86,0-2.79l.23-2.79.51-2.77c.18-.92.51-1.81.75-2.73a31.89,31.89,0,0,1,2.76-6.22,7,7,0,0,0,1.36-2.15,33.42,33.42,0,0,1,10-9.56,32.86,32.86,0,0,1,11.17-4.35,21.92,21.92,0,0,1,3-.45l1.53-.18,1.85-.19a26.42,26.42,0,0,0,3.66-.51L488,239a13.64,13.64,0,0,0,1.78-.45A40.45,40.45,0,0,0,512.62,222a40,40,0,0,0,5.58-12.76c.22-1.14.46-2.26.65-3.39l.33-3.43c.05-2.29,0-4.55-.14-6.81-.1,2.26-.33,4.52-.64,6.73l-.7,3.28c-.31,1.07-.67,2.12-1,3.18a37.54,37.54,0,0,1-6.58,11.32,35.76,35.76,0,0,1-21.7,12.35,8.77,8.77,0,0,1-1.54.2l-1.55.14a22.74,22.74,0,0,1-3.09.07l-3.39,0a29.06,29.06,0,0,0-3.73.12,42.63,42.63,0,0,0-9.81,1.94l-1.33-1c-.57-.48-1.15-1-1.71-1.5s-1.11-1.06-1.62-1.63a36.43,36.43,0,0,1-2.71-3.33,17,17,0,0,0,2.05-1,22,22,0,0,0,4.06-3.11,39,39,0,0,0,6.12-7.7,40.47,40.47,0,0,1,5.81-7.37,25.47,25.47,0,0,1,3.62-3,13.74,13.74,0,0,1,4.28-2,13.75,13.75,0,0,0-4.52,1.61,26.28,26.28,0,0,0-4,2.71,42.35,42.35,0,0,0-6.71,7,36.2,36.2,0,0,1-6.42,6.65,18.85,18.85,0,0,1-3.76,2.35,11.81,11.81,0,0,1-2.44.85h0c-.24-.41-.48-.82-.69-1.25a33.63,33.63,0,0,1-3.14-9,37.09,37.09,0,0,1-.68-4.84,20.32,20.32,0,0,1-.08-2.47l0-2.49-.44,2.46a18.8,18.8,0,0,0-.38,2.48,38.56,38.56,0,0,0-.24,5,36.37,36.37,0,0,0,1.53,10.19,37.28,37.28,0,0,0,4.36,9.61c.46.77,1,1.48,1.5,2.23.33.45.69.89,1,1.34a43.63,43.63,0,0,0-10.15,7.41,6.66,6.66,0,0,0-.77,0,44.61,44.61,0,0,1-18.68-2.25A46.93,46.93,0,0,1,413.79,234c-.36-.55-.71-1.09-1-1.66a28,28,0,0,1-2.07-4.45c-1.07-3-1.45-6.28-.27-9.07a10.06,10.06,0,0,1,2.79-3.72,36.11,36.11,0,0,0,4-3.84,25.09,25.09,0,0,0,3.22-4.52,14.58,14.58,0,0,0,1.79-5.15,14,14,0,0,1-2.56,4.65,24.1,24.1,0,0,1-3.72,3.7,37.4,37.4,0,0,1-4.36,2.95,13.23,13.23,0,0,0-4.26,4.32,13.81,13.81,0,0,0-1.85,5.93c0,.49-.06,1-.07,1.46a48.78,48.78,0,0,1-4.59-8.37,21.63,21.63,0,0,1-.92-2.43l-.86-2.47c-.49-1.67-.83-3.39-1.27-5.1-.28-1.74-.47-3.49-.72-5.26l-.44-5.35-.43,5.36c0,1.79-.13,3.61-.13,5.43s.21,3.65.44,5.47l.48,2.71a22.59,22.59,0,0,0,.55,2.72,53.93,53.93,0,0,0,9.77,20.15,55.92,55.92,0,0,0,32.25,20.33c-.1.21-.2.4-.29.61-.5,1.22-1.08,2.41-1.49,3.67s-.8,2.52-1.17,3.8l-.8,3.91c-.22,1.32-.3,2.65-.44,4l-.1,1-.05.86-.1,1.69-.19,3.39-.1,1.7-.05.83-.09.68c-.14.91-.19,1.81-.36,2.7a29.77,29.77,0,0,1-10.59,17.72,28.9,28.9,0,0,1-8.84,4.85,27.55,27.55,0,0,1-9.71,1.33l-1.22,0-1.7-.1-3.39-.19-6.78-.39h0a12.54,12.54,0,0,1-11.78-11.58c-.67-8.91-1.52-20-1.52-20l-.56-7.27-.14-1.82-.07-.91-.12-1.2c-.17-1.61-.34-3.2-.54-4.79a61.79,61.79,0,0,0-6-18.07,58.35,58.35,0,0,0-26.14-25.41A58.15,58.15,0,0,0,328,213.65l-4.43-.39c-1.48,0-2.95,0-4.42,0l-1.1,0h-.5l-.2,0a4.54,4.54,0,0,1-.82.07,3.75,3.75,0,0,1-.82,0l-.41,0-.41-.08a7.75,7.75,0,0,1-3.19-1.4,8.52,8.52,0,0,1-2.42-2.83,7.54,7.54,0,0,1-.73-1.81,8.33,8.33,0,0,1-.22-1,5.06,5.06,0,0,1-.08-.78l-.07-.9,0-.37,13.46-.88,4.17-.28,1-.07.53,0,.7-.06a27,27,0,0,0,2.83-.36,26.41,26.41,0,0,0,10.34-4.29,25.79,25.79,0,0,0,7.49-8,25.33,25.33,0,0,0,3.43-10.17l.13-1.33c0-.44,0-.89,0-1.33V176.1l0-.81,0-.78.06-.77c0-.26,0-.52.05-.78l.13-.76a15,15,0,0,1,2.38-5.86,15.83,15.83,0,0,1,11.22-6.65c.53-.09,1.3-.12,2-.17l2.09-.14,4.17-.27,4.17-.27c.71-.06,1.34-.07,2.16-.17a19.9,19.9,0,0,0,2.3-.33,21.33,21.33,0,0,0,14.32-10.19,20.36,20.36,0,0,0,2.61-8.23l.09-1.07c0-.36,0-.71,0-1.07,0-.71,0-1.41-.08-2.11l-.28-4.17-.27,4.17c0,.7-.1,1.39-.19,2.07,0,.34-.07.67-.13,1l-.22,1a18.69,18.69,0,0,1-3.36,7.2,18,18,0,0,1-13.08,7,12.56,12.56,0,0,1-1.84,0c-.58,0-1.34-.07-2-.1l-4.17-.28-4.17-.27L368,153.2c-.71,0-1.33-.11-2.19-.1a23.3,23.3,0,0,0-13.12,3.72,53.19,53.19,0,0,0-1.83-9.34,29.6,29.6,0,0,0-4.92-9.89,18.84,18.84,0,0,0-4-3.77,18.52,18.52,0,0,0-4.78-2.32,18,18,0,0,1,4,3.19,17.09,17.09,0,0,1,2.76,4.14,26.32,26.32,0,0,1,2.33,9.52,48.71,48.71,0,0,1-.4,9.87c-.22,1.64-.51,3.27-.85,4.88-.22,1-.46,2-.72,3h0a23.7,23.7,0,0,0-1.47,3.57l-.39,1.25c-.12.42-.19.85-.29,1.28l-.26,1.29-.14,1.31-.12,1.27-.12.76c0,.25-.05.51-.11.75l-.19.74a13.94,13.94,0,0,1-2.62,5.23,13.32,13.32,0,0,1-4.42,3.51,12.69,12.69,0,0,1-5.23,1.3,9.85,9.85,0,0,1-1.33,0h-.33l-.53,0-1-.06-4.17-.28-14.8-1-.33-4.19-.59-7.42a21.41,21.41,0,0,0-2.79-8.87,20.67,20.67,0,0,0-9.22-8.45,29.09,29.09,0,0,0,4.67-4.87,19.16,19.16,0,0,0,3.1-6.17,15.54,15.54,0,0,0,.41-6.62,14.89,14.89,0,0,1-1.9,6,16.82,16.82,0,0,1-4,4.57,24.78,24.78,0,0,1-5.12,3.16,28.81,28.81,0,0,1-2.77,1.14c-.47.16-.95.32-1.42.45a11.53,11.53,0,0,1-1.32.33,4.94,4.94,0,0,0-.52.13h-.52a9,9,0,0,0-1,.06l-.91.07-1.82.14-3.46.27a28.36,28.36,0,0,0,1.75-3.37,35.71,35.71,0,0,0,2.32-7.5l.32-1.92c.11-.63.14-1.28.22-1.91.16-1.28.16-2.56.21-3.83s-.06-2.54-.09-3.81-.24-2.51-.36-3.76l-.22,3.76c-.16,1.24-.26,2.48-.48,3.71s-.43,2.44-.77,3.63c-.17.59-.29,1.19-.49,1.78l-.58,1.74a33.21,33.21,0,0,1-3.15,6.48,22.81,22.81,0,0,1-2.08,2.82c-.37.45-.77.86-1.16,1.25-.21.19-.4.39-.61.56a5.5,5.5,0,0,1-.54.43,2.66,2.66,0,0,0-.44.33.73.73,0,0,0-.08.09l-.31,0-.81,0-.81,0-.8-.05a9.83,9.83,0,0,1-1.62-.2,14.87,14.87,0,0,1-6.1-2.58A16.22,16.22,0,0,1,254,142.5a17.4,17.4,0,0,0,5.21,13.64,17.92,17.92,0,0,0,6.67,4.12,12.88,12.88,0,0,0,1.93.55l1,.22,1,.13,1,.11.91.07,1.82.15,7.27.56,1.82.14.91.07c.3,0,.62,0,.85.09a12.52,12.52,0,0,1,2.86.66,12.69,12.69,0,0,1,7.78,7.5,11.84,11.84,0,0,1,.71,5.11l-.54,7.13-1.13,14.54-.57,7.28-.07.9c0,.32-.05.56-.05,1.05a25.65,25.65,0,0,0,.05,2.63,24.19,24.19,0,0,0,1,5.24,25.43,25.43,0,0,0,1,2.8l-27.13.73-4.22.12-2.11.06h-.53l-.4,0-.72,0a9.28,9.28,0,0,1-5.46-1.79,10,10,0,0,1-3.59-5,11.74,11.74,0,0,1-.38-1.58c0-.14,0-.27,0-.41l0-.21,0-.32c0-.43-.09-.85-.15-1.27a16.12,16.12,0,0,0-1.58-4.83,15.89,15.89,0,0,0-6.85-6.89,15.48,15.48,0,0,0-4.53-1.5,14.32,14.32,0,0,0-2.35-.19c-.39,0-.78,0-1.16,0l-1.06.08-16.88,1.31,16.88,1.3,1.06.09c.32,0,.63.06.94.12a10.75,10.75,0,0,1,1.82.44,11.69,11.69,0,0,1,3.26,1.67,11.38,11.38,0,0,1,4.08,5.62,10.74,10.74,0,0,1,.52,3.31c0,.28,0,.55,0,.83l0,.21v.32c0,.21,0,.43,0,.64a16.17,16.17,0,0,0,.19,2.6,17.12,17.12,0,0,0,4.71,9.41c.12.13.26.25.39.37-1.53,0-.73,0,0,0h-.07v.24l0,.25,0,.51a5.93,5.93,0,0,1,0,1,16.3,16.3,0,0,1-.15,2.08,16.52,16.52,0,0,1-1.29,4.06,17.18,17.18,0,0,1-2.52,3.66,16.48,16.48,0,0,1-3.58,2.87A16.74,16.74,0,0,1,238.1,239l-1.2.25c-.16,0-.5.07-.76.11l-.81.1-3.27.41L219,241.51l-6.54.82-1.66.2c-.26-.28-.52-.6-.77-.92a20.07,20.07,0,0,1-1.42-2.12,26.28,26.28,0,0,1-2.15-4.83,31.33,31.33,0,0,1-1.18-5.34c-.15-.91-.16-1.84-.25-2.77s0-1.87,0-2.82c-.22.91-.47,1.83-.66,2.76s-.37,1.88-.45,2.84a33.34,33.34,0,0,0-.17,5.84,29.79,29.79,0,0,0,1,5.92c.16.59.36,1.17.57,1.75a20,20,0,0,1-9.79-3.41c-1.57-1.08-3.26-2.66-4.93-4.05l-5-4.28-10-8.55,8.45,10.1,4.23,5,2.11,2.53a34,34,0,0,0,2.35,2.59,25.5,25.5,0,0,0,13,6.63,27.56,27.56,0,0,0,3.76.43l3.31.14,6.58.29,13.16.57,3.29.14.82,0c.3,0,.51,0,.88,0l2.08-.05a29.2,29.2,0,0,0,8.21-1.68,30.13,30.13,0,0,0,7.53-4,31.93,31.93,0,0,0,6.16-6.13,33,33,0,0,0,4.22-7.8c.37-1.12.74-2.26,1-3.42l1.44.12,46.35,3.87c.75.13,1.51.21,2.27.29l.7.06c.21,0,.27,0,.41.06l.71.11c1,.16,1.91.26,2.84.44l2.76.71a36.65,36.65,0,0,1,10,4.82,33,33,0,0,1,7.69,7.55,30.53,30.53,0,0,1,4.76,9.24,33.47,33.47,0,0,1,1.51,9.9c-.07.83-.13,1.66-.17,2.47l0,.62-.07.9-.14,1.82-.56,7.27s.82,41.64-13.6,53.75l-11.33.87-9,.69c-1.94.13-1.91.21-2.56.22a4.32,4.32,0,0,1-1.64-.3,5.38,5.38,0,0,1-2.76-2.38,5.9,5.9,0,0,1-.69-1.9l-.35-4.44-.7-9-.31-4a6.29,6.29,0,0,0,.74-.22,19.61,19.61,0,0,0,2.36-.87l1.14-.52,1.08-.61a21,21,0,0,0,10.35-15.37c.06-.77.15-1.54.16-2.31l0-1.14c0-.39,0-.77-.06-1.07l-.07-.8H320l4-.29,1-.07,1.1-.12a16.19,16.19,0,0,0,2.17-.39,18,18,0,0,0,7.61-3.94,17.14,17.14,0,0,0,4.83-6.76,17.18,17.18,0,0,0,1.18-7.95,16.64,16.64,0,0,1-4.5,10.5,16.28,16.28,0,0,1-2.9,2.36,14.93,14.93,0,0,1-6.83,2.37,11.63,11.63,0,0,1-1.77.05l-.89,0-1-.07-4-.29h-.33l-.17,0-2.63-29.14-2.78,30.71-.35,3.83a7.66,7.66,0,0,1-.11.86l-.12.77c-.11.51-.27,1-.39,1.49a13.18,13.18,0,0,1-3.09,5,11.81,11.81,0,0,1-4.75,3l-.64.22-.67.15a8.44,8.44,0,0,1-1.32.21c-.43.08-.89,0-1.32.06-.22,0-.44,0-.66-.05h0a18.29,18.29,0,0,0-1.41-1.75,18.82,18.82,0,0,0-4.89-3.74,18.29,18.29,0,0,0-5.75-1.91,18.83,18.83,0,0,0-3-.18h-.73l-.38,0a5.14,5.14,0,0,1-.78,0,9.59,9.59,0,0,1-5.95-2.23,10.43,10.43,0,0,1-3.48-5.85l-.13-.89a3.25,3.25,0,0,1-.06-.51l0-.56-.18-2.25-.34-4.5-.7-9-1.39-18-1.39,18-.69,9-.35,4.5-.17,2.25,0,.56a5.59,5.59,0,0,0,0,.62l0,1.35a16.68,16.68,0,0,0,4.05,10.14,17.19,17.19,0,0,0,9.86,5.63,11.94,11.94,0,0,0,1.46.21l.74.08.4.06a10.16,10.16,0,0,1,1.47.35,8.66,8.66,0,0,1,4.49,3.47,8.35,8.35,0,0,1,1,2.5,7,7,0,0,1,.15,2.58l-.33,4.36-.69,9-.35,4.56a21,21,0,0,0,.89,6.92,21.63,21.63,0,0,0,15,14.48,32,32,0,0,0,6.39.9l9,.7h0A11.64,11.64,0,0,1,333,363.87V536.38H412.8a102.94,102.94,0,0,1-16.86-40.55l7.21-.72,8.76-.86.54-.06h.17l.08,0a1.46,1.46,0,0,0,.32-.1,6.37,6.37,0,0,1,.65-.09,4.13,4.13,0,0,1,1.39.09,5.41,5.41,0,0,1,2.71,1.63,6.51,6.51,0,0,1,1,1.46,5.4,5.4,0,0,1,.31.88l.07.23a.47.47,0,0,1,0,.14l0,.27.11,1.1.43,4.37.22,2.22a25.51,25.51,0,0,0,.48,3.27,22.6,22.6,0,0,0,6.07,11.28,22,22,0,0,0,10.77,6,22.29,22.29,0,0,0,6,.46c.33,0,.49,0,.75-.07a3.42,3.42,0,0,1,.71,0c.24,0,.48,0,.73,0l.72.07a10.87,10.87,0,0,1,7.58,4.92,11.93,11.93,0,0,1,.8,1.45,13.6,13.6,0,0,1,.57,1.59,6.9,6.9,0,0,1,.27,1.13h6.63a16,16,0,0,0,0-2.19,18.77,18.77,0,0,0-.37-2.68,18.38,18.38,0,0,0-.79-2.62,18.77,18.77,0,0,0-2.67-4.86,20,20,0,0,0-9.11-6.75,22.11,22.11,0,0,0-5.73-1.25,10.47,10.47,0,0,1-2.61-.82A8.89,8.89,0,0,1,437,511.8a7.74,7.74,0,0,1-1.11-4.42,9.64,9.64,0,0,1,.12-1.08l.22-2.17.43-4.37.11-1.1,0-.27V498l0-.86a25.4,25.4,0,0,0-18-24.25,28.42,28.42,0,0,0-3.65-.85l-1.87-.22-1.39-.13-8.76-.87-8.87-.88V337.8a4.88,4.88,0,0,1,4.57-4.94h0l3.39-.2,1.7-.09,2.16-.2a47.49,47.49,0,0,0,27-11.15l16.08-3.69,5.29-1.22a22.71,22.71,0,0,0,6.93-3,23,23,0,0,0,5.53-5,22.67,22.67,0,0,0,3.57-6.45c.22-.57.36-1.17.54-1.75l.13-.49.09-.38a10.82,10.82,0,0,1,.53-1.44,9.35,9.35,0,0,1,1.76-2.59,9.94,9.94,0,0,1,5.75-2.91l.42-.06.22,0,.33,0,1.29-.07,2.59-.14,5.17-.27,10.35-.55,2.72-.15a20.67,20.67,0,0,0,3.23-.5,19.4,19.4,0,0,0,5.95-2.53,18.65,18.65,0,0,0,2.56-1.93c.4-.36.78-.73,1.15-1.12s.6-.66.9-1l3.47-3.85,6.93-7.71,3.46-3.85a13.69,13.69,0,0,1,7.58-4.49,14.92,14.92,0,0,1,2.3-.28l2.58-.14,10.35-.55,20.7-1.1Z"/><g class="cls-8"><path class="cls-9" d="M434.19,516.78c-10.51-4.3-5.25-7.65-7.57-26.65-1.78-14.51-19.69-18.64-28.06-19.78l-4.28-.43s-27.48.49-32.26-17.47c-4.13-15.5-23.75-16.14-29-16v100H412.8a102.94,102.94,0,0,1-16.86-40.55l7.21-.72,8.76-.86.54-.06h.17l.08,0a1.46,1.46,0,0,0,.32-.1,6.37,6.37,0,0,1,.65-.09,4.13,4.13,0,0,1,1.39.09,5.41,5.41,0,0,1,2.71,1.63,6.51,6.51,0,0,1,1,1.46,5.4,5.4,0,0,1,.31.88l.07.23a.47.47,0,0,1,0,.14l0,.27.11,1.1.43,4.37.22,2.22a25.51,25.51,0,0,0,.48,3.27,22.6,22.6,0,0,0,6.07,11.28,22,22,0,0,0,10.77,6,22.29,22.29,0,0,0,6,.46c.33,0,.49,0,.75-.07a3.42,3.42,0,0,1,.71,0c.24,0,.48,0,.73,0l.72.07a10.87,10.87,0,0,1,7.58,4.92,11.93,11.93,0,0,1,.8,1.45,13.6,13.6,0,0,1,.57,1.59,6.9,6.9,0,0,1,.27,1.13h6.63C459.31,518.69,444.71,521.08,434.19,516.78Z"/><path class="cls-10" d="M389.15,226.52c0,4.89-.32,9.76-.65,14.63s-.15,9.64-.06,14.51-.47,9.9-.6,14.84-.15,10.15-.24,15.23c-.19,10.08-1.53,20.12-2.47,30.15-1,10.21-1.9,20.39-2.11,30.65-.42,20.15.16,40.31,1.39,60.42.62,10.24,1.28,20.46,1.79,30.71.25,4.95.5,9.89.52,14.85s0,9.78.21,14.66c.52,10.44,1.94,20.93,1.49,31.39-.11,2.54-.27,5-.26,7.6s0,5.09-.22,7.65-.47,5.19-.8,7.78c-.3,2.29-.46,5.14-1.51,7.2,0,0,.06.1.08.07a16.41,16.41,0,0,0,1.48-5.28c.45-2.55.73-5.14,1-7.71a69.54,69.54,0,0,0,.47-7.07c0-2.5-.1-5.05.15-7.54,1-9.76-.45-19.75-1-29.49-.61-10-.26-20-.76-30.06s-1-19.79-1.68-29.68q-2-30.66-1.73-61.4c.11-10.28.89-20.45,1.82-30.68q.7-7.6,1.37-15.22c.44-5,1-10,1.14-15.08.11-5.31.07-10.62.11-15.93s.49-10.85.56-16.28c.07-5-.37-10,0-15,.35-5.28.7-10.55.68-15.84C389.25,226.54,389.15,226.48,389.15,226.52Z"/><path class="cls-10" d="M390.13,310.94a18.33,18.33,0,0,0-1,4.94c-.2,2.06-.44,4.12-.65,6.19-.43,4.37-.9,8.77-1,13.16s-.84,8.55-.9,12.83c-.08,4.55-.67,9.09-.65,13.65,0,8.81.79,17.59.87,26.39,0,3.88.62,7.67.94,11.52.15,1.86.53,3.61.53,5.5a3.08,3.08,0,0,0,.77,2.38c.06.05.26.19.33.09a4.67,4.67,0,0,0,.59-2.86c0-1.35.25-2.7.28-4.05.07-3.23,1.06-6.41,1.2-9.64.31-6.83,1.13-13.68,1.18-20.52,0-3,.31-6,.31-9s-.19-6.1-.39-9.15-.28-6.31-.53-9.46-.79-6.49-.86-9.76c0-.17-.44-.59-.52-.34a34.7,34.7,0,0,0-.79,10.52,28.26,28.26,0,0,1-.13,5,43.47,43.47,0,0,0-.5,5.33c0,3.49-.53,6.93-.27,10.42a14.08,14.08,0,0,1,.24,2.26c0,.85-.25,1.64-.24,2.5,0,1.82.07,3.64.1,5.46,0,.07.17.18.18.11,0-1.6,0-3.21.08-4.81s.47-2.95.23-4.41c-.59-3.73.07-7.49.11-11.24a39.89,39.89,0,0,1,.43-4.76,30,30,0,0,0,.21-5.61,35.7,35.7,0,0,1,.43-8.7c.14,2,.43,4,.61,6,.27,3.19.33,6.38.56,9.57s.43,6.35.49,9.53-.17,6.43-.24,9.66c-.16,6.64-.75,13.27-1.08,19.91-.16,3.07-.68,6.07-1.08,9.12-.18,1.44-.22,2.9-.39,4.35-.15,1.27.09,2.82-.58,3.95-.45-.9-.18-2.82-.2-3.61a44.42,44.42,0,0,0-.66-5.13,76.81,76.81,0,0,1-.79-11.84c0-4.17-.48-8.32-.58-12.48-.1-4.35-.29-8.71-.33-13.07-.07-8.29,1.07-16.53,1.36-24.8.15-4.19.48-8.36.89-12.53.21-2.14.38-4.31.69-6.44a22,22,0,0,1,1.09-5.48c.53.81.28,2,.44,2.87a50.13,50.13,0,0,1,.59,5.2c.26,3.74.67,7.47,1,11.2s.63,7.71.92,11.57.35,7.95.55,11.93c.18,3.64,0,7.11-.15,10.73-.14,3.8.13,7.59,0,11.39s-.39,7.56-.56,11.33c-.09,1.84-.23,3.67-.43,5.5-.15,1.4,0,3.09-.54,4.38,0,0,.09.13.11.09a11.85,11.85,0,0,0,.57-3.48c.25-1.88.41-3.79.54-5.69.29-3.94.55-7.91.75-11.85s-.09-7.94.08-11.92c.08-1.88.29-3.75.32-5.64,0-2.1-.18-4.18-.24-6.29-.23-7.9-.83-15.76-1.55-23.63-.35-3.88-.65-7.77-1-11.65-.13-1.43-.33-2.85-.47-4.28a3.45,3.45,0,0,0-1-2.31S390.17,310.82,390.13,310.94Z"/><path class="cls-10" d="M390.91,424.16c-.1,9.54.31,19.08.36,28.63,0,4.74.07,9.49,0,14.24,0,2.39-.11,4.77-.25,7.16s-.64,4.68-.64,7v3.09c0,1-.25,1.93-.28,2.91-.07,2.21,0,4.44,0,6.65s0,4.48.08,6.72.4,4.43.42,6.67.3,4.42.3,6.63-.2,4.24-.06,6.37.18,4.43.37,6.64c.09,1.1.26,2.2.44,3.29s.6,2.53.13,3.63c0,0,.06.1.08.07.63-1.36,0-3.25-.17-4.68-.29-2.2-.28-4.39-.41-6.6-.14-2.47-.17-4.88-.08-7.35.09-2.24-.21-4.42-.23-6.65,0-4.46-.39-8.88-.38-13.34,0-2.24,0-4.47,0-6.71s.3-4.29.3-6.48.44-4.6.61-6.89.24-4.77.28-7.16c.09-4.75,0-9.5,0-14.25-.06-9.84-.68-19.66-.81-29.5C391,424.18,390.91,424.12,390.91,424.16Z"/><path class="cls-10" d="M392.19,242.7c-.24-4.9-.34-9.71-.88-14.59-.08-.66-.15-1.32-.22-2l-.55-.23c.31,2.67.62,5.33.83,8s.17,5.24.28,7.86.3,5.15.2,7.73c-.35,10.05-.21,20.1-.18,30.15,0,3.62-.56,7.23-.54,10.87,0,1.87,0,3.75,0,5.63s.55,3.58.05,5.32c0,0,.07.09.08.06.63-2,0-4.41.06-6.5,0-2.58,0-5.16.1-7.73.1-2.29.34-4.58.56-6.86.24-2.46,0-5.07,0-7.54q0-7.72,0-15.46C392.09,252.5,392.43,247.64,392.19,242.7Z"/><path class="cls-10" d="M378.42,221.48l-.51-.07c.08,3.79.11,7.58.35,11.36.3,5,.43,10.09.56,15.14s.37,10,.41,15-.06,10-.07,15.06c0,6-.36,11.93-.65,17.9-.15,3-.17,6.05-.43,9.06s-.64,6-.76,9c-.46,11.82.82,23.69-.26,35.49,0,.06.14.15.14.09,1-9.83.35-19.76.46-29.62,0-4.91.48-9.71,1-14.58s.55-10,.81-15c1-19.81.28-39.76-.72-59.55C378.59,227.69,378.49,224.59,378.42,221.48Z"/><path class="cls-10" d="M385.08,223.42l-.39-.19q.09,3,.14,6c.07,4.05.08,8.1,0,12.14,0,2-.2,4-.27,6a11.44,11.44,0,0,1-.45,2.47c-.19.69-.07,1.45-.49,2a25.68,25.68,0,0,1-.56-4c-.38-2.16-.39-4.37-.58-6.55-.38-4.28-1-8.54-1.25-12.83-.13-2.23-.27-4.45-.39-6.68l-.53,0c.13,2.37.29,4.72.43,7.1.26,4.29.89,8.55,1.27,12.83.19,2.2.26,4.36.66,6.53.26,1.4,0,2.78.73,4.07.06.12.3.37.44.25a1.59,1.59,0,0,0,.57-1.22c.1-.71.21-1.34.37-2.05a31.26,31.26,0,0,0,.42-5.73c.16-4.24.12-8.51.06-12.76Q385.21,227.07,385.08,223.42Z"/><path class="cls-10" d="M376.12,497.81q-1.38-17.82-2.82-35.62c-1.91-23.8-3.84-47.6-5.41-71.43-1.61-24.3-2.5-48.67-3.42-73-.46-11.93-.78-23.88-1.07-35.82-.28-11.75-.08-23.52-.51-35.26a277.67,277.67,0,0,0-3-31l-.58-.27c.71,5.58,1.42,11.16,2,16.76,1.21,12,1.08,23.94,1.26,36,.17,11.83.52,23.65.88,35.48.36,12.06.86,24.12,1.42,36.18.55,11.85.88,23.72,1.56,35.56,1.38,24,3.27,47.89,5.22,71.8q1.74,21.27,3.45,42.54c.57,7.13,1.08,14.24,2.1,21.32.52,3.58,1.05,7.16,1.24,10.77.1,1.79.08,3.58,0,5.37,0,.91-.12,1.83-.24,2.73,0,.23-.1,2-.12.84,0-.06-.13-.14-.13-.09,0,.21,0,.41,0,.62,0,.05.13.16.15.09,1.18-5.21.66-10.8,0-16.05C377.37,509.46,376.57,503.68,376.12,497.81Z"/><path class="cls-10" d="M354.87,299c-.13-5.93-.12-11.87-.2-17.81-.16-11.79-1.35-23.43-2.15-35.18s-1.31-23.28-1.94-34.93l-.46-.24c0,.08,0,.15,0,.23.3,6,.58,12,.88,17.95.6,11.86,1.54,23.66,2.42,35.49.91,12.05.55,24.15.86,36.22s1.06,23.86,1,35.82-1.25,23.84-1.81,35.79-.86,23.74-1.89,35.57c-1,11.52-2.07,23-3,34.56-.54,6.92-1.38,13.8-1.93,20.72-.58,7.26-.8,14.53-1,21.81-.21,7.08-.5,14.15-1.3,21.18-.38,3.44-.37,6.92-.78,10.37a26.43,26.43,0,0,0-.39,4.78c.12,1.86.51,3.67.56,5.54,0,.06.15.15.15.1,0-2.5-.81-5-.47-7.53.41-3,.79-5.94,1-8.93.4-5.86,1-11.71,1.28-17.58.57-11.64.7-23.25,1.85-34.85,2.28-23.17,4.81-46.39,5.85-69.67.26-5.94.48-11.87.77-17.8s.88-11.87,1.26-17.81c.75-12,.47-24,.07-36C355.38,310.88,355,305,354.87,299Z"/><path class="cls-10" d="M357.53,374c-.28,2.12-.57,4.22-.78,6.36-.47,5-.69,10-1.12,14.94s-1.13,10-1.46,15c-.65,9.82-1.57,19.58-2.5,29.37s-1.36,19.81-1.38,29.78c0,10.21-1.39,20.37-2.31,30.53-.47,5.12-.84,10.25-1,15.4s.2,10,.28,15c0,1.56,0,3.12.06,4.68,0,.07.17.17.17.11.07-4.68-.12-9.34-.18-14-.07-5.12.22-10.24.6-15.34s.93-10.24,1.35-15.37,1.2-10.15,1.36-15.27,0-10,.15-15,.45-9.93.83-14.87c.76-9.82,2.12-19.58,2.69-29.42.28-4.93.69-9.82,1.22-14.73s.73-10.08,1.13-15.13c.19-2.36.49-4.71.69-7.07a23.19,23.19,0,0,1,.46-3.21,8.91,8.91,0,0,1,.53-2.62c.79-1.43,1.71,1.29,1.89,1.81a33.71,33.71,0,0,1,1,3.74,94.83,94.83,0,0,1,2.46,18.75c.1,5.06,0,10.13,0,15.19s.3,9.88.66,14.8c.69,9.43,1.1,18.86,1.72,28.28.61,9.26,1.37,18.42,2.56,27.62.59,4.61,1,9.25,1.55,13.87a130.84,130.84,0,0,1,1.11,13.4c.05,4.26.82,8.49,1.2,12.73s1.13,8.69,1.37,13c0,0,.09.09.09.06-.22-4.13-.84-8.26-1.14-12.39-.16-2.26-.19-4.53-.45-6.79a68,68,0,0,1-.53-8.08c0-1.88-.31-3.89-.47-5.77-.22-2.59-.53-5.18-.83-7.76-.58-5-1.09-10.05-1.74-15.06-1.29-10-1.92-20.08-2.55-30.16-.32-5.13-.46-10.27-.86-15.39-.41-5.32-.88-10.64-1.12-16-.45-9.78.43-19.61-.78-29.35A78,78,0,0,0,360.64,375c-.26-.8-.83-2.72-1.89-2.78C357.88,372.21,357.63,373.29,357.53,374Z"/><path class="cls-10" d="M359,462.88c-1.75,3.69-2.06,7.93-2.55,11.95-.61,5-.92,10-1.44,15-.7,6.84-1.49,13.67-2,20.53-.23,3.39-.31,6.76-.29,10.16,0,2.94.15,6.41-.92,9.18,0,0,.05.06.06,0a16.07,16.07,0,0,0,1-4.92c.2-2.53.14-5.08.18-7.61.07-5,.6-10.07,1.11-15.06,1-10,1.8-20.07,3.11-30a36.27,36.27,0,0,1,1.22-6.46c.26-.8.59-1.67.92-2.46a5.14,5.14,0,0,1,.53-.94c.68-1,1.46.34,1.62,1,1,3.93,1.09,8,1.72,12a69.8,69.8,0,0,1,.83,14.44c-.22,4.61-.43,9.1.43,13.65a126.94,126.94,0,0,1,1.7,14.57c.18,2.4.38,4.76.67,7.14s-.47,5,.18,7.42c0,.05.14.13.12.06-.54-2.22.15-4.5,0-6.76-.15-2.58-.49-5.14-.66-7.72a123.93,123.93,0,0,0-1.61-14.53c-.91-4.86-.59-9.77-.35-14.69a67.4,67.4,0,0,0-.88-13.38c-.6-4-.9-8-1.72-12a3,3,0,0,0-1.11-1.95C360,460.88,359.3,462.18,359,462.88Z"/><path class="cls-10" d="M357.82,506.56a2.32,2.32,0,0,0-.87,1.56c-.22,1.1-.46,2.21-.63,3.32a32,32,0,0,0-.1,7.06,64.13,64.13,0,0,1-.11,7.72c-.06,1.06-.13,2.12-.25,3.17a5.78,5.78,0,0,0-.26,2.21s.12.11.11,0a5.61,5.61,0,0,1,.33-2.14c.11-.87.19-1.74.26-2.61.14-1.77.39-3.58.36-5.36-.07-4-.46-7.73.36-11.64a10.35,10.35,0,0,1,.68-2.54c.72-1.39,1.68.61,1.89,1.18a28.72,28.72,0,0,1,1.24,5.45,41.26,41.26,0,0,0,.84,5.42c.52,1.82.89,3.78,1.27,5.65,0,.05.15.15.14.06-.31-2.22-.86-4.42-1.34-6.6s-.51-4.68-1-7C360.63,510.79,359.54,505.25,357.82,506.56Z"/><path class="cls-10" d="M356.27,432.35a22.48,22.48,0,0,0-2,6.32c-.38,2.79-.41,5.62-.65,8.43-.4,4.81-1.15,9.68-1.84,14.44,0,0,.05.07.06,0,.64-3.58,1.11-7.21,1.57-10.83.27-2.15.6-4.25.75-6.41a70.63,70.63,0,0,1,.78-7.26,24.91,24.91,0,0,1,2-5.16c.8-1.87,2.53.4,3,1.47a13.14,13.14,0,0,1,.83,3.16,104.31,104.31,0,0,0,3,11.89c0,.06.19.17.16.08-.63-2.45-1.28-4.88-1.81-7.36-.47-2.24-.8-4.54-1.42-6.74a6.63,6.63,0,0,0-2.05-3.4C357.34,430.05,356.87,431,356.27,432.35Z"/><path class="cls-10" d="M338.27,354.88c-.37-4.88-.49-9.75-.65-14.64-.15-4.71-.63-9.39-.62-14.1,0-3.46.2-6.92.28-10.39-.15.19-.28.39-.43.57-.15,4.13-.51,8.25-.42,12.39.1,4.93.52,9.85.66,14.78s.47,9.87.81,14.82c1.46,20.83,1.8,41.73,1.86,62.61.06,18.8-.25,37.59-.23,56.39,0,4.6.23,9.2.3,13.79s0,9.1,0,13.66a78.91,78.91,0,0,1-.72,13.57c-.39,2.33-.6,4.7-.79,7.06a25.86,25.86,0,0,1-.68,5.9s.06.08.07.05a22.65,22.65,0,0,0,.81-5.82c.24-2.53.52-5.07,1-7.57a79.78,79.78,0,0,0,.72-14.74c-.08-4.91.12-9.82,0-14.73S340,478.4,340,473.35c0-10.1.31-20.2.32-30.29,0-10.36,0-20.71,0-31.07C340.18,392.94,339.7,373.88,338.27,354.88Z"/><path class="cls-10" d="M333.83,390.23a17.19,17.19,0,0,1,.32,3.59c.06,1.08.21,2.14.23,3.22,0,2.51-.13,5-.23,7.55-.19,4.76-.17,9.51.11,14.27.29,5.05.8,10.07,1.22,15.11s.52,10.21.51,15.36c0,4.89-.17,9.76-.29,14.65s-.61,9.75-.61,14.64-.33,9.57-.23,14.36c0,1.86.5,3.66.66,5.5.09,1,.28,2,.45,3,.21,1.21.16,2.48.28,3.7.23,2.45.34,5,.41,7.43,0,1.27-.24,2.58-.3,3.86s0,2.6-.18,3.91-.53,2.6-.76,3.91-.26,2.73-.37,4.08a27.79,27.79,0,0,1-.67,3.84,17.35,17.35,0,0,0,0,4c0,.06.17.17.17.1,0-1.09.05-2.19.15-3.29s.59-2.15.72-3.26c.31-2.5.37-5,.89-7.43a41.29,41.29,0,0,0,.45-6.76c.05-1.12.24-2.19.19-3.3-.06-1.28-.19-2.56-.26-3.84-.1-2-.16-3.94-.34-5.9-.09-1-.29-1.93-.44-2.9-.18-1.14-.15-2.28-.36-3.42-.87-4.71.06-9.74.06-14.51V475c0-2.58.48-5.17.57-7.75.17-4.9.3-9.82.3-14.72,0-4.72.12-9.46-.22-14.17-.36-5-.89-10.08-1.3-15.12a166.85,166.85,0,0,1-.55-17.32c.06-2.75.15-5.49.15-8.23a30.31,30.31,0,0,0-.22-3.3,26.18,26.18,0,0,0-.42-4.16S333.82,390.18,333.83,390.23Z"/><path class="cls-10" d="M334.18,248.14c0-2.57.25-5.13.24-7.71,0-3.65-.05-7.29,0-10.94s0-7.48.36-11.18c.2-2,.5-4,.61-6l0,0-.11.12c-.16,2.07-.52,4.14-.76,6.21a105.8,105.8,0,0,0-.45,11.12c-.05,3.61-.05,7.22-.07,10.83,0,2.38-.18,4.75-.24,7.12Z"/><path class="cls-10" d="M338.15,252l.64.83c0-1.16.06-2.33.07-3.5.07-5,0-9.93,0-14.9,0-8.34.89-16.68.71-25l-.58.36c0,.54,0,1.08,0,1.62-.06,4.91-.21,9.79-.55,14.69-.35,5.13-.17,10.31-.17,15.45C338.3,245,338.22,248.5,338.15,252Z"/><path class="cls-10" d="M350.24,308.32c-.19-9.86-1.07-19.73-1.89-29.56-.44-5.24-.86-10.48-1.15-15.73-.28-5-.08-10.07-.2-15.09-.22-9.9-1-19.77-1.17-29.67-.06-3.24-.12-6.48-.22-9.7l-.49-.25.09,5.27c.13,9.93.67,19.85,1.1,29.77.21,5,.23,10,.24,15.07,0,4.88.42,9.76.8,14.63.81,10.27,1.77,20.53,2.25,30.82.22,4.82.41,9.75.19,14.57s-.45,9.92-.53,14.89,0,10-.08,14.94-.31,10.13-.4,15.2c0,2.42-.33,4.82-.44,7.24s.1,4.95-.19,7.42a17.49,17.49,0,0,1-.8,3.65,5.41,5.41,0,0,1-.85,1.61c-1,1.32-1.61-1.37-1.74-2.11-.8-4.74-.33-9.73-.51-14.53s-.38-9.67-.67-14.49c-.31-5.19-.71-10.38-1-15.58-.27-4.75-.87-9.46-1.17-14.21-.27-4.17-.35-8.37-.47-12.55-.18.37-.38.73-.57,1.09.07,1.39.15,2.78.23,4.16.3,4.91.46,9.78,1,14.68s.74,10,1,14.95c.32,5.26.72,10.51.94,15.79.2,5,.45,9.91.45,14.89a42.28,42.28,0,0,0,.41,5.63c.12.87.35,2.25,1.15,2.76,1.5,1,2.29-2.06,2.54-3.11,1-4.16.5-8.54.88-12.78.45-5,.36-10.16.54-15.21s.19-10,.2-15C349.72,327.93,350.44,318.15,350.24,308.32Z"/><path class="cls-10" d="M343.33,243.64c0,5.4-.42,10.8-.69,16.19.19.47.37.93.54,1.41q.12-2.16.27-4.32a164.46,164.46,0,0,0-.55-28.59c-.66-6.24-1.25-12.39-1.36-18.68l0-1.44-.45.26c0,1.72,0,3.44.1,5.16C341.49,223.68,343.33,233.56,343.33,243.64Z"/><path class="cls-10" d="M344.74,326.34c.14-2.17,0-4.3.18-6.47s.06-4.41.22-6.6a37.1,37.1,0,0,0-.27-5.86c-.2-2.26-.34-4.54-.5-6.81a2.44,2.44,0,0,0,0-.27c-.12.47-.24.94-.37,1.4.1,1.5.19,3,.29,4.49.1,1.34.21,2.66.24,4s0,2.9,0,4.36c0,2.7-.15,5.34-.25,8,0,1.36.14,2.7.06,4.07a23.48,23.48,0,0,0,.19,3.84c.16,1.55.14,3.11.3,4.67.17,1.73.41,3.44.46,5.19,0,.06.15.15.15.09C345.42,335.76,344.42,331.05,344.74,326.34Z"/><path class="cls-10" d="M347,327.15a10,10,0,0,1-.12-3c-.05-2.1-.24-4.19-.22-6.3s-.15-4.28-.22-6.42c-.1-2.39.06-4.76.19-7.15a137.64,137.64,0,0,0-.4-16.87c0,.93-.13,1.86-.22,2.81.25,2,.07,4.1.34,6.14a45.41,45.41,0,0,1-.11,7.09c-.07,2.2-.26,4.39-.22,6.6s.22,4.35.29,6.53c.07,2-.09,4,.18,6a29.91,29.91,0,0,1,.21,3.27,7.82,7.82,0,0,1,.06,2.45s.05.06.05,0A1.5,1.5,0,0,0,347,327.15Z"/><path class="cls-10" d="M369.25,283.38c-.19-4.83-.63-9.65-.75-14.48-.11-4.61-.24-9.19-.23-13.8,0-4.8-.63-9.68-1.07-14.46-.46-4.95-1-9.9-1.44-14.85q-.35-4-.7-7.92l-.59-.22c.84,8.17,1.57,16.37,2.34,24.55.48,5.12.94,10.23.95,15.39q0,6.92.39,13.83c.37,6.86.68,13.73,1.05,20.59.39,7.1,1.07,14.18,1.13,21.3,0,0,.07.08.07.05,0-4.82-.24-9.64-.53-14.45C369.57,293.73,369.45,288.56,369.25,283.38Z"/><path class="cls-10" d="M373.53,232.25c-.16-3.92-.22-7.84-.25-11.76l-.48-.12c0,3.46.07,6.92.19,10.38.16,4.48,1.11,9.05.67,13.54-.05.59-.45,1-.69.21a6.85,6.85,0,0,1-.19-.9c-.09-.54-.1-1.09-.2-1.63-.43-2.35-.5-4.71-.95-7.05-.93-4.79-1.53-9.65-2.18-14.48l-.15-1.07-.47-.15c.46,3.45.93,6.89,1.45,10.33.34,2.29.73,4.56,1.19,6.82.22,1.06.18,2.24.31,3.32s.36,1.91.42,2.88a5.14,5.14,0,0,0,.75,2.73c.28.39.86.62,1,0,.49-1.63.17-3.58.14-5.27C374.07,237.43,373.64,234.86,373.53,232.25Z"/><path class="cls-10" d="M371.49,348.19c.33,2,.18,4.05.4,6.08.26,2.43.15,4.92.33,7.36.17,2.27.33,4.53.49,6.8.18,2.53,0,5.07.06,7.6,0,2.1.29,4.22.42,6.32a74.18,74.18,0,0,0,.69,7.45c.8,4.92,1,10.05,1.3,15,.64,10.14,1,20.3,1.95,30.42,1,10.47,1.65,20.94,2.21,31.44.61,11.52,1.83,23,2,34.58.06,5.75,0,11.49.33,17.24a75.73,75.73,0,0,0,.72,8c.21,1.28.41,2.55.61,3.83.23,1.43.94,3,.31,4.4,0,0,.07.11.09.08.75-1.49,0-3.34-.25-4.92-.33-2.48-.66-4.94-.85-7.44-.41-5.29-.47-10.61-.47-15.91,0-10.13-.67-20.15-1.35-30.25-.7-10.27-1.05-20.57-1.84-30.84s-1.74-20.74-2.29-31.14c-.3-5.67-.61-11.34-1.08-17s-1.49-11.57-1.66-17.4c-.07-2.66-.31-5.3-.32-8s-.29-5.24-.53-7.86c-.27-2.85-.39-5.68-.55-8.54a63,63,0,0,0-.57-7.27S371.48,348.13,371.49,348.19Z"/><path class="cls-10" d="M375.93,363.16a7.11,7.11,0,0,1,.83,3.75c0,1.24.14,2.47.2,3.72.14,2.53.23,5.06.39,7.59.34,5.51,1.42,11,1.66,16.47.23,5,.25,10.1.74,15.13.13,1.34.31,2.67.5,4a40.09,40.09,0,0,1,.74,4.45c.07,2.42.72,5,.38,7.37,0,.13.32.38.35.22.45-2.15,0-4.61-.15-6.79-.24-2.63-.84-5.24-1.16-7.88-.69-5.76-.67-11.58-1-17.36-.14-2.54-.64-5.09-.95-7.61-.4-3.18-.74-6.4-.87-9.61-.1-2.53-.32-5.07-.56-7.59-.18-2,0-4.14-1.06-5.86C376,363.13,375.9,363.11,375.93,363.16Z"/></g><path class="cls-1" d="M552.83,260.9l-10.35-.55-2.58-.14a21.17,21.17,0,0,0-2.86.05,18.23,18.23,0,0,0-8.22,3,21.24,21.24,0,0,0-2.3,1.83l-3.85,3.46L515,275.45l-3.85,3.47c-.31.27-.68.62-.93.82s-.52.42-.78.61a13.23,13.23,0,0,1-1.69,1,11.94,11.94,0,0,1-3.7,1.1,13.49,13.49,0,0,1-1.68.07c.39-.56.79-1.12,1.17-1.7a46.52,46.52,0,0,0,5.15-10.62,37.81,37.81,0,0,0,2-11.43A36.63,36.63,0,0,0,509,247.6a35.83,35.83,0,0,1-.45,11,34.78,34.78,0,0,1-3.72,10,41.22,41.22,0,0,1-6.26,8.42,45.37,45.37,0,0,1-3.8,3.55c-.63.53-1.28,1-1.93,1.51l-3.54-.19-5.17-.28-2.59-.13-1.29-.07-.33,0h-1.3a21.44,21.44,0,0,0-13.05,4.79,21.92,21.92,0,0,0-4.77,5.38,25.28,25.28,0,0,0-1.67,3.23l-.61,1.59c-.11.23-.18.47-.31.69a8.8,8.8,0,0,1-4.11,4,8,8,0,0,1-2.67.74l-4.74.57a45.29,45.29,0,0,0,3.14-14c.1-1.36.05-2.72.06-4.07v-1l-.05-.86-.1-1.7-.19-3.39-.1-1.69,0-.83v-.7c0-.92-.08-1.86,0-2.79l.23-2.79.51-2.77c.18-.92.51-1.81.75-2.73a31.89,31.89,0,0,1,2.76-6.22,7,7,0,0,0,1.36-2.15,33.42,33.42,0,0,1,10-9.56,32.86,32.86,0,0,1,11.17-4.35,21.92,21.92,0,0,1,3-.45l1.53-.18,1.85-.19a26.42,26.42,0,0,0,3.66-.51L488,239a13.64,13.64,0,0,0,1.78-.45A40.45,40.45,0,0,0,512.62,222a40,40,0,0,0,5.58-12.76c.22-1.14.46-2.26.65-3.39l.33-3.43c.05-2.29,0-4.55-.14-6.81-.1,2.26-.33,4.52-.64,6.73l-.7,3.28c-.31,1.07-.67,2.12-1,3.18a37.54,37.54,0,0,1-6.58,11.32,35.76,35.76,0,0,1-21.7,12.35,8.77,8.77,0,0,1-1.54.2l-1.55.14a22.74,22.74,0,0,1-3.09.07l-3.39,0a29.06,29.06,0,0,0-3.73.12,42.63,42.63,0,0,0-9.81,1.94l-1.33-1c-.57-.48-1.15-1-1.71-1.5s-1.11-1.06-1.62-1.63a36.43,36.43,0,0,1-2.71-3.33,17,17,0,0,0,2.05-1,22,22,0,0,0,4.06-3.11,39,39,0,0,0,6.12-7.7,40.47,40.47,0,0,1,5.81-7.37,25.47,25.47,0,0,1,3.62-3,13.74,13.74,0,0,1,4.28-2,13.75,13.75,0,0,0-4.52,1.61,26.28,26.28,0,0,0-4,2.71,42.35,42.35,0,0,0-6.71,7,36.2,36.2,0,0,1-6.42,6.65,18.85,18.85,0,0,1-3.76,2.35,11.81,11.81,0,0,1-2.44.85h0c-.24-.41-.48-.82-.69-1.25a33.63,33.63,0,0,1-3.14-9,37.09,37.09,0,0,1-.68-4.84,20.32,20.32,0,0,1-.08-2.47l0-2.49-.44,2.46a18.8,18.8,0,0,0-.38,2.48,38.56,38.56,0,0,0-.24,5,36.37,36.37,0,0,0,1.53,10.19,37.28,37.28,0,0,0,4.36,9.61c.46.77,1,1.48,1.5,2.23.33.45.69.89,1,1.34a43.63,43.63,0,0,0-10.15,7.41,6.66,6.66,0,0,0-.77,0,44.61,44.61,0,0,1-18.68-2.25A46.93,46.93,0,0,1,413.79,234c-.36-.55-.71-1.09-1-1.66a28,28,0,0,1-2.07-4.45c-1.07-3-1.45-6.28-.27-9.07a10.06,10.06,0,0,1,2.79-3.72,36.11,36.11,0,0,0,4-3.84,25.09,25.09,0,0,0,3.22-4.52,14.58,14.58,0,0,0,1.79-5.15,14,14,0,0,1-2.56,4.65,24.1,24.1,0,0,1-3.72,3.7,37.4,37.4,0,0,1-4.36,2.95,13.23,13.23,0,0,0-4.26,4.32,13.81,13.81,0,0,0-1.85,5.93c0,.49-.06,1-.07,1.46a48.78,48.78,0,0,1-4.59-8.37,21.63,21.63,0,0,1-.92-2.43l-.86-2.47c-.49-1.67-.83-3.39-1.27-5.1-.28-1.74-.47-3.49-.72-5.26l-.44-5.35-.43,5.36c0,1.79-.13,3.61-.13,5.43s.21,3.65.44,5.47l.48,2.71a22.59,22.59,0,0,0,.55,2.72,53.93,53.93,0,0,0,9.77,20.15,55.92,55.92,0,0,0,32.25,20.33c-.1.21-.2.4-.29.61-.5,1.22-1.08,2.41-1.49,3.67s-.8,2.52-1.17,3.8l-.8,3.91c-.22,1.32-.3,2.65-.44,4l-.1,1-.05.86-.1,1.69-.19,3.39-.1,1.7-.05.83-.09.68c-.14.91-.19,1.81-.36,2.7a29.77,29.77,0,0,1-10.59,17.72,28.9,28.9,0,0,1-8.84,4.85,27.55,27.55,0,0,1-9.71,1.33l-1.22,0-1.7-.1-3.39-.19-6.78-.39h0a12.54,12.54,0,0,1-11.78-11.58c-.67-8.91-1.52-20-1.52-20l-.56-7.27-.14-1.82-.07-.91-.12-1.2c-.17-1.61-.34-3.2-.54-4.79a61.79,61.79,0,0,0-6-18.07,58.35,58.35,0,0,0-26.14-25.41A58.15,58.15,0,0,0,328,213.65l-4.43-.39c-1.48,0-2.95,0-4.42,0l-1.1,0h-.5l-.2,0a4.54,4.54,0,0,1-.82.07,3.75,3.75,0,0,1-.82,0l-.41,0-.41-.08a7.75,7.75,0,0,1-3.19-1.4,8.52,8.52,0,0,1-2.42-2.83,7.54,7.54,0,0,1-.73-1.81,8.33,8.33,0,0,1-.22-1,5.06,5.06,0,0,1-.08-.78l-.07-.9,0-.37,13.46-.88,4.17-.28,1-.07.53,0,.7-.06a27,27,0,0,0,2.83-.36,26.41,26.41,0,0,0,10.34-4.29,25.79,25.79,0,0,0,7.49-8,25.33,25.33,0,0,0,3.43-10.17l.13-1.33c0-.44,0-.89,0-1.33V176.1l0-.81,0-.78.06-.77c0-.26,0-.52.05-.78l.13-.76a15,15,0,0,1,2.38-5.86,15.83,15.83,0,0,1,11.22-6.65c.53-.09,1.3-.12,2-.17l2.09-.14,4.17-.27,4.17-.27c.71-.06,1.34-.07,2.16-.17a19.9,19.9,0,0,0,2.3-.33,21.33,21.33,0,0,0,14.32-10.19,20.36,20.36,0,0,0,2.61-8.23l.09-1.07c0-.36,0-.71,0-1.07,0-.71,0-1.41-.08-2.11l-.28-4.17-.27,4.17c0,.7-.1,1.39-.19,2.07,0,.34-.07.67-.13,1l-.22,1a18.69,18.69,0,0,1-3.36,7.2,18,18,0,0,1-13.08,7,12.56,12.56,0,0,1-1.84,0c-.58,0-1.34-.07-2-.1l-4.17-.28-4.17-.27L368,153.2c-.71,0-1.33-.11-2.19-.1a23.3,23.3,0,0,0-13.12,3.72,53.19,53.19,0,0,0-1.83-9.34,29.6,29.6,0,0,0-4.92-9.89,18.84,18.84,0,0,0-4-3.77,18.52,18.52,0,0,0-4.78-2.32,18,18,0,0,1,4,3.19,17.09,17.09,0,0,1,2.76,4.14,26.32,26.32,0,0,1,2.33,9.52,48.71,48.71,0,0,1-.4,9.87c-.22,1.64-.51,3.27-.85,4.88-.22,1-.46,2-.72,3h0a23.7,23.7,0,0,0-1.47,3.57l-.39,1.25c-.12.42-.19.85-.29,1.28l-.26,1.29-.14,1.31-.12,1.27-.12.76c0,.25-.05.51-.11.75l-.19.74a13.94,13.94,0,0,1-2.62,5.23,13.32,13.32,0,0,1-4.42,3.51,12.69,12.69,0,0,1-5.23,1.3,9.85,9.85,0,0,1-1.33,0h-.33l-.53,0-1-.06-4.17-.28-14.8-1-.33-4.19-.59-7.42a21.41,21.41,0,0,0-2.79-8.87,20.67,20.67,0,0,0-9.22-8.45,29.09,29.09,0,0,0,4.67-4.87,19.16,19.16,0,0,0,3.1-6.17,15.54,15.54,0,0,0,.41-6.62,14.89,14.89,0,0,1-1.9,6,16.82,16.82,0,0,1-4,4.57,24.78,24.78,0,0,1-5.12,3.16,28.81,28.81,0,0,1-2.77,1.14c-.47.16-.95.32-1.42.45a11.53,11.53,0,0,1-1.32.33,4.94,4.94,0,0,0-.52.13h-.52a9,9,0,0,0-1,.06l-.91.07-1.82.14-3.46.27a28.36,28.36,0,0,0,1.75-3.37,35.71,35.71,0,0,0,2.32-7.5l.32-1.92c.11-.63.14-1.28.22-1.91.16-1.28.16-2.56.21-3.83s-.06-2.54-.09-3.81-.24-2.51-.36-3.76l-.22,3.76c-.16,1.24-.26,2.48-.48,3.71s-.43,2.44-.77,3.63c-.17.59-.29,1.19-.49,1.78l-.58,1.74a33.21,33.21,0,0,1-3.15,6.48,22.81,22.81,0,0,1-2.08,2.82c-.37.45-.77.86-1.16,1.25-.21.19-.4.39-.61.56a5.5,5.5,0,0,1-.54.43,2.66,2.66,0,0,0-.44.33.73.73,0,0,0-.08.09l-.31,0-.81,0-.81,0-.8-.05a9.83,9.83,0,0,1-1.62-.2,14.87,14.87,0,0,1-6.1-2.58A16.22,16.22,0,0,1,254,142.5a17.4,17.4,0,0,0,5.21,13.64,17.92,17.92,0,0,0,6.67,4.12,12.88,12.88,0,0,0,1.93.55l1,.22,1,.13,1,.11.91.07,1.82.15,7.27.56,1.82.14.91.07c.3,0,.62,0,.85.09a12.52,12.52,0,0,1,2.86.66,12.69,12.69,0,0,1,7.78,7.5,11.84,11.84,0,0,1,.71,5.11l-.54,7.13-1.13,14.54-.57,7.28-.07.9c0,.32-.05.56-.05,1.05a25.65,25.65,0,0,0,.05,2.63,24.19,24.19,0,0,0,1,5.24,25.43,25.43,0,0,0,1,2.8l-27.13.73-4.22.12-2.11.06h-.53l-.4,0-.72,0a9.28,9.28,0,0,1-5.46-1.79,10,10,0,0,1-3.59-5,11.74,11.74,0,0,1-.38-1.58c0-.14,0-.27,0-.41l0-.21,0-.32c0-.43-.09-.85-.15-1.27a16.12,16.12,0,0,0-1.58-4.83,15.89,15.89,0,0,0-6.85-6.89,15.48,15.48,0,0,0-4.53-1.5,14.32,14.32,0,0,0-2.35-.19c-.39,0-.78,0-1.16,0l-1.06.08-16.88,1.31,16.88,1.3,1.06.09c.32,0,.63.06.94.12a10.75,10.75,0,0,1,1.82.44,11.69,11.69,0,0,1,3.26,1.67,11.38,11.38,0,0,1,4.08,5.62,10.74,10.74,0,0,1,.52,3.31c0,.28,0,.55,0,.83l0,.21v.32c0,.21,0,.43,0,.64a16.17,16.17,0,0,0,.19,2.6,17.12,17.12,0,0,0,4.71,9.41c.12.13.26.25.39.37-1.53,0-.73,0,0,0h-.07v.24l0,.25,0,.51a5.93,5.93,0,0,1,0,1,16.3,16.3,0,0,1-.15,2.08,16.52,16.52,0,0,1-1.29,4.06,17.18,17.18,0,0,1-2.52,3.66,16.48,16.48,0,0,1-3.58,2.87A16.74,16.74,0,0,1,238.1,239l-1.2.25c-.16,0-.5.07-.76.11l-.81.1-3.27.41L219,241.51l-6.54.82-1.66.2c-.26-.28-.52-.6-.77-.92a20.07,20.07,0,0,1-1.42-2.12,26.28,26.28,0,0,1-2.15-4.83,31.33,31.33,0,0,1-1.18-5.34c-.15-.91-.16-1.84-.25-2.77s0-1.87,0-2.82c-.22.91-.47,1.83-.66,2.76s-.37,1.88-.45,2.84a33.34,33.34,0,0,0-.17,5.84,29.79,29.79,0,0,0,1,5.92c.16.59.36,1.17.57,1.75a20,20,0,0,1-9.79-3.41c-1.57-1.08-3.26-2.66-4.93-4.05l-5-4.28-10-8.55,8.45,10.1,4.23,5,2.11,2.53a34,34,0,0,0,2.35,2.59,25.5,25.5,0,0,0,13,6.63,27.56,27.56,0,0,0,3.76.43l3.31.14,6.58.29,13.16.57,3.29.14.82,0c.3,0,.51,0,.88,0l2.08-.05a29.2,29.2,0,0,0,8.21-1.68,30.13,30.13,0,0,0,7.53-4,31.93,31.93,0,0,0,6.16-6.13,33,33,0,0,0,4.22-7.8c.37-1.12.74-2.26,1-3.42l1.44.12,46.35,3.87c.75.13,1.51.21,2.27.29l.7.06c.21,0,.27,0,.41.06l.71.11c1,.16,1.91.26,2.84.44l2.76.71a36.65,36.65,0,0,1,10,4.82,33,33,0,0,1,7.69,7.55,30.53,30.53,0,0,1,4.76,9.24,33.47,33.47,0,0,1,1.51,9.9c-.07.83-.13,1.66-.17,2.47l0,.62-.07.9-.14,1.82-.56,7.27s.82,41.64-13.6,53.75l-11.33.87-9,.69c-1.94.13-1.91.21-2.56.22a4.32,4.32,0,0,1-1.64-.3,5.38,5.38,0,0,1-2.76-2.38,5.9,5.9,0,0,1-.69-1.9l-.35-4.44-.7-9-.31-4a6.29,6.29,0,0,0,.74-.22,19.61,19.61,0,0,0,2.36-.87l1.14-.52,1.08-.61a21,21,0,0,0,10.35-15.37c.06-.77.15-1.54.16-2.31l0-1.14c0-.39,0-.77-.06-1.07l-.07-.8H320l4-.29,1-.07,1.1-.12a16.19,16.19,0,0,0,2.17-.39,18,18,0,0,0,7.61-3.94,17.14,17.14,0,0,0,4.83-6.76,17.18,17.18,0,0,0,1.18-7.95,16.64,16.64,0,0,1-4.5,10.5,16.28,16.28,0,0,1-2.9,2.36,14.93,14.93,0,0,1-6.83,2.37,11.63,11.63,0,0,1-1.77.05l-.89,0-1-.07-4-.29h-.33l-.17,0-2.63-29.14-2.78,30.71-.35,3.83a7.66,7.66,0,0,1-.11.86l-.12.77c-.11.51-.27,1-.39,1.49a13.18,13.18,0,0,1-3.09,5,11.81,11.81,0,0,1-4.75,3l-.64.22-.67.15a8.44,8.44,0,0,1-1.32.21c-.43.08-.89,0-1.32.06-.22,0-.44,0-.66-.05h0a18.29,18.29,0,0,0-1.41-1.75,18.82,18.82,0,0,0-4.89-3.74,18.29,18.29,0,0,0-5.75-1.91,18.83,18.83,0,0,0-3-.18h-.73l-.38,0a5.14,5.14,0,0,1-.78,0,9.59,9.59,0,0,1-5.95-2.23,10.43,10.43,0,0,1-3.48-5.85l-.13-.89a3.25,3.25,0,0,1-.06-.51l0-.56-.18-2.25-.34-4.5-.7-9-1.39-18-1.39,18-.69,9-.35,4.5-.17,2.25,0,.56a5.59,5.59,0,0,0,0,.62l0,1.35a16.68,16.68,0,0,0,4.05,10.14,17.19,17.19,0,0,0,9.86,5.63,11.94,11.94,0,0,0,1.46.21l.74.08.4.06a10.16,10.16,0,0,1,1.47.35,8.66,8.66,0,0,1,4.49,3.47,8.35,8.35,0,0,1,1,2.5,7,7,0,0,1,.15,2.58l-.33,4.36-.69,9-.35,4.56a21,21,0,0,0,.89,6.92,21.63,21.63,0,0,0,15,14.48,32,32,0,0,0,6.39.9l9,.7h0A11.64,11.64,0,0,1,333,363.87V536.38H412.8a102.94,102.94,0,0,1-16.86-40.55l7.21-.72,8.76-.86.54-.06h.17l.08,0a1.46,1.46,0,0,0,.32-.1,6.37,6.37,0,0,1,.65-.09,4.13,4.13,0,0,1,1.39.09,5.41,5.41,0,0,1,2.71,1.63,6.51,6.51,0,0,1,1,1.46,5.4,5.4,0,0,1,.31.88l.07.23a.47.47,0,0,1,0,.14l0,.27.11,1.1.43,4.37.22,2.22a25.51,25.51,0,0,0,.48,3.27,22.6,22.6,0,0,0,6.07,11.28,22,22,0,0,0,10.77,6,22.29,22.29,0,0,0,6,.46c.33,0,.49,0,.75-.07a3.42,3.42,0,0,1,.71,0c.24,0,.48,0,.73,0l.72.07a10.87,10.87,0,0,1,7.58,4.92,11.93,11.93,0,0,1,.8,1.45,13.6,13.6,0,0,1,.57,1.59,6.9,6.9,0,0,1,.27,1.13h6.63a16,16,0,0,0,0-2.19,18.77,18.77,0,0,0-.37-2.68,18.38,18.38,0,0,0-.79-2.62,18.77,18.77,0,0,0-2.67-4.86,20,20,0,0,0-9.11-6.75,22.11,22.11,0,0,0-5.73-1.25,10.47,10.47,0,0,1-2.61-.82A8.89,8.89,0,0,1,437,511.8a7.74,7.74,0,0,1-1.11-4.42,9.64,9.64,0,0,1,.12-1.08l.22-2.17.43-4.37.11-1.1,0-.27V498l0-.86a25.4,25.4,0,0,0-18-24.25,28.42,28.42,0,0,0-3.65-.85l-1.87-.22-1.39-.13-8.76-.87-8.87-.88V337.8a4.88,4.88,0,0,1,4.57-4.94h0l3.39-.2,1.7-.09,2.16-.2a47.49,47.49,0,0,0,27-11.15l16.08-3.69,5.29-1.22a22.71,22.71,0,0,0,6.93-3,23,23,0,0,0,5.53-5,22.67,22.67,0,0,0,3.57-6.45c.22-.57.36-1.17.54-1.75l.13-.49.09-.38a10.82,10.82,0,0,1,.53-1.44,9.35,9.35,0,0,1,1.76-2.59,9.94,9.94,0,0,1,5.75-2.91l.42-.06.22,0,.33,0,1.29-.07,2.59-.14,5.17-.27,10.35-.55,2.72-.15a20.67,20.67,0,0,0,3.23-.5,19.4,19.4,0,0,0,5.95-2.53,18.65,18.65,0,0,0,2.56-1.93c.4-.36.78-.73,1.15-1.12s.6-.66.9-1l3.47-3.85,6.93-7.71,3.46-3.85a13.69,13.69,0,0,1,7.58-4.49,14.92,14.92,0,0,1,2.3-.28l2.58-.14,10.35-.55,20.7-1.1Z"/><path class="cls-9" d="M415.55,320.32c-15.77,2.86-18.79,13.16-18.79,13.16h0a4.73,4.73,0,0,1,2.08-.63l3.39-.2,1.7-.09,2.16-.2a47.49,47.49,0,0,0,27-11.15l16.08-3.69,5.29-1.22a22.71,22.71,0,0,0,6.93-3,23,23,0,0,0,5.53-5,22.67,22.67,0,0,0,3.57-6.45c.22-.57.36-1.17.54-1.75l.13-.49.09-.38a10.82,10.82,0,0,1,.53-1.44,9.35,9.35,0,0,1,1.76-2.59,9.94,9.94,0,0,1,5.75-2.91l.42-.06.22,0,.33,0,1.29-.07,2.59-.14,5.17-.27,10.35-.55,2.72-.15a20.67,20.67,0,0,0,3.23-.5,19.4,19.4,0,0,0,5.95-2.53,18.65,18.65,0,0,0,2.56-1.93c.4-.36.78-.73,1.15-1.12s.6-.66.9-1l3.47-3.85c-10.39,11.56-27.6,7.69-35.19,7.21s-12-.95-17.85,11-20,11-30,11.95S431.33,317.45,415.55,320.32Z"/><path class="cls-9" d="M513.27,221a6.62,6.62,0,0,0-.65,1C512.85,221.67,513.06,221.33,513.27,221Z"/><path class="cls-9" d="M449.6,268.51l.51-2.77c.18-.92.51-1.81.75-2.73a31.89,31.89,0,0,1,2.76-6.22,7,7,0,0,0,1.36-2.15,33.42,33.42,0,0,1,10-9.56,32.86,32.86,0,0,1,11.17-4.35,21.92,21.92,0,0,1,3-.45l1.53-.18,1.85-.19a26.42,26.42,0,0,0,3.66-.51L488,239a13.64,13.64,0,0,0,1.78-.45,40.29,40.29,0,0,0,20.07-12.91c-6.69,6.81-20.72,12.69-24.44,11.47-4.36-1.43-16.33,1.92-27.22,7.65s-8.83,26.51-8.83,26.51Z"/><path class="cls-9" d="M406.13,235.9c.38.52.76,1,1.15,1.56a55.92,55.92,0,0,0,32.25,20.33s3.33-3.92-2.92-6.78C431.33,248.58,414.34,244.93,406.13,235.9Z"/><path class="cls-9" d="M401.63,228.46c.33.66.67,1.32,1,2A7.05,7.05,0,0,0,401.63,228.46Z"/><path class="cls-9" d="M301.31,340.39c-7.22-2.83-9.29-11.8-9.67-19.47l-.29,3.79-.35,4.56a21,21,0,0,0,.89,6.92,21.63,21.63,0,0,0,15,14.48,32,32,0,0,0,6.39.9l9,.7a11.64,11.64,0,0,1,9.41,6.21C329.45,339.94,314.15,345.44,301.31,340.39Z"/><path class="cls-9" d="M317.47,232.29c.21,0,.27,0,.41.06l.71.11c1,.16,1.91.26,2.84.44l2.76.71a36.65,36.65,0,0,1,10,4.82,33,33,0,0,1,7.69,7.55,30.53,30.53,0,0,1,4.76,9.24,33.47,33.47,0,0,1,1.51,9.9c-.07.83-.13,1.66-.17,2.47l0,.62-.07.9-.14,1.82-.56,7.27s.38,19.36-3.95,35.51c1.84-6.65,13.16-49,8.76-66.87-4.78-19.45-37.48-14.9-37.48-14.9.75.13,1.51.21,2.27.29Z"/><path class="cls-6" d="M552.83,260.9l-10.35-.55-2.58-.14a21.17,21.17,0,0,0-2.86.05,18.23,18.23,0,0,0-8.22,3,21.24,21.24,0,0,0-2.3,1.83l-3.85,3.46L515,275.45l-3.85,3.47c-.31.27-.68.62-.93.82s-.52.42-.78.61a13.23,13.23,0,0,1-1.69,1,11.94,11.94,0,0,1-3.7,1.1,13.49,13.49,0,0,1-1.68.07c.39-.56.79-1.12,1.17-1.7a46.52,46.52,0,0,0,5.15-10.62,37.81,37.81,0,0,0,2-11.43A36.63,36.63,0,0,0,509,247.6a35.83,35.83,0,0,1-.45,11,34.78,34.78,0,0,1-3.72,10,41.22,41.22,0,0,1-6.26,8.42,45.37,45.37,0,0,1-3.8,3.55c-.63.53-1.28,1-1.93,1.51l-3.54-.19-5.17-.28-2.59-.13-1.29-.07-.33,0h-1.3a21.44,21.44,0,0,0-13.05,4.79,21.92,21.92,0,0,0-4.77,5.38,25.28,25.28,0,0,0-1.67,3.23l-.61,1.59c-.11.23-.18.47-.31.69a8.8,8.8,0,0,1-4.11,4,8,8,0,0,1-2.67.74l-4.74.57a45.29,45.29,0,0,0,3.14-14c.1-1.36.05-2.72.06-4.07v-1l-.05-.86-.1-1.7-.19-3.39-.1-1.69,0-.83v-.7c0-.92-.08-1.86,0-2.79l.23-2.79.51-2.77c.18-.92.51-1.81.75-2.73a31.89,31.89,0,0,1,2.76-6.22,7,7,0,0,0,1.36-2.15,33.42,33.42,0,0,1,10-9.56,32.86,32.86,0,0,1,11.17-4.35,21.92,21.92,0,0,1,3-.45l1.53-.18,1.85-.19a26.42,26.42,0,0,0,3.66-.51L488,239a13.64,13.64,0,0,0,1.78-.45A40.45,40.45,0,0,0,512.62,222a40,40,0,0,0,5.58-12.76c.22-1.14.46-2.26.65-3.39l.33-3.43c.05-2.29,0-4.55-.14-6.81-.1,2.26-.33,4.52-.64,6.73l-.7,3.28c-.31,1.07-.67,2.12-1,3.18a37.54,37.54,0,0,1-6.58,11.32,35.76,35.76,0,0,1-21.7,12.35,8.77,8.77,0,0,1-1.54.2l-1.55.14a22.74,22.74,0,0,1-3.09.07l-3.39,0a29.06,29.06,0,0,0-3.73.12,42.63,42.63,0,0,0-9.81,1.94l-1.33-1c-.57-.48-1.15-1-1.71-1.5s-1.11-1.06-1.62-1.63a36.43,36.43,0,0,1-2.71-3.33,17,17,0,0,0,2.05-1,22,22,0,0,0,4.06-3.11,39,39,0,0,0,6.12-7.7,40.47,40.47,0,0,1,5.81-7.37,25.47,25.47,0,0,1,3.62-3,13.74,13.74,0,0,1,4.28-2,13.75,13.75,0,0,0-4.52,1.61,26.28,26.28,0,0,0-4,2.71,42.35,42.35,0,0,0-6.71,7,36.2,36.2,0,0,1-6.42,6.65,18.85,18.85,0,0,1-3.76,2.35,11.81,11.81,0,0,1-2.44.85h0c-.24-.41-.48-.82-.69-1.25a33.63,33.63,0,0,1-3.14-9,37.09,37.09,0,0,1-.68-4.84,20.32,20.32,0,0,1-.08-2.47l0-2.49-.44,2.46a18.8,18.8,0,0,0-.38,2.48,38.56,38.56,0,0,0-.24,5,36.37,36.37,0,0,0,1.53,10.19,37.28,37.28,0,0,0,4.36,9.61c.46.77,1,1.48,1.5,2.23.33.45.69.89,1,1.34a43.63,43.63,0,0,0-10.15,7.41,6.66,6.66,0,0,0-.77,0,44.61,44.61,0,0,1-18.68-2.25A46.93,46.93,0,0,1,413.79,234c-.36-.55-.71-1.09-1-1.66a28,28,0,0,1-2.07-4.45c-1.07-3-1.45-6.28-.27-9.07a10.06,10.06,0,0,1,2.79-3.72,36.11,36.11,0,0,0,4-3.84,25.09,25.09,0,0,0,3.22-4.52,14.58,14.58,0,0,0,1.79-5.15,14,14,0,0,1-2.56,4.65,24.1,24.1,0,0,1-3.72,3.7,37.4,37.4,0,0,1-4.36,2.95,13.23,13.23,0,0,0-4.26,4.32,13.81,13.81,0,0,0-1.85,5.93c0,.49-.06,1-.07,1.46a48.78,48.78,0,0,1-4.59-8.37,21.63,21.63,0,0,1-.92-2.43l-.86-2.47c-.49-1.67-.83-3.39-1.27-5.1-.28-1.74-.47-3.49-.72-5.26l-.44-5.35-.43,5.36c0,1.79-.13,3.61-.13,5.43s.21,3.65.44,5.47l.48,2.71a22.59,22.59,0,0,0,.55,2.72,53.93,53.93,0,0,0,9.77,20.15,55.92,55.92,0,0,0,32.25,20.33c-.1.21-.2.4-.29.61-.5,1.22-1.08,2.41-1.49,3.67s-.8,2.52-1.17,3.8l-.8,3.91c-.22,1.32-.3,2.65-.44,4l-.1,1-.05.86-.1,1.69-.19,3.39-.1,1.7-.05.83-.09.68c-.14.91-.19,1.81-.36,2.7a29.77,29.77,0,0,1-10.59,17.72,28.9,28.9,0,0,1-8.84,4.85,27.55,27.55,0,0,1-9.71,1.33l-1.22,0-1.7-.1-3.39-.19-6.78-.39h0a12.54,12.54,0,0,1-11.78-11.58c-.67-8.91-1.52-20-1.52-20l-.56-7.27-.14-1.82-.07-.91-.12-1.2c-.17-1.61-.34-3.2-.54-4.79a61.79,61.79,0,0,0-6-18.07,58.35,58.35,0,0,0-26.14-25.41A58.15,58.15,0,0,0,328,213.65l-4.43-.39c-1.48,0-2.95,0-4.42,0l-1.1,0h-.5l-.2,0a4.54,4.54,0,0,1-.82.07,3.75,3.75,0,0,1-.82,0l-.41,0-.41-.08a7.75,7.75,0,0,1-3.19-1.4,8.52,8.52,0,0,1-2.42-2.83,7.54,7.54,0,0,1-.73-1.81,8.33,8.33,0,0,1-.22-1,5.06,5.06,0,0,1-.08-.78l-.07-.9,0-.37,13.46-.88,4.17-.28,1-.07.53,0,.7-.06a27,27,0,0,0,2.83-.36,26.41,26.41,0,0,0,10.34-4.29,25.79,25.79,0,0,0,7.49-8,25.33,25.33,0,0,0,3.43-10.17l.13-1.33c0-.44,0-.89,0-1.33V176.1l0-.81,0-.78.06-.77c0-.26,0-.52.05-.78l.13-.76a15,15,0,0,1,2.38-5.86,15.83,15.83,0,0,1,11.22-6.65c.53-.09,1.3-.12,2-.17l2.09-.14,4.17-.27,4.17-.27c.71-.06,1.34-.07,2.16-.17a19.9,19.9,0,0,0,2.3-.33,21.33,21.33,0,0,0,14.32-10.19,20.36,20.36,0,0,0,2.61-8.23l.09-1.07c0-.36,0-.71,0-1.07,0-.71,0-1.41-.08-2.11l-.28-4.17-.27,4.17c0,.7-.1,1.39-.19,2.07,0,.34-.07.67-.13,1l-.22,1a18.69,18.69,0,0,1-3.36,7.2,18,18,0,0,1-13.08,7,12.56,12.56,0,0,1-1.84,0c-.58,0-1.34-.07-2-.1l-4.17-.28-4.17-.27L368,153.2c-.71,0-1.33-.11-2.19-.1a23.3,23.3,0,0,0-13.12,3.72,53.19,53.19,0,0,0-1.83-9.34,29.6,29.6,0,0,0-4.92-9.89,18.84,18.84,0,0,0-4-3.77,18.52,18.52,0,0,0-4.78-2.32,18,18,0,0,1,4,3.19,17.09,17.09,0,0,1,2.76,4.14,26.32,26.32,0,0,1,2.33,9.52,48.71,48.71,0,0,1-.4,9.87c-.22,1.64-.51,3.27-.85,4.88-.22,1-.46,2-.72,3h0a23.7,23.7,0,0,0-1.47,3.57l-.39,1.25c-.12.42-.19.85-.29,1.28l-.26,1.29-.14,1.31-.12,1.27-.12.76c0,.25-.05.51-.11.75l-.19.74a13.94,13.94,0,0,1-2.62,5.23,13.32,13.32,0,0,1-4.42,3.51,12.69,12.69,0,0,1-5.23,1.3,9.85,9.85,0,0,1-1.33,0h-.33l-.53,0-1-.06-4.17-.28-14.8-1-.33-4.19-.59-7.42a21.41,21.41,0,0,0-2.79-8.87,20.67,20.67,0,0,0-9.22-8.45,29.09,29.09,0,0,0,4.67-4.87,19.16,19.16,0,0,0,3.1-6.17,15.54,15.54,0,0,0,.41-6.62,14.89,14.89,0,0,1-1.9,6,16.82,16.82,0,0,1-4,4.57,24.78,24.78,0,0,1-5.12,3.16,28.81,28.81,0,0,1-2.77,1.14c-.47.16-.95.32-1.42.45a11.53,11.53,0,0,1-1.32.33,4.94,4.94,0,0,0-.52.13h-.52a9,9,0,0,0-1,.06l-.91.07-1.82.14-3.46.27a28.36,28.36,0,0,0,1.75-3.37,35.71,35.71,0,0,0,2.32-7.5l.32-1.92c.11-.63.14-1.28.22-1.91.16-1.28.16-2.56.21-3.83s-.06-2.54-.09-3.81-.24-2.51-.36-3.76l-.22,3.76c-.16,1.24-.26,2.48-.48,3.71s-.43,2.44-.77,3.63c-.17.59-.29,1.19-.49,1.78l-.58,1.74a33.21,33.21,0,0,1-3.15,6.48,22.81,22.81,0,0,1-2.08,2.82c-.37.45-.77.86-1.16,1.25-.21.19-.4.39-.61.56a5.5,5.5,0,0,1-.54.43,2.66,2.66,0,0,0-.44.33.73.73,0,0,0-.08.09l-.31,0-.81,0-.81,0-.8-.05a9.83,9.83,0,0,1-1.62-.2,14.87,14.87,0,0,1-6.1-2.58A16.22,16.22,0,0,1,254,142.5a17.4,17.4,0,0,0,5.21,13.64,17.92,17.92,0,0,0,6.67,4.12,12.88,12.88,0,0,0,1.93.55l1,.22,1,.13,1,.11.91.07,1.82.15,7.27.56,1.82.14.91.07c.3,0,.62,0,.85.09a12.52,12.52,0,0,1,2.86.66,12.69,12.69,0,0,1,7.78,7.5,11.84,11.84,0,0,1,.71,5.11l-.54,7.13-1.13,14.54-.57,7.28-.07.9c0,.32-.05.56-.05,1.05a25.65,25.65,0,0,0,.05,2.63,24.19,24.19,0,0,0,1,5.24,25.43,25.43,0,0,0,1,2.8l-27.13.73-4.22.12-2.11.06h-.53l-.4,0-.72,0a9.28,9.28,0,0,1-5.46-1.79,10,10,0,0,1-3.59-5,11.74,11.74,0,0,1-.38-1.58c0-.14,0-.27,0-.41l0-.21,0-.32c0-.43-.09-.85-.15-1.27a16.12,16.12,0,0,0-1.58-4.83,15.89,15.89,0,0,0-6.85-6.89,15.48,15.48,0,0,0-4.53-1.5,14.32,14.32,0,0,0-2.35-.19c-.39,0-.78,0-1.16,0l-1.06.08-16.88,1.31,16.88,1.3,1.06.09c.32,0,.63.06.94.12a10.75,10.75,0,0,1,1.82.44,11.69,11.69,0,0,1,3.26,1.67,11.38,11.38,0,0,1,4.08,5.62,10.74,10.74,0,0,1,.52,3.31c0,.28,0,.55,0,.83l0,.21v.32c0,.21,0,.43,0,.64a16.17,16.17,0,0,0,.19,2.6,17.12,17.12,0,0,0,4.71,9.41c.12.13.26.25.39.37-1.53,0-.73,0,0,0h-.07v.24l0,.25,0,.51a5.93,5.93,0,0,1,0,1,16.3,16.3,0,0,1-.15,2.08,16.52,16.52,0,0,1-1.29,4.06,17.18,17.18,0,0,1-2.52,3.66,16.48,16.48,0,0,1-3.58,2.87A16.74,16.74,0,0,1,238.1,239l-1.2.25c-.16,0-.5.07-.76.11l-.81.1-3.27.41L219,241.51l-6.54.82-1.66.2c-.26-.28-.52-.6-.77-.92a20.07,20.07,0,0,1-1.42-2.12,26.28,26.28,0,0,1-2.15-4.83,31.33,31.33,0,0,1-1.18-5.34c-.15-.91-.16-1.84-.25-2.77s0-1.87,0-2.82c-.22.91-.47,1.83-.66,2.76s-.37,1.88-.45,2.84a33.34,33.34,0,0,0-.17,5.84,29.79,29.79,0,0,0,1,5.92c.16.59.36,1.17.57,1.75a20,20,0,0,1-9.79-3.41c-1.57-1.08-3.26-2.66-4.93-4.05l-5-4.28-10-8.55,8.45,10.1,4.23,5,2.11,2.53a34,34,0,0,0,2.35,2.59,25.5,25.5,0,0,0,13,6.63,27.56,27.56,0,0,0,3.76.43l3.31.14,6.58.29,13.16.57,3.29.14.82,0c.3,0,.51,0,.88,0l2.08-.05a29.2,29.2,0,0,0,8.21-1.68,30.13,30.13,0,0,0,7.53-4,31.93,31.93,0,0,0,6.16-6.13,33,33,0,0,0,4.22-7.8c.37-1.12.74-2.26,1-3.42l1.44.12,46.35,3.87c.75.13,1.51.21,2.27.29l.7.06c.21,0,.27,0,.41.06l.71.11c1,.16,1.91.26,2.84.44l2.76.71a36.65,36.65,0,0,1,10,4.82,33,33,0,0,1,7.69,7.55,30.53,30.53,0,0,1,4.76,9.24,33.47,33.47,0,0,1,1.51,9.9c-.07.83-.13,1.66-.17,2.47l0,.62-.07.9-.14,1.82-.56,7.27s.82,41.64-13.6,53.75l-11.33.87-9,.69c-1.94.13-1.91.21-2.56.22a4.32,4.32,0,0,1-1.64-.3,5.38,5.38,0,0,1-2.76-2.38,5.9,5.9,0,0,1-.69-1.9l-.35-4.44-.7-9-.31-4a6.29,6.29,0,0,0,.74-.22,19.61,19.61,0,0,0,2.36-.87l1.14-.52,1.08-.61a21,21,0,0,0,10.35-15.37c.06-.77.15-1.54.16-2.31l0-1.14c0-.39,0-.77-.06-1.07l-.07-.8H320l4-.29,1-.07,1.1-.12a16.19,16.19,0,0,0,2.17-.39,18,18,0,0,0,7.61-3.94,17.14,17.14,0,0,0,4.83-6.76,17.18,17.18,0,0,0,1.18-7.95,16.64,16.64,0,0,1-4.5,10.5,16.28,16.28,0,0,1-2.9,2.36,14.93,14.93,0,0,1-6.83,2.37,11.63,11.63,0,0,1-1.77.05l-.89,0-1-.07-4-.29h-.33l-.17,0-2.63-29.14-2.78,30.71-.35,3.83a7.66,7.66,0,0,1-.11.86l-.12.77c-.11.51-.27,1-.39,1.49a13.18,13.18,0,0,1-3.09,5,11.81,11.81,0,0,1-4.75,3l-.64.22-.67.15a8.44,8.44,0,0,1-1.32.21c-.43.08-.89,0-1.32.06-.22,0-.44,0-.66-.05h0a18.29,18.29,0,0,0-1.41-1.75,18.82,18.82,0,0,0-4.89-3.74,18.29,18.29,0,0,0-5.75-1.91,18.83,18.83,0,0,0-3-.18h-.73l-.38,0a5.14,5.14,0,0,1-.78,0,9.59,9.59,0,0,1-5.95-2.23,10.43,10.43,0,0,1-3.48-5.85l-.13-.89a3.25,3.25,0,0,1-.06-.51l0-.56-.18-2.25-.34-4.5-.7-9-1.39-18-1.39,18-.69,9-.35,4.5-.17,2.25,0,.56a5.59,5.59,0,0,0,0,.62l0,1.35a16.68,16.68,0,0,0,4.05,10.14,17.19,17.19,0,0,0,9.86,5.63,11.94,11.94,0,0,0,1.46.21l.74.08.4.06a10.16,10.16,0,0,1,1.47.35,8.66,8.66,0,0,1,4.49,3.47,8.35,8.35,0,0,1,1,2.5,7,7,0,0,1,.15,2.58l-.33,4.36-.69,9-.35,4.56a21,21,0,0,0,.89,6.92,21.63,21.63,0,0,0,15,14.48,32,32,0,0,0,6.39.9l9,.7h0A11.64,11.64,0,0,1,333,363.87V536.38H412.8a102.94,102.94,0,0,1-16.86-40.55l7.21-.72,8.76-.86.54-.06h.17l.08,0a1.46,1.46,0,0,0,.32-.1,6.37,6.37,0,0,1,.65-.09,4.13,4.13,0,0,1,1.39.09,5.41,5.41,0,0,1,2.71,1.63,6.51,6.51,0,0,1,1,1.46,5.4,5.4,0,0,1,.31.88l.07.23a.47.47,0,0,1,0,.14l0,.27.11,1.1.43,4.37.22,2.22a25.51,25.51,0,0,0,.48,3.27,22.6,22.6,0,0,0,6.07,11.28,22,22,0,0,0,10.77,6,22.29,22.29,0,0,0,6,.46c.33,0,.49,0,.75-.07a3.42,3.42,0,0,1,.71,0c.24,0,.48,0,.73,0l.72.07a10.87,10.87,0,0,1,7.58,4.92,11.93,11.93,0,0,1,.8,1.45,13.6,13.6,0,0,1,.57,1.59,6.9,6.9,0,0,1,.27,1.13h6.63a16,16,0,0,0,0-2.19,18.77,18.77,0,0,0-.37-2.68,18.38,18.38,0,0,0-.79-2.62,18.77,18.77,0,0,0-2.67-4.86,20,20,0,0,0-9.11-6.75,22.11,22.11,0,0,0-5.73-1.25,10.47,10.47,0,0,1-2.61-.82A8.89,8.89,0,0,1,437,511.8a7.74,7.74,0,0,1-1.11-4.42,9.64,9.64,0,0,1,.12-1.08l.22-2.17.43-4.37.11-1.1,0-.27V498l0-.86a25.4,25.4,0,0,0-18-24.25,28.42,28.42,0,0,0-3.65-.85l-1.87-.22-1.39-.13-8.76-.87-8.87-.88V337.8a4.88,4.88,0,0,1,4.57-4.94h0l3.39-.2,1.7-.09,2.16-.2a47.49,47.49,0,0,0,27-11.15l16.08-3.69,5.29-1.22a22.71,22.71,0,0,0,6.93-3,23,23,0,0,0,5.53-5,22.67,22.67,0,0,0,3.57-6.45c.22-.57.36-1.17.54-1.75l.13-.49.09-.38a10.82,10.82,0,0,1,.53-1.44,9.35,9.35,0,0,1,1.76-2.59,9.94,9.94,0,0,1,5.75-2.91l.42-.06.22,0,.33,0,1.29-.07,2.59-.14,5.17-.27,10.35-.55,2.72-.15a20.67,20.67,0,0,0,3.23-.5,19.4,19.4,0,0,0,5.95-2.53,18.65,18.65,0,0,0,2.56-1.93c.4-.36.78-.73,1.15-1.12s.6-.66.9-1l3.47-3.85,6.93-7.71,3.46-3.85a13.69,13.69,0,0,1,7.58-4.49,14.92,14.92,0,0,1,2.3-.28l2.58-.14,10.35-.55,20.7-1.1Z"/><path class="cls-3" d="M358.26,481.14l-.88,0a46.24,46.24,0,0,0-91.61,9q0,2.25.21,4.44a21.53,21.53,0,0,0-4.85-.56,21.19,21.19,0,0,0,0,42.37h97.13a27.62,27.62,0,0,0,0-55.24Z"/><path class="cls-4" d="M360.28,481.22c-3.15,9.4-13.23,27.55-44.54,31.49C273.06,518.09,266,494.57,266,494.57a21.53,21.53,0,0,0-4.85-.56,21.19,21.19,0,0,0,0,42.37h97.13a27.62,27.62,0,0,0,2-55.16Z"/><path class="cls-5" d="M335.24,451.77c1,.05,1.88.08,2.72.09a46.22,46.22,0,0,0-72,34.5C266.58,485.2,287,449.3,335.24,451.77Z"/><path class="cls-6" d="M358.26,481.14l-.88,0a46.24,46.24,0,0,0-91.61,9q0,2.25.21,4.44a21.53,21.53,0,0,0-4.85-.56,21.19,21.19,0,0,0,0,42.37h97.13a27.62,27.62,0,0,0,0-55.24Z"/><ellipse class="cls-3" cx="307.61" cy="511.01" rx="19.63" ry="33.99" transform="translate(-271.24 367.18) rotate(-45)"/><path class="cls-4" d="M321.49,497.13a39,39,0,0,0-7-5.57,39.32,39.32,0,0,1,3.84,29.66,39.26,39.26,0,0,1-30.87-4.59A39.22,39.22,0,0,0,331.64,535,39.21,39.21,0,0,0,321.49,497.13Z"/><ellipse class="cls-6" cx="307.61" cy="511.01" rx="19.63" ry="33.99" transform="translate(-271.24 367.18) rotate(-45)"/><line class="cls-6" x1="331.64" y1="535.04" x2="307.61" y2="511.01"/><ellipse class="cls-3" cx="234.26" cy="287.18" rx="33.99" ry="19.63"/><path class="cls-4" d="M234.26,267.55a39.16,39.16,0,0,0-8.92,1A39.31,39.31,0,0,1,249,286.84,39.26,39.26,0,0,1,224,305.43a39.22,39.22,0,0,0,44.29-18.25A39.24,39.24,0,0,0,234.26,267.55Z"/><ellipse class="cls-6" cx="234.26" cy="287.18" rx="33.99" ry="19.63"/><line class="cls-6" x1="268.25" y1="287.18" x2="234.26" y2="287.18"/><ellipse class="cls-3" cx="258.66" cy="106.24" rx="19.63" ry="33.99" transform="translate(0.64 214.02) rotate(-45)"/><path class="cls-4" d="M272.54,92.36a39.45,39.45,0,0,0-7-5.57,39.32,39.32,0,0,1,3.84,29.66,39.3,39.3,0,0,1-30.87-4.58,39.26,39.26,0,0,0,44.22,18.41A39.23,39.23,0,0,0,272.54,92.36Z"/><ellipse class="cls-6" cx="258.66" cy="106.24" rx="19.63" ry="33.99" transform="translate(0.64 214.02) rotate(-45)"/><line class="cls-6" x1="282.69" y1="130.28" x2="258.66" y2="106.24"/><ellipse class="cls-3" cx="246.64" cy="225.71" rx="19.63" ry="33.99" transform="translate(-87.36 240.51) rotate(-45)"/><path class="cls-4" d="M260.52,211.83a39,39,0,0,0-7-5.57,39.37,39.37,0,0,1,3.85,29.66,39.32,39.32,0,0,1-30.88-4.59,39.27,39.27,0,0,0,44.23,18.41A39.24,39.24,0,0,0,260.52,211.83Z"/><ellipse class="cls-6" cx="246.64" cy="225.71" rx="19.63" ry="33.99" transform="translate(-87.36 240.51) rotate(-45)"/><line class="cls-6" x1="270.68" y1="249.74" x2="246.64" y2="225.71"/><ellipse class="cls-3" cx="149.75" cy="197.75" rx="19.63" ry="33.99" transform="translate(-95.97 163.81) rotate(-45)"/><path class="cls-4" d="M163.63,183.87a39.45,39.45,0,0,0-7-5.57A39.32,39.32,0,0,1,160.43,208a39.3,39.3,0,0,1-30.87-4.58,39.25,39.25,0,0,0,44.22,18.4A39.21,39.21,0,0,0,163.63,183.87Z"/><ellipse class="cls-6" cx="149.75" cy="197.75" rx="19.63" ry="33.99" transform="translate(-95.97 163.81) rotate(-45)"/><line class="cls-6" x1="173.78" y1="221.78" x2="149.75" y2="197.75"/><ellipse class="cls-3" cx="180.97" cy="197.75" rx="19.63" ry="33.99" transform="translate(-86.83 185.88) rotate(-45)"/><path class="cls-4" d="M194.85,183.87a39.45,39.45,0,0,0-7-5.57A39.32,39.32,0,0,1,191.65,208a39.3,39.3,0,0,1-30.87-4.58A39.25,39.25,0,0,0,205,221.78,39.21,39.21,0,0,0,194.85,183.87Z"/><ellipse class="cls-6" cx="180.97" cy="197.75" rx="19.63" ry="33.99" transform="translate(-86.83 185.88) rotate(-45)"/><line class="cls-6" x1="205" y1="221.78" x2="180.97" y2="197.75"/><ellipse class="cls-3" cx="230.37" cy="117.12" rx="19.63" ry="33.99" transform="translate(-15.34 197.2) rotate(-45)"/><path class="cls-4" d="M244.25,103.24a39.45,39.45,0,0,0-7-5.57,39.39,39.39,0,0,1,3.85,29.67,39.37,39.37,0,0,1-30.88-4.59,39.27,39.27,0,0,0,44.23,18.41A39.26,39.26,0,0,0,244.25,103.24Z"/><ellipse class="cls-6" cx="230.37" cy="117.12" rx="19.63" ry="33.99" transform="translate(-15.34 197.2) rotate(-45)"/><line class="cls-6" x1="254.41" y1="141.16" x2="230.37" y2="117.12"/><ellipse class="cls-3" cx="215.55" cy="161.28" rx="19.63" ry="33.99"/><path class="cls-4" d="M235.18,161.28a39.16,39.16,0,0,0-1-8.92,39.36,39.36,0,0,1-18.25,23.7A39.34,39.34,0,0,1,197.3,151a39.28,39.28,0,0,0,18.25,44.29A39.21,39.21,0,0,0,235.18,161.28Z"/><ellipse class="cls-6" cx="215.55" cy="161.28" rx="19.63" ry="33.99"/><line class="cls-6" x1="215.55" y1="195.27" x2="215.55" y2="161.28"/><ellipse class="cls-3" cx="452.67" cy="171.47" rx="19.63" ry="33.99"/><path class="cls-4" d="M472.3,171.47a39.16,39.16,0,0,0-1-8.92A39.36,39.36,0,0,1,453,186.25a39.34,39.34,0,0,1-18.59-25.08,39.28,39.28,0,0,0,18.25,44.29A39.23,39.23,0,0,0,472.3,171.47Z"/><ellipse class="cls-6" cx="452.67" cy="171.47" rx="19.63" ry="33.99"/><line class="cls-6" x1="452.67" y1="205.46" x2="452.67" y2="171.47"/><ellipse class="cls-3" cx="399.97" cy="97.62" rx="19.63" ry="33.99"/><path class="cls-4" d="M419.6,97.62a39.16,39.16,0,0,0-1-8.92,39.34,39.34,0,0,1-18.25,23.69,39.3,39.3,0,0,1-18.59-25.07A39.28,39.28,0,0,0,400,131.61,39.24,39.24,0,0,0,419.6,97.62Z"/><ellipse class="cls-6" cx="399.97" cy="97.62" rx="19.63" ry="33.99"/><line class="cls-6" x1="399.97" y1="131.61" x2="399.97" y2="97.62"/><ellipse class="cls-3" cx="302.32" cy="106.24" rx="19.63" ry="33.99"/><path class="cls-4" d="M322,106.24a39.16,39.16,0,0,0-1-8.92A39.36,39.36,0,0,1,302.66,121a39.31,39.31,0,0,1-18.59-25.08,39.22,39.22,0,0,0,18.25,44.29A39.23,39.23,0,0,0,322,106.24Z"/><ellipse class="cls-6" cx="302.32" cy="106.24" rx="19.63" ry="33.99"/><line class="cls-6" x1="302.32" y1="140.23" x2="302.32" y2="106.24"/><ellipse class="cls-3" cx="337.17" cy="97.67" rx="19.63" ry="33.99"/><path class="cls-4" d="M356.79,97.67a39.64,39.64,0,0,0-1-8.91,39.35,39.35,0,0,1-18.26,23.69,39.32,39.32,0,0,1-18.59-25.07,39.27,39.27,0,0,0,18.26,44.29A39.24,39.24,0,0,0,356.79,97.67Z"/><ellipse class="cls-6" cx="337.17" cy="97.67" rx="19.63" ry="33.99"/><line class="cls-6" x1="337.17" y1="131.67" x2="337.17" y2="97.67"/><ellipse class="cls-3" cx="315.75" cy="225.67" rx="19.63" ry="33.99"/><path class="cls-4" d="M335.38,225.67a39.16,39.16,0,0,0-1-8.92,39.36,39.36,0,0,1-18.25,23.7,39.34,39.34,0,0,1-18.59-25.08,39.28,39.28,0,0,0,18.25,44.29A39.23,39.23,0,0,0,335.38,225.67Z"/><ellipse class="cls-6" cx="315.75" cy="225.67" rx="19.63" ry="33.99"/><line class="cls-6" x1="315.75" y1="259.66" x2="315.75" y2="225.67"/><ellipse class="cls-3" cx="373.12" cy="171.47" rx="19.63" ry="33.99" transform="translate(-11.96 314.06) rotate(-45)"/><path class="cls-4" d="M387,157.59a39.45,39.45,0,0,0-7-5.57,39.37,39.37,0,0,1,3.85,29.66,39.33,39.33,0,0,1-30.88-4.58,39.25,39.25,0,0,0,44.23,18.4A39.24,39.24,0,0,0,387,157.59Z"/><ellipse class="cls-6" cx="373.12" cy="171.47" rx="19.63" ry="33.99" transform="translate(-11.96 314.06) rotate(-45)"/><line class="cls-6" x1="397.16" y1="195.5" x2="373.12" y2="171.47"/><ellipse class="cls-3" cx="422.28" cy="167.3" rx="19.63" ry="33.99"/><path class="cls-4" d="M441.91,167.3a39.16,39.16,0,0,0-1-8.92,39.36,39.36,0,0,1-18.25,23.7A39.34,39.34,0,0,1,404,157a39.28,39.28,0,0,0,18.25,44.29A39.23,39.23,0,0,0,441.91,167.3Z"/><ellipse class="cls-6" cx="422.28" cy="167.3" rx="19.63" ry="33.99"/><line class="cls-6" x1="422.28" y1="201.29" x2="422.28" y2="167.3"/><ellipse class="cls-3" cx="542.7" cy="171.47" rx="33.99" ry="19.63" transform="translate(37.71 433.97) rotate(-45)"/><path class="cls-4" d="M556.58,185.35a39.45,39.45,0,0,0,5.57-7,39.32,39.32,0,0,1-29.66,3.84,39.3,39.3,0,0,1,4.58-30.87,39.25,39.25,0,0,0-18.4,44.22A39.21,39.21,0,0,0,556.58,185.35Z"/><ellipse class="cls-6" cx="542.7" cy="171.47" rx="33.99" ry="19.63" transform="translate(37.71 433.97) rotate(-45)"/><line class="cls-6" x1="518.67" y1="195.5" x2="542.7" y2="171.47"/><ellipse class="cls-3" cx="366.32" cy="246.84" rx="33.99" ry="19.63" transform="translate(-67.25 331.32) rotate(-45)"/><path class="cls-4" d="M380.2,260.72a39.23,39.23,0,0,0,5.56-7,39.36,39.36,0,0,1-29.66,3.84,39.33,39.33,0,0,1,4.59-30.88,39.31,39.31,0,0,0-18.41,44.23A39.24,39.24,0,0,0,380.2,260.72Z"/><ellipse class="cls-6" cx="366.32" cy="246.84" rx="33.99" ry="19.63" transform="translate(-67.25 331.32) rotate(-45)"/><line class="cls-6" x1="366.32" y1="246.84" x2="342.28" y2="270.88"/><ellipse class="cls-3" cx="607.52" cy="261.26" rx="33.99" ry="19.63"/><path class="cls-4" d="M607.52,280.89a39.16,39.16,0,0,0,8.92-1,39.34,39.34,0,0,1-23.69-18.25A39.26,39.26,0,0,1,617.82,243a39.22,39.22,0,0,0-44.29,18.25A39.24,39.24,0,0,0,607.52,280.89Z"/><ellipse class="cls-6" cx="607.52" cy="261.26" rx="33.99" ry="19.63"/><line class="cls-6" x1="573.53" y1="261.26" x2="607.52" y2="261.26"/><ellipse class="cls-3" cx="532.23" cy="223.12" rx="33.99" ry="19.63" transform="translate(-1.88 441.69) rotate(-45)"/><path class="cls-4" d="M546.1,237a39,39,0,0,0,5.57-7A39.32,39.32,0,0,1,522,233.8a39.3,39.3,0,0,1,4.59-30.87,39.26,39.26,0,0,0-18.41,44.22A39.21,39.21,0,0,0,546.1,237Z"/><ellipse class="cls-6" cx="532.23" cy="223.12" rx="33.99" ry="19.63" transform="translate(-1.88 441.69) rotate(-45)"/><line class="cls-6" x1="508.19" y1="247.15" x2="532.23" y2="223.12"/><ellipse class="cls-3" cx="506.86" cy="178.48" rx="33.99" ry="19.63" transform="translate(22.25 410.68) rotate(-45)"/><path class="cls-4" d="M520.74,192.36a39.45,39.45,0,0,0,5.57-7,39.39,39.39,0,0,1-29.67,3.85,39.37,39.37,0,0,1,4.59-30.88,39.27,39.27,0,0,0-18.41,44.23A39.26,39.26,0,0,0,520.74,192.36Z"/><ellipse class="cls-6" cx="506.86" cy="178.48" rx="33.99" ry="19.63" transform="translate(22.25 410.68) rotate(-45)"/><line class="cls-6" x1="482.82" y1="202.52" x2="506.86" y2="178.48"/><ellipse class="cls-3" cx="331.87" cy="507.1" rx="16" ry="27.71" transform="translate(-59.33 44.22) rotate(-7)"/><path class="cls-4" d="M347.75,505.15a31.93,31.93,0,0,0-2.67-9.4,32,32,0,0,1-12.67,23.52,32.07,32.07,0,0,1-16.59-16.15,32,32,0,0,0,19.42,31.48A32,32,0,0,0,347.75,505.15Z"/><ellipse class="cls-6" cx="331.87" cy="507.1" rx="16" ry="27.71" transform="translate(-59.33 44.22) rotate(-7)"/><line class="cls-6" x1="335.24" y1="534.6" x2="331.87" y2="507.1"/></g></svg>