<svg id="Layer_1" data-name="Layer 1" xmlns="http://www.w3.org/2000/svg" viewBox="0 0 800 600"><defs><style>.cls-1{fill:#ffebd6;}.cls-12,.cls-2{fill:#fff;}.cls-13,.cls-14,.cls-2,.cls-9{stroke:#70004b;}.cls-13,.cls-14,.cls-19,.cls-2,.cls-4,.cls-9{stroke-linecap:round;stroke-linejoin:round;}.cls-13,.cls-14,.cls-2,.cls-4,.cls-9{stroke-width:4px;}.cls-3{fill:#cce6ff;}.cls-19,.cls-4,.cls-9{fill:none;}.cls-4{stroke:#ccc;}.cls-5{fill:#f2c698;}.cls-6{fill:#fabbbb;}.cls-7{fill:#23d5f2;}.cls-8{fill:#14b5d0;}.cls-10{fill:#8c73f0;}.cls-11{fill:#735dd0;}.cls-13,.cls-15{fill:gray;}.cls-14{fill:#f2f2f2;}.cls-16{fill:#4d4d4d;}.cls-17{fill:#999;}.cls-18{fill:#e6e6e6;}.cls-19{stroke:#4d4d4d;stroke-width:6px;}</style></defs><title>Save time by  gathering team feedback earlier copy</title><circle class="cls-1" cx="374.42" cy="142.44" r="35.22"/><path class="cls-1" d="M175.39,414c28.77,9.3,60.35,20.93,61.88,27.58l.09.38a62.7,62.7,0,0,0,79,46.09l20.21-6a57.67,57.67,0,0,1,71.75,39h0A22.94,22.94,0,0,0,440.71,535l40.86-20.8A145.6,145.6,0,0,0,561,378l-1.86-42.27a8.81,8.81,0,0,1,8.63-9.21h.56a37.07,37.07,0,0,0,36.34-37.16v-1.24A43.29,43.29,0,0,0,559.25,245h0a27.23,27.23,0,0,1-25.42-14.49l-17.67-33.46a33.1,33.1,0,0,0-53.84-6.73L459.86,193a45.6,45.6,0,0,1-68.42-.84h0c-21.8-25.36-63.3-13.32-68.15,19.76l-.45,3.09a34.75,34.75,0,0,0,19.44,36.41l1.22.58c21.23,10.12,15.46,41.67-7.88,43.61l-57.11,4.76c-.8.06-1.6.09-2.4.07l-82.72-1.79a57.38,57.38,0,0,0-58.1,49.66l-.17,1.28A59.13,59.13,0,0,0,175.39,414Zm325.17-99.25a22.66,22.66,0,1,1,32.05,0A22.66,22.66,0,0,1,500.56,314.79ZM274.29,456.21a22.66,22.66,0,1,1,32,0A22.66,22.66,0,0,1,274.29,456.21Z"/><circle class="cls-1" cx="358.92" cy="524.53" r="29.85"/><circle class="cls-1" cx="564.75" cy="197.57" r="29.85"/><path class="cls-2" d="M287.27,115.61H545.5a9,9,0,0,1,9,9V516.91a9,9,0,0,1-9,9H287.27a0,0,0,0,1,0,0V115.61A0,0,0,0,1,287.27,115.61Z" transform="translate(741.66 -100.13) rotate(90)"/><rect class="cls-3" x="245.73" y="217.14" width="19.28" height="19.28" rx="9.64"/><rect class="cls-3" x="319.77" y="217.14" width="19.28" height="19.28" rx="9.64"/><rect class="cls-3" x="393.82" y="217.14" width="19.28" height="19.28" rx="9.64"/><rect class="cls-3" x="467.86" y="217.14" width="19.28" height="19.28" rx="9.64"/><rect class="cls-3" x="541.9" y="217.14" width="19.28" height="19.28" rx="9.64"/><rect class="cls-3" x="245.73" y="269.15" width="19.28" height="19.28" rx="9.64"/><rect class="cls-3" x="319.77" y="269.15" width="19.28" height="19.28" rx="9.64"/><rect class="cls-3" x="467.86" y="269.15" width="19.28" height="19.28" rx="9.64"/><rect class="cls-3" x="541.9" y="269.15" width="19.28" height="19.28" rx="9.64"/><rect class="cls-3" x="245.73" y="321.16" width="19.28" height="19.28" rx="9.64"/><rect class="cls-3" x="319.77" y="321.16" width="19.28" height="19.28" rx="9.64"/><rect class="cls-3" x="393.82" y="321.16" width="19.28" height="19.28" rx="9.64"/><rect class="cls-3" x="467.86" y="321.16" width="19.28" height="19.28" rx="9.64"/><rect class="cls-3" x="541.9" y="321.16" width="19.28" height="19.28" rx="9.64"/><rect class="cls-3" x="245.73" y="373.18" width="19.28" height="19.28" rx="9.64"/><rect class="cls-3" x="319.77" y="373.18" width="19.28" height="19.28" rx="9.64"/><rect class="cls-3" x="393.82" y="373.18" width="19.28" height="19.28" rx="9.64"/><rect class="cls-3" x="467.86" y="373.18" width="19.28" height="19.28" rx="9.64"/><rect class="cls-3" x="541.9" y="373.18" width="19.28" height="19.28" rx="9.64"/><rect class="cls-4" x="235.73" y="207.14" width="74.07" height="52.01"/><rect class="cls-4" x="309.8" y="207.14" width="74.07" height="52.01"/><rect class="cls-4" x="383.87" y="207.14" width="74.07" height="52.01"/><rect class="cls-4" x="457.78" y="207.14" width="74.07" height="52.01"/><rect class="cls-4" x="531.85" y="207.14" width="74.07" height="52.01"/><rect class="cls-4" x="235.73" y="259.15" width="74.07" height="52.01"/><rect class="cls-4" x="309.8" y="259.15" width="74.07" height="52.01"/><rect class="cls-4" x="383.87" y="259.15" width="74.07" height="52.01"/><rect class="cls-4" x="457.78" y="259.15" width="74.07" height="52.01"/><rect class="cls-4" x="531.85" y="259.15" width="74.07" height="52.01"/><rect class="cls-5" x="343.09" y="397.58" width="222.13" height="10.45" rx="5.23"/><rect class="cls-6" x="420.51" y="241.7" width="168.63" height="10.45" rx="5.23"/><rect class="cls-4" x="235.73" y="311.16" width="74.07" height="52.01"/><rect class="cls-4" x="309.8" y="311.16" width="74.07" height="52.01"/><rect class="cls-4" x="383.87" y="311.16" width="74.07" height="52.01"/><rect class="cls-4" x="457.78" y="311.16" width="74.07" height="52.01"/><rect class="cls-4" x="531.85" y="311.16" width="74.07" height="52.01"/><rect class="cls-4" x="235.73" y="363.18" width="74.07" height="52.01"/><rect class="cls-4" x="309.8" y="363.18" width="74.07" height="52.01"/><rect class="cls-4" x="383.87" y="363.18" width="74.07" height="52.01"/><rect class="cls-4" x="457.78" y="363.18" width="74.07" height="52.01"/><rect class="cls-4" x="531.85" y="363.18" width="74.07" height="52.01"/><path class="cls-7" d="M386.76-52.15H446a9,9,0,0,1,9,9V349.14a9,9,0,0,1-9,9H386.76a0,0,0,0,1,0,0V-52.15a0,0,0,0,1,0,0Z" transform="translate(267.89 573.9) rotate(-90)"/><rect class="cls-8" x="215.73" y="170.74" width="410.32" height="16.4"/><path class="cls-9" d="M386.76-52.15H446a9,9,0,0,1,9,9V349.14a9,9,0,0,1-9,9H386.76a0,0,0,0,1,0,0V-52.15a0,0,0,0,1,0,0Z" transform="translate(267.89 573.9) rotate(-90)"/><rect class="cls-10" x="384.82" y="238.2" width="72.01" height="93.91" transform="translate(705.98 -135.67) rotate(90)"/><polygon class="cls-11" points="453.33 249.15 453.33 308.43 373.87 308.43 373.87 321.16 467.78 321.16 467.78 249.15 453.33 249.15"/><rect class="cls-9" x="384.82" y="238.2" width="72.01" height="93.91" transform="translate(705.98 -135.67) rotate(90)"/><circle class="cls-12" cx="396.25" cy="271.54" r="9.46"/><circle class="cls-13" cx="272.76" cy="142.48" r="12.37"/><rect class="cls-14" x="264.98" y="95.26" width="15.55" height="47.23" rx="7.77"/><circle class="cls-13" cx="346.82" cy="142.48" r="12.37"/><rect class="cls-14" x="339.05" y="95.26" width="15.55" height="47.23" rx="7.77"/><circle class="cls-13" cx="420.89" cy="142.48" r="12.37"/><rect class="cls-14" x="413.12" y="95.26" width="15.55" height="47.23" rx="7.77"/><circle class="cls-13" cx="494.96" cy="142.48" r="12.37"/><rect class="cls-14" x="487.19" y="95.26" width="15.55" height="47.23" rx="7.77"/><circle class="cls-13" cx="569.03" cy="142.48" r="12.37"/><rect class="cls-14" x="561.25" y="95.26" width="15.55" height="47.23" rx="7.77"/><circle class="cls-15" cx="255.37" cy="423.32" r="81.42"/><path class="cls-16" d="M255.37,496.36a81.43,81.43,0,0,1-81.32-77.23c-.07,1.39-.1,2.78-.1,4.19a81.42,81.42,0,0,0,162.84,0c0-1.41,0-2.8-.1-4.19A81.43,81.43,0,0,1,255.37,496.36Z"/><path class="cls-17" d="M255.37,350.27a81.44,81.44,0,0,0-81.32,77.24c-.07-1.39-.1-2.79-.1-4.19a81.42,81.42,0,1,1,162.84,0c0,1.4,0,2.8-.1,4.19A81.44,81.44,0,0,0,255.37,350.27Z"/><circle class="cls-18" cx="255.37" cy="423.32" r="70.19"/><circle class="cls-12" cx="255.37" cy="423.32" r="65.04"/><circle class="cls-16" cx="255.37" cy="423.32" r="6.38"/><circle class="cls-9" cx="255.37" cy="423.32" r="81.42"/><line class="cls-4" x1="255.37" y1="372.65" x2="255.37" y2="363.23"/><line class="cls-4" x1="230.04" y1="379.44" x2="225.32" y2="371.28"/><line class="cls-4" x1="211.49" y1="397.99" x2="203.33" y2="393.27"/><line class="cls-4" x1="204.71" y1="423.32" x2="195.28" y2="423.32"/><line class="cls-4" x1="211.49" y1="448.65" x2="203.33" y2="453.36"/><line class="cls-4" x1="230.04" y1="467.2" x2="225.32" y2="475.36"/><line class="cls-4" x1="255.37" y1="473.98" x2="255.37" y2="483.41"/><line class="cls-4" x1="280.7" y1="467.2" x2="285.42" y2="475.36"/><line class="cls-4" x1="299.25" y1="448.65" x2="307.41" y2="453.36"/><line class="cls-4" x1="306.04" y1="423.32" x2="315.46" y2="423.32"/><line class="cls-4" x1="299.25" y1="397.99" x2="307.41" y2="393.27"/><line class="cls-4" x1="280.7" y1="379.44" x2="285.42" y2="371.28"/><polyline class="cls-19" points="255.37 384.7 255.37 423.32 276.32 444.27"/></svg>