<svg viewBox="0 0 800 600" xmlns="http://www.w3.org/2000/svg"><circle cx="404.82" cy="111.64" fill="#eae5fc" r="35.22"/><path d="m205.79 383.24c28.77 9.3 60.35 20.93 61.88 27.57 0 .13.06.25.09.39a62.7 62.7 0 0 0 79 46.09l20.21-6a57.67 57.67 0 0 1 71.75 38.95 22.94 22.94 0 0 0 32.41 13.95l40.87-20.81a145.62 145.62 0 0 0 79.4-136.17l-1.9-42.21a8.82 8.82 0 0 1 8.63-9.21h.57a37.09 37.09 0 0 0 36.3-37.22v-1.24a43.28 43.28 0 0 0 -45.38-43.13 27.26 27.26 0 0 1 -25.43-14.49l-17.66-33.46a33.11 33.11 0 0 0 -53.85-6.74l-2.45 2.72a45.61 45.61 0 0 1 -68.43-.83c-21.8-25.4-63.27-13.32-68.11 19.76l-.45 3.09a34.75 34.75 0 0 0 19.43 36.41l1.22.58c21.23 10.12 15.46 41.67-7.88 43.61l-57.11 4.76c-.8.06-1.6.09-2.4.07l-82.71-1.79a57.38 57.38 0 0 0 -58.1 49.65l-.18 1.28a59.16 59.16 0 0 0 40.28 64.42zm325.21-99.24a22.66 22.66 0 1 1 32 0 22.66 22.66 0 0 1 -32 0zm-226.32 141.41a22.66 22.66 0 1 1 32.05 0 22.66 22.66 0 0 1 -32.05 0z" fill="#eae5fc"/><circle cx="389.32" cy="493.73" fill="#eae5fc" r="29.85"/><circle cx="595.15" cy="166.77" fill="#eae5fc" r="29.85"/><path d="m441.12 355.52a69.34 69.34 0 0 1 20.95-32 84.19 84.19 0 0 0 30.19-64.69 85.06 85.06 0 0 0 -89.34-85c-43.74 1.84-79.47 38.81-80.7 82.55a84.42 84.42 0 0 0 30.18 67.16 66.06 66.06 0 0 1 21.57 32z" fill="#ffe280"/><path d="m483 297.34s-60 49.08-134.31 22.81c1.21 1.14 2.46 2.26 3.74 3.34a66.06 66.06 0 0 1 21.57 32h67.15a69.34 69.34 0 0 1 20.95-32 83.92 83.92 0 0 0 20.9-26.15z" fill="#f7d154"/><g stroke-linecap="round" stroke-linejoin="round" stroke-width="4"><path d="m441.12 355.52a69.34 69.34 0 0 1 20.95-32 84.19 84.19 0 0 0 30.19-64.69 85.06 85.06 0 0 0 -89.34-85c-43.74 1.84-79.47 38.81-80.7 82.55a84.42 84.42 0 0 0 30.18 67.16 66.06 66.06 0 0 1 21.57 32z" fill="none" stroke="#70004b"/><path d="m389.56 355.52-20.2-79.52c6.37 0 6.37 11.55 12.73 11.55s6.36-11.55 12.73-11.55 6.36 11.55 12.72 11.55 6.36-11.55 12.73-11.55 6.36 11.55 12.73 11.55 6.36-11.55 12.72-11.55l-20.19 79.54z" fill="none" stroke="#fff"/><path d="m374 355.52h67.15a0 0 0 0 1 0 0v46.33a13.22 13.22 0 0 1 -13.22 13.22h-40.74a13.22 13.22 0 0 1 -13.19-13.22v-46.33a0 0 0 0 1 0 0z" fill="#808080" stroke="#70004b"/><path d="m425.53 415.07a18 18 0 0 1 -36 0z" fill="#999" stroke="#70004b"/><rect fill="#999" height="12.15" rx="6.08" stroke="#70004b" width="81.16" x="366.96" y="389.57"/><rect fill="#999" height="12.15" rx="6.08" stroke="#70004b" width="81.16" x="366.96" y="366.97"/></g><path d="m339.18 238.87a29.34 29.34 0 0 1 .68-5.3 45 45 0 0 1 1.41-5.15 55.39 55.39 0 0 1 4.36-9.77 60.8 60.8 0 0 1 13.8-16.55c1.42-1.13 2.85-2.26 4.35-3.28.74-.53 1.51-1 2.29-1.49s1.53-1 2.34-1.39a52.69 52.69 0 0 1 4.89-2.4c1.64-.77 3.37-1.32 5.07-1.93a47.55 47.55 0 0 1 21.18-1.93c-6.43 3.08-12.42 5.87-18 9.14-2.78 1.67-5.5 3.34-8.11 5.18l-1.94 1.39c-.65.45-1.29.93-1.91 1.43-1.28.94-2.5 2-3.73 3a136.3 136.3 0 0 0 -13.86 13.37c-4.38 4.87-8.52 10.05-12.82 15.68z" fill="#fef8e7"/><path d="m564.7 193.54a191.6 191.6 0 0 0 -157.47-82.12c-105.84 0-191.94 86.11-191.94 191.94h-14.44a6.56 6.56 0 0 0 -5.68 9.84l31.94 55.32a6.56 6.56 0 0 0 11.36 0l31.94-55.32a6.56 6.56 0 0 0 -5.68-9.84h-14.44c0-86.54 70.4-156.94 156.94-156.94a156.67 156.67 0 0 1 129.28 67.92z" fill="#23d5f2" stroke="#70004b" stroke-linecap="round" stroke-linejoin="round" stroke-width="4"/><path d="m249.74 413.18a191.63 191.63 0 0 0 157.48 82.12c105.84 0 191.94-86.11 191.94-191.94h14.44a6.56 6.56 0 0 0 5.68-9.84l-31.94-55.32a6.56 6.56 0 0 0 -11.36 0l-31.98 55.32a6.56 6.56 0 0 0 5.68 9.84h14.44c0 86.53-70.4 156.94-156.94 156.94a156.66 156.66 0 0 1 -129.28-67.93z" fill="#23d5f2" stroke="#70004b" stroke-linecap="round" stroke-linejoin="round" stroke-width="4"/></svg>