<svg id="Layer_1" data-name="Layer 1" xmlns="http://www.w3.org/2000/svg" viewBox="0 0 800 600"><defs><style>.cls-1{fill:#fef8e7;}.cls-2,.cls-5{fill:#fff;}.cls-3{fill:#e6e6e6;}.cls-4{fill:none;}.cls-10,.cls-11,.cls-12,.cls-13,.cls-14,.cls-15,.cls-16,.cls-17,.cls-18,.cls-4,.cls-5,.cls-6,.cls-7,.cls-8,.cls-9{stroke:#70004b;stroke-linecap:round;stroke-linejoin:round;stroke-width:4px;}.cls-6{fill:#1070ca;}.cls-7{fill:#599ede;}.cls-8{fill:#a1d1ff;}.cls-9{fill:#735dd0;}.cls-10{fill:#c9bff8;}.cls-11{fill:#eae5fc;}.cls-12{fill:#47b881;}.cls-13{fill:#57e09e;}.cls-14{fill:#a4edca;}.cls-15{fill:#4d4d4d;}.cls-16{fill:#ec4c47;}.cls-17{fill:#ff6e6b;}.cls-18{fill:#fabbbb;}</style></defs><title>Feature 5</title><g id="_5" data-name="5"><circle class="cls-1" cx="279.11" cy="171.59" r="35.22"/><path class="cls-1" d="M594.83,148.87l-1-.78a57.39,57.39,0,0,0-76.19,6l-57.23,59.76a20.83,20.83,0,0,1-1.75,1.64l-43.74,37c-17.88,15.13-44.27-3.11-36.41-25.27l.45-1.28a34.73,34.73,0,0,0-12-39.48l-2.51-1.87c-26.81-20-64.68.87-62.16,34.21h0a45.6,45.6,0,0,1-47.79,49l-3.66-.19a33.1,33.1,0,0,0-33.31,42.83l11.17,36.16a27.24,27.24,0,0,1-7.73,28.22h0a43.29,43.29,0,0,0-1.59,62.59l.87.88a37.08,37.08,0,0,0,52,.58l.41-.39a8.81,8.81,0,0,1,12.61.41l28.57,31.2a145.61,145.61,0,0,0,152.43,40.15L509.81,496a23,23,0,0,0,13.06-32.78h0A57.68,57.68,0,0,1,546.06,385l18.53-10a62.7,62.7,0,0,0,23.26-88.44l-.21-.34c-3.62-5.78,10.49-36.33,24.26-63.25A59.15,59.15,0,0,0,594.83,148.87ZM289.12,405.31a22.66,22.66,0,1,1,22.67-22.66A22.66,22.66,0,0,1,289.12,405.31Zm260-60a22.66,22.66,0,1,1,22.67-22.66A22.66,22.66,0,0,1,549.12,345.31Z"/><circle class="cls-1" cx="560.25" cy="430.81" r="29.85"/><circle class="cls-1" cx="183.51" cy="345.15" r="29.85"/><path class="cls-2" d="M519.94,125.92h0a51.85,51.85,0,0,1,51.85,51.85V469.49a0,0,0,0,1,0,0H468.09a0,0,0,0,1,0,0V177.76A51.85,51.85,0,0,1,519.94,125.92Z" transform="translate(1039.88 595.41) rotate(-180)"/><path class="cls-3" d="M519.94,469.49h0a51.85,51.85,0,0,0,51.85-51.85V291.77l-103.7-77.28V417.64A51.84,51.84,0,0,0,519.94,469.49Z"/><path class="cls-4" d="M519.94,125.92h0a51.85,51.85,0,0,1,51.85,51.85V469.49a0,0,0,0,1,0,0H468.09a0,0,0,0,1,0,0V177.76A51.85,51.85,0,0,1,519.94,125.92Z" transform="translate(1039.88 595.41) rotate(-180)"/><circle class="cls-5" cx="519.94" cy="422.24" r="13.3"/><rect class="cls-6" x="486.11" y="297.54" width="67.67" height="61.01" transform="translate(1039.88 656.08) rotate(-180)"/><rect class="cls-7" x="486.11" y="221.71" width="67.67" height="61.01" transform="translate(1039.88 504.42) rotate(-180)"/><rect class="cls-8" x="486.11" y="145.88" width="67.67" height="61.01" transform="translate(1039.88 352.77) rotate(-180)"/><path class="cls-2" d="M460,142.6h0a51.85,51.85,0,0,1,51.85,51.85V486.17a0,0,0,0,1,0,0H408.11a0,0,0,0,1,0,0V194.45A51.85,51.85,0,0,1,460,142.6Z" transform="translate(1015.49 356.67) rotate(150)"/><path class="cls-3" d="M375,270.9,475,444.18a51.84,51.84,0,0,0,70.82,19h0a51.85,51.85,0,0,0,19-70.83L533,337.22Z"/><path class="cls-4" d="M460,142.6h0a51.85,51.85,0,0,1,51.85,51.85V486.17a0,0,0,0,1,0,0H408.11a0,0,0,0,1,0,0V194.45A51.85,51.85,0,0,1,460,142.6Z" transform="translate(1015.49 356.67) rotate(150)"/><circle class="cls-5" cx="522.23" cy="422.24" r="13.3"/><rect class="cls-9" x="441.3" y="310.16" width="67.67" height="61.01" transform="translate(1056.93 398.12) rotate(150)"/><rect class="cls-10" x="403.38" y="244.49" width="67.67" height="61.01" transform="translate(953.35 294.53) rotate(150)"/><rect class="cls-11" x="365.47" y="178.82" width="67.67" height="61.01" transform="translate(849.77 190.95) rotate(150)"/><path class="cls-2" d="M416.06,188.18h0A51.85,51.85,0,0,1,467.91,240V531.76a0,0,0,0,1,0,0H364.21a0,0,0,0,1,0,0V240a51.85,51.85,0,0,1,51.85-51.85Z" transform="translate(935.83 179.64) rotate(120)"/><path class="cls-3" d="M312.46,360h0L494,464.84a51.84,51.84,0,0,0,70.82-19h0a51.84,51.84,0,0,0-19-70.82l-55.77-32.21h0Z"/><path class="cls-4" d="M416.06,188.18h0A51.85,51.85,0,0,1,467.91,240V531.76a0,0,0,0,1,0,0H364.21a0,0,0,0,1,0,0V240a51.85,51.85,0,0,1,51.85-51.85Z" transform="translate(935.83 179.64) rotate(120)"/><circle class="cls-5" cx="523.91" cy="422.24" r="13.3"/><rect class="cls-12" x="408.5" y="344.64" width="67.67" height="61.01" transform="translate(988.38 179.64) rotate(120)"/><rect class="cls-13" x="342.83" y="306.72" width="67.67" height="61.01" transform="matrix(-0.5, 0.87, -0.87, -0.5, 857.04, 179.64)"/><rect class="cls-14" x="277.16" y="268.81" width="67.67" height="61.01" transform="translate(725.7 179.64) rotate(120)"/><path class="cls-2" d="M400,250.45h0a51.85,51.85,0,0,1,51.85,51.85V594a0,0,0,0,1,0,0H348.15a0,0,0,0,1,0,0V302.3A51.85,51.85,0,0,1,400,250.45Z" transform="translate(822.24 22.24) rotate(90)"/><path class="cls-3" d="M571.79,422.24h0a51.62,51.62,0,0,0-5.08-22.39h0s-115.92,69.92-338.5,74.23H519.94A51.85,51.85,0,0,0,571.79,422.24Z"/><path class="cls-4" d="M400,250.45h0a51.85,51.85,0,0,1,51.85,51.85V594a0,0,0,0,1,0,0H348.15a0,0,0,0,1,0,0V302.3A51.85,51.85,0,0,1,400,250.45Z" transform="translate(822.24 22.24) rotate(90)"/><circle class="cls-15" cx="524.53" cy="422.24" r="13.3"/><rect class="cls-16" x="396.5" y="391.73" width="67.67" height="61.01" transform="translate(852.57 -8.1) rotate(90)"/><rect class="cls-17" x="320.68" y="391.73" width="67.67" height="61.01" transform="translate(776.75 67.73) rotate(90)"/><rect class="cls-18" x="244.85" y="391.73" width="67.67" height="61.01" transform="translate(700.92 143.56) rotate(90)"/></g></svg>