<svg viewBox="0 0 1282.42 961.69" xmlns="http://www.w3.org/2000/svg" xmlns:xlink="http://www.w3.org/1999/xlink"><clipPath id="a"><path d="m270 754.58a10.74 10.74 0 0 1 -10.74-10.74v-480.5a6.7 6.7 0 0 1 6.7-6.7h403.28l-62.24 497.94z"/></clipPath><circle cx="836.33" cy="415.17" fill="#cce6ff" r="35.22"/><path d="m813.62 99.45-.78 1a57.36 57.36 0 0 0 6 76.19l59.75 57.23a22.61 22.61 0 0 1 1.65 1.74c3.62 4.29 19.48 23 37 43.75 15.13 17.88-3.1 44.27-25.27 36.41l-1.27-.45a34.75 34.75 0 0 0 -39.49 12l-1.86 2.5c-20 26.82.87 64.68 34.21 62.17a45.6 45.6 0 0 1 49 47.79l-.19 3.66a33.11 33.11 0 0 0 42.84 33.31l36.15-11.17a27.26 27.26 0 0 1 28.23 7.73 43.29 43.29 0 0 0 62.59 1.59l.87-.87a37.07 37.07 0 0 0 .59-52l-.4-.41a8.82 8.82 0 0 1 .41-12.61l31.21-28.57a145.6 145.6 0 0 0 40.14-152.37l-14.18-43.6a22.94 22.94 0 0 0 -32.82-13.06 57.67 57.67 0 0 1 -78.28-23.19l-10-18.54a62.7 62.7 0 0 0 -88.44-23.25l-.33.21c-5.78 3.62-36.34-10.49-63.26-24.26a59.14 59.14 0 0 0 -74.07 17.07zm256.44 305.7a22.67 22.67 0 1 1 -22.67-22.66 22.67 22.67 0 0 1 22.67 22.66zm-60-260a22.67 22.67 0 1 1 -22.67-22.66 22.67 22.67 0 0 1 22.67 22.66z" fill="#cce6ff"/><circle cx="1095.55" cy="134.03" fill="#cce6ff" r="29.85"/><circle cx="1009.89" cy="510.77" fill="#cce6ff" r="29.85"/><circle cx="182.92" cy="533.51" fill="#fef8e7" r="35.22"/><path d="m498.64 510.8-1-.78a57.36 57.36 0 0 0 -76.19 6l-57.23 59.75a22.75 22.75 0 0 1 -1.75 1.65l-43.74 37c-17.88 15.13-44.27-3.1-36.41-25.27l.45-1.27a34.75 34.75 0 0 0 -12-39.49l-2.51-1.86c-26.81-20-64.68.87-62.16 34.21a45.6 45.6 0 0 1 -47.79 49l-3.66-.19a33.11 33.11 0 0 0 -33.31 42.84l11.17 36.15a27.26 27.26 0 0 1 -7.73 28.23 43.29 43.29 0 0 0 -1.6 62.59l.88.88a37.08 37.08 0 0 0 52 .58l.41-.4a8.82 8.82 0 0 1 12.61.41l28.51 31.17a145.6 145.6 0 0 0 152.41 40.14l43.62-14.14a22.94 22.94 0 0 0 13.06-32.78 57.67 57.67 0 0 1 23.19-78.28l18.53-10a62.7 62.7 0 0 0 23.26-88.44l-.21-.33c-3.62-5.78 10.49-36.34 24.26-63.26a59.14 59.14 0 0 0 -17.07-74.11zm-305.71 256.44a22.67 22.67 0 1 1 22.67-22.67 22.67 22.67 0 0 1 -22.67 22.67zm260-60a22.67 22.67 0 1 1 22.67-22.67 22.67 22.67 0 0 1 -22.67 22.67z" fill="#fef8e7"/><circle cx="464.06" cy="792.73" fill="#fef8e7" r="29.85"/><circle cx="87.32" cy="707.07" fill="#fef8e7" r="29.85"/><path d="m239.25 750.54a24 24 0 0 0 24 24h755.85a24 24 0 0 0 24-24v-513.9h-803.85z" fill="#d9faff" stroke="#70004b" stroke-linecap="round" stroke-linejoin="round" stroke-width="4"/><path d="m263.29 754.58a4 4 0 0 1 -4-4v-493.94h763.93v493.9a4 4 0 0 1 -4 4z" fill="#fff"/><rect fill="#23d5f2" height="31.63" rx="15.82" width="723.93" x="279.25" y="276.64"/><path d="m1019.14 187.11h-755.85a24 24 0 0 0 -24 24v25.49h803.93v-25.45a24 24 0 0 0 -24.08-24.04z" fill="#f2f2f2"/><path d="m871.06 187.11h29.03v49.53h-29.03z" fill="#fff"/><path d="m750.29 187.11h109.16v49.53h-109.16z" fill="#fff"/><path d="m705 187.11h16.26v49.53h-16.26z" fill="#fff"/><path d="m1019.14 187.11h-755.85a24 24 0 0 0 -24 24v25.49h803.93v-25.45a24 24 0 0 0 -24.08-24.04z" fill="none" stroke="#70004b" stroke-linecap="round" stroke-linejoin="round" stroke-width="4"/><rect fill="#cce6ff" height="182.71" rx="25.22" width="723.93" x="279.25" y="333.05"/><circle cx="753.4" cy="388.64" fill="#ffe280" r="34.3"/><path d="m664.23 405c.49 0 1 0 1.45.07v-.07a33.1 33.1 0 0 1 65.56-6.45 20.7 20.7 0 1 1 8.57 39.55h-75.58a16.55 16.55 0 0 1 0-33.1z" fill="#fff"/><path d="m845.39 381.37c.49 0 1 0 1.45.07v-.07a33.1 33.1 0 0 1 65.56-6.45 20.7 20.7 0 1 1 8.6 39.55h-75.61a16.55 16.55 0 1 1 0-33.1z" fill="#fff"/><path d="m909.9 515.76h-244.41c20.16-29.2 50.13-105.68 130.26-100.65 54.68 3.44 95.43 62.11 114.15 100.65z" fill="#47b881"/><path d="m715.23 464.66c34.06 4.65 50.32 32.52 91.35 16.8 53.78-20.6 46.07-90 114.58-102.46 36-6.56 62.34 10.84 82 38.31v73.23a25.22 25.22 0 0 1 -25.16 25.22h-349.48s52.64-55.76 86.71-51.1z" fill="#57e09e"/><g fill="#ccc"><rect height="12.77" rx="6.39" width="161.81" x="312.57" y="676.02"/><rect height="12.77" rx="6.39" width="161.81" x="312.57" y="707.26"/><rect height="12.77" rx="6.39" width="161.81" x="560.31" y="676.02"/><rect height="12.77" rx="6.39" width="161.81" x="560.31" y="707.26"/><rect height="12.77" rx="6.39" width="161.81" x="808.05" y="676.02"/><rect height="12.77" rx="6.39" width="161.81" x="808.05" y="707.26"/></g><rect fill="#ec4c47" height="120.06" rx="7.24" width="228.45" x="279.25" y="537.49"/><path d="m507.7 650.31v-93.52c-61-1.55-114.23 100.76-114.23 100.76h107a7.24 7.24 0 0 0 7.23-7.24z" fill="#bf0e08"/><path d="m507.7 650.31v-30.31c-29.3 26.85-60.51-18.34-100.76-35.37s-85.17 72.89-85.17 72.89h178.69a7.24 7.24 0 0 0 7.24-7.21z" fill="#ff6e6b"/><circle cx="319.06" cy="572.66" fill="#fabbbb" r="15.87"/><rect fill="#735dd0" height="120.06" rx="7.24" width="228.45" x="526.99" y="537.49"/><path d="m755.44 650.31v-93.52c-61.05-1.55-114.23 100.76-114.23 100.76h107a7.24 7.24 0 0 0 7.23-7.24z" fill="#37248f"/><path d="m755.44 650.31v-30.31c-29.3 26.85-60.51-18.34-100.77-35.37s-85.16 72.89-85.16 72.89h178.69a7.24 7.24 0 0 0 7.24-7.21z" fill="#8c73f0"/><circle cx="566.8" cy="572.66" fill="#c9bff8" r="15.87"/><rect fill="#1070ca" height="120.06" rx="7.24" width="228.45" x="774.72" y="537.49"/><path d="m1003.18 650.31v-93.52c-61.05-1.55-114.18 100.76-114.18 100.76h107a7.24 7.24 0 0 0 7.18-7.24z" fill="#084b8a"/><path d="m1003.18 650.31v-30.31c-29.3 26.85-60.51-18.34-100.77-35.37s-85.16 72.89-85.16 72.89h178.69a7.24 7.24 0 0 0 7.24-7.21z" fill="#599ede"/><circle cx="814.54" cy="572.66" fill="#a1d1ff" r="15.87"/><path d="m677.94 187.11h-414.65a24 24 0 0 0 -24 24v25.49h432.45z" fill="#f2f2f2"/><path d="m491.06 187.11h29.03v49.53h-29.03z" fill="#fff"/><path d="m370.29 187.11h109.16v49.53h-109.16z" fill="#fff"/><path d="m325 187.11h16.26v49.53h-16.26z" fill="#fff"/><path d="m671.74 236.64h-432.49v513.9a24 24 0 0 0 24 24h341.23z" fill="#d9faff" stroke="#70004b" stroke-linecap="round" stroke-linejoin="round" stroke-width="4"/><path d="m270 754.58a10.74 10.74 0 0 1 -10.74-10.74v-480.5a6.7 6.7 0 0 1 6.7-6.7h403.28l-62.24 497.94z" fill="#4d4d4d"/><g clip-path="url(#a)" fill="none" stroke-linecap="round" stroke-miterlimit="10" stroke-width="8"><path d="m297.32 292.46h48.91" stroke="#ec4c47"/><path d="m325 312.14h118.9" stroke="#f2c698"/><path d="m325 333.05h118.9" stroke="#fff"/><path d="m297.32 351.56h48.91" stroke="#ec4c47"/><path d="m325 371.25h268.9" stroke="#f2c698"/><path d="m325 392.15h208.9" stroke="#fff"/><path d="m297.32 414.47h48.91" stroke="#ec4c47"/><path d="m325 434.15h133.59" stroke="#a1f1ff"/><path d="m325 455.06h133.59" stroke="#a1f1ff"/><g stroke="#ec4c47"><path d="m325 516.76h48.9"/><path d="m495.65 598.98h48.9"/><path d="m474.38 455.69h48.9"/><path d="m555.06 392.15h48.9"/><path d="m465.5 333.05h48.9"/><path d="m344.16 477.73h48.9"/></g><path d="m352.68 536.44h133.59" stroke="#a1f1ff"/><path d="m352.68 557.35h160.25" stroke="#a1f1ff"/><path d="m352.68 578.08h125.85" stroke="#fbecba"/><path d="m352.68 598.98h125.85" stroke="#fbecba"/><path d="m370.28 625.03h48.9" stroke="#ec4c47"/><path d="m397.96 644.72h133.59" stroke="#a1f1ff"/><path d="m397.96 665.62h160.25" stroke="#fff"/><path d="m397.96 686.35h230.56" stroke="#fbecba"/><path d="m397.96 707.26h230.56" stroke="#a4edca"/><path d="m713.13 477.73h-298.39" stroke="#a4edca"/><path d="m713.13 498.63h-298.39" stroke="#a4edca"/></g><path d="m671.74 236.64h-432.49v513.9a24 24 0 0 0 24 24h341.23z" fill="none" stroke="#70004b" stroke-linecap="round" stroke-linejoin="round" stroke-width="4"/><path d="m677.94 187.11h-414.65a24 24 0 0 0 -24 24v25.49h432.45z" fill="none" stroke="#70004b" stroke-linecap="round" stroke-linejoin="round" stroke-width="4"/><path d="m312.86 669.15h28.45v28.64h-28.45z" fill="#808080" stroke="#70004b" stroke-linecap="round" stroke-linejoin="round" stroke-width="4" transform="matrix(-.70710678 -.70710678 .70710678 -.70710678 75.08 1398.04)"/><circle cx="425.25" cy="585.3" fill="#14b5d0" opacity=".3" r="113.79"/><path d="m288 585.3a137.29 137.29 0 1 0 137.25-137.3 137.29 137.29 0 0 0 -137.25 137.3zm137.25-113.78a113.79 113.79 0 1 1 -113.79 113.78 113.78 113.78 0 0 1 113.79-113.78z" fill="#fff"/><path d="m309.21 575.26a113.78 113.78 0 0 1 225.79-20 113.77 113.77 0 0 0 -221.75 50 113.54 113.54 0 0 1 -4.04-30z" fill="#ccc"/><path d="m423 712.55a137.33 137.33 0 0 0 135-162.36 137.31 137.31 0 1 1 -267.74 60.19 137.35 137.35 0 0 0 132.74 102.17z" fill="#ccc"/><path d="m288 585.3a137.29 137.29 0 1 0 137.25-137.3 137.29 137.29 0 0 0 -137.25 137.3zm137.25-113.78a113.79 113.79 0 1 1 -113.79 113.78 113.78 113.78 0 0 1 113.79-113.78z" fill="none" stroke="#70004b" stroke-linecap="round" stroke-linejoin="round" stroke-width="4"/><path d="m254.07 672h21.36a9.72 9.72 0 0 1 9.72 9.72v135.17a2.73 2.73 0 0 1 -2.73 2.73h-35.34a2.73 2.73 0 0 1 -2.73-2.73v-135.19a9.72 9.72 0 0 1 9.72-9.72z" fill="#fff" transform="matrix(-.70710678 -.70710678 .70710678 -.70710678 -75.39 1460.36)"/><path d="m206.18 775.52 13.93 13.93a9.72 9.72 0 0 0 13.75 0l89.48-89.45 6.12 6.12a2.73 2.73 0 0 1 0 3.85l-95.6 95.6a9.72 9.72 0 0 1 -13.75 0l-15.11-15.13a9.74 9.74 0 0 1 0-13.75z" fill="#ccc"/><path d="m254.07 672h21.36a9.72 9.72 0 0 1 9.72 9.72v135.17a2.73 2.73 0 0 1 -2.73 2.73h-35.34a2.73 2.73 0 0 1 -2.73-2.73v-135.19a9.72 9.72 0 0 1 9.72-9.72z" fill="none" stroke="#70004b" stroke-linecap="round" stroke-linejoin="round" stroke-width="4" transform="matrix(-.70710678 -.70710678 .70710678 -.70710678 -75.39 1460.36)"/></svg>