<?xml version="1.0" encoding="UTF-8"?>
<svg width="1349px" height="980px" viewBox="0 0 1349 980" version="1.1" xmlns="http://www.w3.org/2000/svg" xmlns:xlink="http://www.w3.org/1999/xlink">
    <!-- Generator: Sketch 52.6 (67491) - http://www.bohemiancoding.com/sketch -->
    <title>Artboard</title>
    <desc>Created with Sketch.</desc>
    <defs>
        <path d="M11,498.58 C5.06846179,498.58 0.26,493.771538 0.26,487.84 L0.26,7.34 C0.26,3.63969218 3.25969218,0.64 6.96,0.64 L410.24,0.64 L348,498.58 L11,498.58 Z" id="path-1"></path>
    </defs>
    <g id="Artboard" stroke="none" stroke-width="1" fill="none" fill-rule="evenodd">
        <g id="visual-code-review" transform="translate(82.000000, 96.000000)">
            <circle id="Oval" fill="#CCE6FF" cx="779.33" cy="340.17" r="35.22"></circle>
            <path d="M756.62,24.45 L755.84,25.45 C738.16584,48.6747858 740.748326,81.4680427 761.84,101.64 L821.59,158.87 C822.170391,159.420406 822.721165,160.001222 823.24,160.61 C826.86,164.9 842.72,183.61 860.24,204.36 C875.37,222.24 857.14,248.63 834.97,240.77 L833.7,240.32 C819.329535,235.223122 803.315117,240.089494 794.21,252.32 L792.35,254.82 C772.35,281.64 793.22,319.5 826.56,316.99 C839.621672,315.996304 852.479867,320.667822 861.857616,329.813998 C871.235365,338.960175 876.226861,351.697569 875.56,364.78 L875.37,368.44 C874.82316,379.235547 879.580453,389.618341 888.113832,396.253422 C896.647211,402.888503 907.882158,404.940384 918.21,401.75 L954.36,390.58 C964.472711,387.458075 975.478444,390.471689 982.59,398.31 C990.538262,407.066565 1001.72286,412.190275 1013.54496,412.490597 C1025.36706,412.790919 1036.79738,408.241705 1045.18,399.9 L1046.05,399.03 C1060.41071,384.764801 1060.67335,361.617362 1046.64,347.03 L1046.24,346.62 C1044.59648,344.906141 1043.71344,342.601988 1043.7906,340.228695 C1043.86777,337.855402 1044.89862,335.613477 1046.65,334.01 L1077.86,305.44 C1119.94083,266.90319 1135.63265,207.337593 1118,153.07 L1103.82,109.47 C1101.71464,102.973415 1096.82424,97.7526389 1090.47895,95.22767 C1084.13366,92.7027012 1076.99331,93.136105 1071,96.41 C1057.54756,103.731763 1041.73515,105.4016 1027.05011,101.05124 C1012.36506,96.7008794 1000.01368,86.6876806 992.72,73.22 L982.72,54.68 C974.468663,39.4507263 960.284944,28.3132634 943.53319,23.9093932 C926.781436,19.505523 908.954177,22.2276169 894.28,31.43 L893.95,31.64 C888.17,35.26 857.61,21.15 830.69,7.38 C805.128093,-5.65080746 773.90042,1.5458495 756.62,24.45 Z M1013.06,330.15 C1013.06405,339.320068 1007.54324,347.589441 999.072365,351.101478 C990.601487,354.613514 980.849076,352.676434 974.363428,346.193647 C967.87778,339.710859 965.936397,329.959304 969.444696,321.486878 C972.952995,313.014452 981.219931,307.490001 990.39,307.49 C1002.90639,307.489999 1013.05448,317.63361 1013.06,330.15 Z M953.06,70.15 C953.064045,79.320068 947.543242,87.5894412 939.072365,91.1014775 C930.601487,94.6135138 920.849076,92.676434 914.363428,86.1936467 C907.87778,79.7108593 905.936397,69.959304 909.444696,61.4868779 C912.952995,53.0144517 921.219931,47.4900009 930.39,47.49 C942.906391,47.4899988 953.054479,57.6336101 953.06,70.15 Z" id="Shape" fill="#CCE6FF" fill-rule="nonzero"></path>
            <circle id="Oval" fill="#CCE6FF" cx="1038.55" cy="59.03" r="29.85"></circle>
            <circle id="Oval" fill="#CCE6FF" cx="952.89" cy="435.77" r="29.85"></circle>
            <circle id="Oval" fill="#FEF8E7" cx="125.92" cy="458.51" r="35.22"></circle>
            <path d="M441.64,435.8 L440.64,435.02 C417.415214,417.34584 384.621957,419.928326 364.45,441.02 L307.22,500.77 C306.666169,501.350473 306.082019,501.901242 305.47,502.42 L261.73,539.42 C243.85,554.55 217.46,536.32 225.32,514.15 L225.77,512.88 C230.866878,498.509535 226.000506,482.495117 213.77,473.39 L211.26,471.53 C184.45,451.53 146.58,472.4 149.1,505.74 C150.093696,518.801672 145.422178,531.659867 136.276002,541.037616 C127.129825,550.415365 114.392431,555.406861 101.31,554.74 L97.65,554.55 C86.8544533,554.00316 76.471659,558.760453 69.8365781,567.293832 C63.2014972,575.827211 61.1496159,587.062158 64.34,597.39 L75.51,633.54 C78.631925,643.652711 75.6183112,654.658444 67.78,661.77 C59.0220845,669.71687 53.896535,680.900701 53.594324,692.722819 C53.2921129,704.544938 57.8395526,715.976042 66.18,724.36 L67.06,725.24 C81.330206,739.59255 104.473212,739.850683 119.06,725.82 L119.47,725.42 C121.183859,723.776478 123.488012,722.893437 125.861305,722.970602 C128.234598,723.047767 130.476523,724.078619 132.08,725.83 L160.59,757 C199.134133,799.096713 258.720492,814.789886 313,797.14 L356.62,783 C363.105112,780.892268 368.316385,776.008671 370.840245,769.673899 C373.364105,763.339126 372.938912,756.209884 369.68,750.22 C362.358237,736.767565 360.6884,720.955154 365.03876,706.270107 C369.389121,691.585061 379.402319,679.233682 392.87,671.94 L411.4,661.94 C426.630959,653.690418 437.770579,639.507473 442.176385,622.75556 C446.582191,606.003647 443.861609,588.175425 434.66,573.5 L434.45,573.17 C430.83,567.39 444.94,536.83 458.71,509.91 C471.763555,484.338134 464.56488,453.084835 441.64,435.8 Z M135.93,692.24 C123.409705,692.24 113.26,682.090295 113.26,669.57 C113.26,657.049705 123.409705,646.9 135.93,646.9 C148.450295,646.9 158.6,657.049705 158.6,669.57 C158.6,682.090295 148.450295,692.24 135.93,692.24 Z M395.93,632.24 C386.760841,632.24 378.494536,626.716632 374.985651,618.245433 C371.476766,609.774235 373.416315,600.023464 379.899889,593.539889 C386.383464,587.056315 396.134235,585.116766 404.605433,588.625651 C413.076632,592.134536 418.6,600.400841 418.6,609.57 C418.6,622.090295 408.450295,632.24 395.93,632.24 Z" id="Shape" fill="#FEF8E7" fill-rule="nonzero"></path>
            <circle id="Oval" fill="#FEF8E7" cx="407.06" cy="717.73" r="29.85"></circle>
            <circle id="Oval" fill="#FEF8E7" cx="30.32" cy="632.07" r="29.85"></circle>
            <path d="M182.25,675.54 C182.25,688.794834 192.995166,699.54 206.25,699.54 L962.1,699.54 C975.354834,699.54 986.1,688.794834 986.1,675.54 L986.1,161.64 L182.25,161.64 L182.25,675.54 Z" id="Path" stroke="#70004B" stroke-width="4" fill="#D9FAFF" stroke-linecap="round" stroke-linejoin="round"></path>
            <path d="M206.29,679.58 C204.080861,679.58 202.29,677.789139 202.29,675.58 L202.29,181.64 L966.22,181.64 L966.22,675.54 C966.22,677.749139 964.429139,679.54 962.22,679.54 L206.29,679.58 Z" id="Path" fill="#FFFFFF"></path>
            <rect id="Rectangle" fill="#23D5F2" x="222.25" y="201.64" width="723.93" height="31.63" rx="15.815"></rect>
            <path d="M962.14,112.11 L206.29,112.11 C193.035166,112.11 182.29,122.855166 182.29,136.11 L182.29,161.6 L986.220034,161.6 L986.22,136.15 C986.230679,129.76399 983.695833,123.637045 979.176484,119.125203 C974.657134,114.613361 968.525983,112.088704 962.14,112.11 Z" id="Path" fill="#F2F2F2"></path>
            <polygon id="Path" fill="#FFFFFF" points="814.06 112.11 843.09 112.11 843.09 161.64 814.06 161.64"></polygon>
            <polygon id="Path" fill="#FFFFFF" points="693.29 112.11 802.45 112.11 802.45 161.64 693.29 161.64"></polygon>
            <polygon id="Path" fill="#FFFFFF" points="648 112.11 664.26 112.11 664.26 161.64 648 161.64"></polygon>
            <path d="M962.14,112.11 L206.29,112.11 C193.035166,112.11 182.29,122.855166 182.29,136.11 L182.29,161.6 L986.220034,161.6 L986.22,136.15 C986.230679,129.76399 983.695833,123.637045 979.176484,119.125203 C974.657134,114.613361 968.525983,112.088704 962.14,112.11 Z" id="Path" stroke="#70004B" stroke-width="4" stroke-linecap="round" stroke-linejoin="round"></path>
            <rect id="Rectangle" fill="#CCE6FF" x="222.25" y="258.05" width="723.93" height="182.71" rx="25.22"></rect>
            <circle id="Oval" fill="#FFE280" cx="696.4" cy="313.64" r="34.3"></circle>
            <path d="M607.23,330 C607.72,330 608.23,330 608.68,330.07 L608.68,330 C608.694123,312.985062 621.605961,298.752452 638.539153,297.086511 C655.472344,295.42057 670.910277,306.86404 674.24,323.55 C681.938538,320.056545 690.987834,321.595697 697.098515,327.437896 C703.209195,333.280095 705.153114,342.251156 702.008852,350.098788 C698.86459,357.94642 691.264092,363.093378 682.81,363.1 L607.23,363.1 C598.089687,363.1 590.68,355.690313 590.68,346.55 C590.68,337.409687 598.089687,330 607.23,330 Z" id="Path" fill="#FFFFFF"></path>
            <path d="M788.39,306.37 C788.88,306.37 789.39,306.37 789.84,306.44 L789.84,306.37 C789.854123,289.355062 802.765961,275.122452 819.699153,273.456511 C836.632344,271.79057 852.070277,283.23404 855.4,299.92 C863.095213,296.428103 872.140378,297.964338 878.251214,303.80106 C884.36205,309.637783 886.311498,318.602976 883.176193,326.450237 C880.040888,334.297498 872.450402,339.451093 864,339.47 L788.39,339.47 C779.249687,339.47 771.84,332.060313 771.84,322.92 C771.84,313.779687 779.249687,306.37 788.39,306.37 Z" id="Path" fill="#FFFFFF"></path>
            <path d="M852.9,440.76 L608.49,440.76 C628.65,411.56 658.62,335.08 738.75,340.11 C793.43,343.55 834.18,402.22 852.9,440.76 Z" id="Path" fill="#47B881"></path>
            <path d="M658.23,389.66 C692.29,394.31 708.55,422.18 749.58,406.46 C803.36,385.86 795.65,316.46 864.16,304 C900.16,297.44 926.5,314.84 946.16,342.31 L946.16,415.54 C946.160039,429.445224 934.905184,440.726919 921,440.76 L571.52,440.76 C571.52,440.76 624.16,385 658.23,389.66 Z" id="Path" fill="#57E09E"></path>
            <g id="Group" transform="translate(255.000000, 601.000000)" fill="#CCCCCC">
                <rect id="Rectangle" x="0.57" y="0.02" width="161.81" height="12.77" rx="6.385"></rect>
                <rect id="Rectangle" x="0.57" y="31.26" width="161.81" height="12.77" rx="6.385"></rect>
                <rect id="Rectangle" x="248.31" y="0.02" width="161.81" height="12.77" rx="6.385"></rect>
                <rect id="Rectangle" x="248.31" y="31.26" width="161.81" height="12.77" rx="6.385"></rect>
                <rect id="Rectangle" x="496.05" y="0.02" width="161.81" height="12.77" rx="6.385"></rect>
                <rect id="Rectangle" x="496.05" y="31.26" width="161.81" height="12.77" rx="6.385"></rect>
            </g>
            <rect id="Rectangle" fill="#EC4C47" x="222.25" y="462.49" width="228.45" height="120.06" rx="7.24"></rect>
            <path d="M450.7,575.31 L450.7,481.79 C389.7,480.24 336.47,582.55 336.47,582.55 L443.47,582.55 C447.464636,582.544483 450.700004,579.30464 450.7,575.31 Z" id="Path" fill="#BF0E08"></path>
            <path d="M450.7,575.31 L450.7,545 C421.4,571.85 390.19,526.66 349.94,509.63 C309.69,492.6 264.77,582.52 264.77,582.52 L443.46,582.52 C447.446855,582.520034 450.68348,579.296821 450.7,575.31 Z" id="Path" fill="#FF6E6B"></path>
            <circle id="Oval" fill="#FABBBB" cx="262.06" cy="497.66" r="15.87"></circle>
            <rect id="Rectangle" fill="#735DD0" x="469.99" y="462.49" width="228.45" height="120.06" rx="7.24"></rect>
            <path d="M698.44,575.31 L698.44,481.79 C637.39,480.24 584.21,582.55 584.21,582.55 L691.21,582.55 C695.204636,582.544483 698.440004,579.30464 698.44,575.31 Z" id="Path" fill="#37248F"></path>
            <path d="M698.44,575.31 L698.44,545 C669.14,571.85 637.93,526.66 597.67,509.63 C557.41,492.6 512.51,582.52 512.51,582.52 L691.2,582.52 C695.186855,582.520034 698.42348,579.296821 698.44,575.31 Z" id="Path" fill="#8C73F0"></path>
            <circle id="Oval" fill="#C9BFF8" cx="509.8" cy="497.66" r="15.87"></circle>
            <rect id="Rectangle" fill="#1070CA" x="717.72" y="462.49" width="228.45" height="120.06" rx="7.24"></rect>
            <path d="M946.18,575.31 L946.18,481.79 C885.13,480.24 832,582.55 832,582.55 L939,582.55 C942.97509,582.517056 946.180137,579.285227 946.18,575.31 Z" id="Path" fill="#084B8A"></path>
            <path d="M946.18,575.31 L946.18,545 C916.88,571.85 885.67,526.66 845.41,509.63 C805.15,492.6 760.25,582.52 760.25,582.52 L938.94,582.52 C942.926855,582.520034 946.16348,579.296821 946.18,575.31 Z" id="Path" fill="#599EDE"></path>
            <circle id="Oval" fill="#A1D1FF" cx="757.54" cy="497.66" r="15.87"></circle>
            <path d="M620.94,112.11 L206.29,112.11 C193.035166,112.11 182.29,122.855166 182.29,136.11 L182.29,161.6 L614.74,161.6 L620.94,112.11 Z" id="Path" fill="#F2F2F2"></path>
            <polygon id="Path" fill="#FFFFFF" points="434.06 112.11 463.09 112.11 463.09 161.64 434.06 161.64"></polygon>
            <polygon id="Path" fill="#FFFFFF" points="313.29 112.11 422.45 112.11 422.45 161.64 313.29 161.64"></polygon>
            <polygon id="Path" fill="#FFFFFF" points="268 112.11 284.26 112.11 284.26 161.64 268 161.64"></polygon>
            <path d="M614.74,161.64 L182.25,161.64 L182.25,675.54 C182.25,688.794834 192.995166,699.54 206.25,699.54 L547.48,699.54 L614.74,161.64 Z" id="Path" stroke="#70004B" stroke-width="4" fill="#D9FAFF" stroke-linecap="round" stroke-linejoin="round"></path>
            <path d="M213,679.58 C207.068462,679.58 202.26,674.771538 202.26,668.84 L202.26,188.34 C202.26,184.639692 205.259692,181.64 208.96,181.64 L612.24,181.64 L550,679.58 L213,679.58 Z" id="Path" fill="#4D4D4D"></path>
            <g id="Clipped" transform="translate(202.000000, 181.000000)">
                <mask id="mask-2" fill="white">
                    <use xlink:href="#path-1"></use>
                </mask>
                <g id="Path"></g>
                <g id="Group" mask="url(#mask-2)">
                    <g transform="translate(38.000000, 35.000000)">
                        <path d="M0.32,1.46 L49.23,1.46" id="Path" stroke="#EC4C47"></path>
                        <path d="M28,21.14 L146.9,21.14" id="Path" stroke="#F2C698"></path>
                        <path d="M28,42.05 L146.9,42.05" id="Path" stroke="#FFFFFF"></path>
                        <path d="M0.32,60.56 L49.23,60.56" id="Path" stroke="#EC4C47"></path>
                        <path d="M28,80.25 L296.9,80.25" id="Path" stroke="#F2C698"></path>
                        <path d="M28,101.15 L236.9,101.15" id="Path" stroke="#FFFFFF"></path>
                        <path d="M0.32,123.47 L49.23,123.47" id="Path" stroke="#EC4C47"></path>
                        <path d="M28,143.15 L161.59,143.15" id="Path" stroke="#A1F1FF"></path>
                        <path d="M28,164.06 L161.59,164.06" id="Path" stroke="#A1F1FF"></path>
                        <g id="Group" stroke="none" fill-rule="evenodd" transform="translate(28.000000, 41.000000)">
                            <path d="M0,184.76 L48.9,184.76" id="Path" stroke="#EC4C47"></path>
                            <path d="M170.65,266.98 L219.55,266.98" id="Path" stroke="#EC4C47"></path>
                            <path d="M149.38,123.69 L198.28,123.69" id="Path" stroke="#EC4C47"></path>
                            <path d="M230.06,60.15 L278.96,60.15" id="Path" stroke="#EC4C47"></path>
                            <path d="M140.5,1.05 L189.4,1.05" id="Path" stroke="#EC4C47"></path>
                            <path d="M19.16,145.73 L68.06,145.73" id="Path" stroke="#EC4C47"></path>
                        </g>
                        <path d="M55.68,245.44 L189.27,245.44" id="Path" stroke="#A1F1FF"></path>
                        <path d="M55.68,266.35 L215.93,266.35" id="Path" stroke="#A1F1FF"></path>
                        <path d="M55.68,287.08 L181.53,287.08" id="Path" stroke="#FBECBA"></path>
                        <path d="M55.68,307.98 L181.53,307.98" id="Path" stroke="#FBECBA"></path>
                        <path d="M73.28,334.03 L122.18,334.03" id="Path" stroke="#EC4C47"></path>
                        <path d="M100.96,353.72 L234.55,353.72" id="Path" stroke="#A1F1FF"></path>
                        <path d="M100.96,374.62 L261.21,374.62" id="Path" stroke="#FFFFFF"></path>
                        <path d="M100.96,395.35 L331.52,395.35" id="Path" stroke="#FBECBA"></path>
                        <path d="M100.96,416.26 L331.52,416.26" id="Path" stroke="#A4EDCA"></path>
                        <path d="M416.13,186.73 L117.74,186.73" id="Path" stroke="#A4EDCA"></path>
                        <path d="M416.13,207.63 L117.74,207.63" id="Path" stroke="#A4EDCA"></path>
                    </g>
                </g>
            </g>
            <path d="M614.74,161.64 L182.25,161.64 L182.25,675.54 C182.25,688.794834 192.995166,699.54 206.25,699.54 L547.48,699.54 L614.74,161.64 Z" id="Path" stroke="#70004B" stroke-width="4" stroke-linecap="round" stroke-linejoin="round"></path>
            <path d="M620.94,112.11 L206.29,112.11 C193.035166,112.11 182.29,122.855166 182.29,136.11 L182.29,161.6 L614.74,161.6 L620.94,112.11 Z" id="Path" stroke="#70004B" stroke-width="4" stroke-linecap="round" stroke-linejoin="round"></path>
            <g id="Group-2" transform="translate(794.500000, 584.170000) scale(-1, 1) translate(-794.500000, -584.170000) translate(612.000000, 400.170000)">
                <polygon id="Path" stroke="#70004B" stroke-width="3.99999999" fill="#808080" stroke-linecap="round" stroke-linejoin="round" transform="translate(128.184363, 235.468940) rotate(-135.000000) translate(-128.184363, -235.468940) " points="113.959363 221.14894 142.409363 221.14894 142.409363 249.78894 113.959363 249.78894"></polygon>
                <circle id="Oval" fill="#14B5D0" opacity="0.3" cx="226.79" cy="137.074577" r="113.79"></circle>
                <path d="M90,137.584583 C90.0040472,193.115934 123.460576,243.176309 174.767563,264.420696 C226.074551,285.665083 285.126924,273.909332 324.386368,234.635586 C363.645811,195.361841 375.380052,136.30519 354.116979,85.0059433 C332.853907,33.7066969 282.781349,0.268404169 227.25,0.284583307 C151.438543,0.306671083 89.9944748,61.7731232 90,137.584583 Z M227.25,23.8045833 C273.274669,23.8045835 314.767264,51.529709 332.379208,94.0513456 C349.991152,136.572982 340.25393,185.516874 307.708144,218.0598 C275.162359,250.602725 226.217611,260.335646 183.697523,242.719965 C141.177434,225.104284 113.455955,183.609252 113.46,137.584583 C113.46,107.406518 125.448874,78.4646146 146.788926,57.126438 C168.128978,35.7882614 197.071935,23.801931 227.25,23.8045833 Z" id="Shape" fill="#FFFFFF" fill-rule="nonzero"></path>
                <path d="M111,127.078836 C110.995442,68.1271526 156.019147,18.9352416 214.740915,13.7337918 C273.462682,8.532342 326.432159,49.0442245 336.79,107.078836 C320.785189,48.3448696 261.382566,12.6164149 201.997883,26.0064223 C142.6132,39.3964296 104.291031,97.1597868 115.04,157.078836 C112.360349,147.303982 111.001609,137.214333 111,127.078836 Z" id="Path" fill="#CCCCCC"></path>
                <path d="M224.74,264.644577 C265.538815,264.635745 304.221453,246.48691 330.305994,215.115903 C356.390535,183.744895 367.176063,142.400015 359.74,102.284577 C372.626715,150.905381 357.897355,202.680872 321.347809,237.237791 C284.798264,271.794711 232.279149,283.601409 184.456335,268.012042 C136.633521,252.422674 101.162175,211.932686 92,162.474577 C107.956331,222.69326 162.443177,264.631795 224.74,264.644577 Z" id="Path" fill="#CCCCCC"></path>
                <path d="M90,137.584583 C90.0040472,193.115934 123.460576,243.176309 174.767563,264.420696 C226.074551,285.665083 285.126924,273.909332 324.386368,234.635586 C363.645811,195.361841 375.380052,136.30519 354.116979,85.0059433 C332.853907,33.7066969 282.781349,0.268404169 227.25,0.284583307 C151.438543,0.306671083 89.9944748,61.7731232 90,137.584583 Z M227.25,23.8045833 C273.274669,23.8045835 314.767264,51.529709 332.379208,94.0513456 C349.991152,136.572982 340.25393,185.516874 307.708144,218.0598 C275.162359,250.602725 226.217611,260.335646 183.697523,242.719965 C141.177434,225.104284 113.455955,183.609252 113.46,137.584583 C113.46,107.406518 125.448874,78.4646146 146.788926,57.126438 C168.128978,35.7882614 197.071935,23.801931 227.25,23.8045833 Z" id="Shape" stroke="#70004B" stroke-width="4" stroke-linecap="round" stroke-linejoin="round"></path>
                <path d="M55.9436008,224.108178 L77.3036008,224.108178 C82.6718086,224.108178 87.0236008,228.459971 87.0236008,233.828178 L87.0236008,368.998178 C87.0236008,370.505915 85.8013381,371.728178 84.2936008,371.728178 L48.9536008,371.728178 C47.4458635,371.728178 46.2236008,370.505915 46.2236008,368.998178 L46.2236008,233.808178 C46.2236008,228.439971 50.5753931,224.088178 55.9436008,224.088178 L55.9436008,224.108178 Z" id="Path" fill="#FFFFFF" transform="translate(66.623601, 297.908178) rotate(-135.000000) translate(-66.623601, -297.908178) "></path>
                <path d="M8.02058155,327.804577 L21.9505815,341.734577 C23.7735912,343.558607 26.2467352,344.583422 28.8255815,344.583422 C31.4044279,344.583422 33.8775719,343.558607 35.7005815,341.734577 L125.180582,252.284577 L131.300582,258.404577 C132.359531,259.469461 132.359531,261.189694 131.300582,262.254577 L35.7005815,357.854577 C33.8775719,359.678607 31.4044279,360.703422 28.8255815,360.703422 C26.2467352,360.703422 23.7735912,359.678607 21.9505815,357.854577 L6.84058155,342.724577 C3.05313948,338.923683 3.05313948,332.775472 6.84058155,328.974577 L8.02058155,327.804577 Z" id="Path" fill="#CCCCCC"></path>
                <path d="M55.9436008,227.108178 L77.3036008,227.108178 C82.6718086,227.108178 87.0236008,231.459971 87.0236008,236.828178 L87.0236008,371.998178 C87.0236008,373.505915 85.8013381,374.728178 84.2936008,374.728178 L48.9536008,374.728178 C47.4458635,374.728178 46.2236008,373.505915 46.2236008,371.998178 L46.2236008,236.808178 C46.2236008,231.439971 50.5753931,227.088178 55.9436008,227.088178 L55.9436008,227.108178 Z" id="Path" stroke="#70004B" stroke-width="3.99999999" stroke-linecap="round" stroke-linejoin="round" transform="translate(66.623601, 300.908178) rotate(-135.000000) translate(-66.623601, -300.908178) "></path>
            </g>
        </g>
    </g>
</svg>