<svg xmlns="http://www.w3.org/2000/svg" viewBox="0 0 1282.42 961.69"><defs><style>.cls-1{isolation:isolate;}.cls-2{fill:#fef8e7;}.cls-3{fill:#eae5fc;}.cls-4{fill:#999;}.cls-5{fill:gray;}.cls-6,.cls-8{fill:none;}.cls-17,.cls-20,.cls-21,.cls-22,.cls-26,.cls-6{stroke:#70004b;stroke-linecap:round;stroke-linejoin:round;stroke-width:4px;}.cls-26,.cls-7{fill:#ccc;}.cls-9{fill:#a1f1ff;}.cls-10{fill:#57e09e;}.cls-11{fill:#a4edca;}.cls-12,.cls-13{fill:#29bfed;mix-blend-mode:multiply;}.cls-12{opacity:0.3;}.cls-13{opacity:0.2;}.cls-14{fill:#f2f2f2;}.cls-15{fill:#d9822b;}.cls-16{fill:#95591e;}.cls-17,.cls-27{fill:#f2c698;}.cls-18{fill:#599ede;}.cls-19,.cls-21{fill:#1070ca;}.cls-20,.cls-23{fill:#4d4d4d;}.cls-22,.cls-25{fill:#fff;}.cls-24{fill:#333;}</style></defs><title>World-Class Support</title><g class="cls-1"><g id="Layer_1" data-name="Layer 1"><circle class="cls-2" cx="987.7" cy="450.48" r="35.22"/><path class="cls-2" d="M692,563.47l1.21.45a57.36,57.36,0,0,0,71.21-27.74L802,462.44c.37-.71.77-1.41,1.2-2.08l31.18-48.09c12.74-19.65,43.28-9.82,42.16,13.67l-.07,1.35a34.76,34.76,0,0,0,22.91,34.33l2.93,1.06c31.45,11.37,61.67-19.52,49.63-50.71h0a45.6,45.6,0,0,1,31.59-60.7l3.56-.88a33.1,33.1,0,0,0,19.51-50.63l-21.14-31.39a27.24,27.24,0,0,1-.77-29.25h0a43.29,43.29,0,0,0-16.57-60.38l-1.09-.59a37.08,37.08,0,0,0-49.92,14.47l-.27.49a8.83,8.83,0,0,1-12.2,3.26l-36.37-21.62a145.57,145.57,0,0,0-157.52,5.63l-37.65,26.18a22.94,22.94,0,0,0-3,35.15h0a57.68,57.68,0,0,1,.43,81.64l-14.85,15a62.7,62.7,0,0,0,3.31,91.39l.29.25c5.14,4.49.46,37.82-4.94,67.57A59.14,59.14,0,0,0,692,563.47ZM910.55,229.62a22.66,22.66,0,1,1-15.14,28.25A22.66,22.66,0,0,1,910.55,229.62ZM679,362.21a22.66,22.66,0,1,1-15.14,28.24A22.66,22.66,0,0,1,679,362.21Z"/><circle class="cls-2" cx="643.63" cy="283.58" r="29.85"/><circle class="cls-2" cx="1029.05" cy="256.69" r="29.85"/><circle class="cls-3" cx="483.01" cy="494.12" r="35.22"/><path class="cls-3" d="M596,789.79l.45-1.21a57.38,57.38,0,0,0-27.74-71.21L495,679.86a20.4,20.4,0,0,1-2.08-1.2l-48.09-31.18c-19.65-12.74-9.82-43.27,13.67-42.16l1.35.07a34.75,34.75,0,0,0,34.33-22.9l1.06-2.94c11.37-31.44-19.53-61.67-50.71-49.62h0a45.61,45.61,0,0,1-60.7-31.6l-.88-3.55a33.11,33.11,0,0,0-50.64-19.52l-31.38,21.15a27.24,27.24,0,0,1-29.25.76h0a43.28,43.28,0,0,0-60.38,16.56l-.59,1.09a37.08,37.08,0,0,0,14.47,49.92l.49.28a8.81,8.81,0,0,1,3.25,12.19l-21.61,36.37a145.61,145.61,0,0,0,5.62,157.53l26.18,37.64a22.94,22.94,0,0,0,35.15,3h0a57.69,57.69,0,0,1,81.65-.42l15,14.84a62.71,62.71,0,0,0,91.39-3.3l.26-.3c4.49-5.13,37.82-.46,67.57,4.94A59.13,59.13,0,0,0,596,789.79ZM262.16,571.26A22.66,22.66,0,1,1,290.4,586.4,22.67,22.67,0,0,1,262.16,571.26ZM394.75,802.82A22.66,22.66,0,1,1,423,818,22.67,22.67,0,0,1,394.75,802.82Z"/><circle class="cls-3" cx="316.12" cy="838.18" r="29.85"/><circle class="cls-3" cx="289.23" cy="452.76" r="29.85"/><rect class="cls-4" x="531.66" y="719.96" width="39.16" height="52.96"/><rect class="cls-5" x="531.66" y="719.96" width="39.16" height="26.48"/><rect class="cls-6" x="531.66" y="719.96" width="39.16" height="52.96"/><path class="cls-7" d="M673.05,672.87A261.77,261.77,0,0,1,419.24,215L407.12,193.1a286.77,286.77,0,0,0,278,501.63Z"/><path class="cls-4" d="M419.24,215,407.12,193.1a289.5,289.5,0,0,0-28.41,18l12.21,22A265.23,265.23,0,0,1,419.24,215Z"/><path class="cls-4" d="M673.05,672.87a265.28,265.28,0,0,1-30.38,14.4l12.21,22a290.92,290.92,0,0,0,30.29-14.56Z"/><path class="cls-6" d="M673.05,672.87A261.77,261.77,0,0,1,419.24,215L407.12,193.1a286.77,286.77,0,0,0,278,501.63Z"/><path class="cls-8" d="M317.19,570.82A261.82,261.82,0,0,0,642.67,687.27L390.92,233.1a261.85,261.85,0,0,0-73.73,337.72Z"/><path class="cls-7" d="M702.91,726.73a10.88,10.88,0,0,1-14.78-4.24l-303-546.61a10.87,10.87,0,0,1,19-10.54L707.14,712A10.87,10.87,0,0,1,702.91,726.73Z"/><path class="cls-6" d="M702.91,726.73a10.88,10.88,0,0,1-14.78-4.24l-303-546.61a10.87,10.87,0,0,1,19-10.54L707.14,712A10.87,10.87,0,0,1,702.91,726.73Z"/><circle class="cls-9" cx="546.14" cy="443.92" r="240.47" transform="translate(-153.93 516.2) rotate(-45)"/><path class="cls-10" d="M492.26,264c17-20.37,65.37-7.79,90.28,23.34s28,82.5,1.55,91.84-46.69-28-66.93-43.58S468.91,292,492.26,264Z"/><path class="cls-10" d="M472,449.2c38.92-17.12,31.13-71.6-42-96.5-38.47-13.1-55.41-43.41-59.44-73.06a239.6,239.6,0,0,0-64.88,164.28c0,96.22,56.53,179.23,138.18,217.67C441,639,452.65,618,465.8,604.85c23.34-23.35,32.68-56-6.23-80.94S433.11,466.32,472,449.2Z"/><path class="cls-11" d="M415,645.47c9.79-26.21-3.75-58-17.3-72.45-19.77-21.09-32.95-88.31-13.18-118.62s13.18-68.53-18.46-87c-20.09-11.72-24.22-34.6-24.57-49.74A240.51,240.51,0,0,0,415,645.47Z"/><path class="cls-10" d="M608.38,211.6c-4.45,21.61,3.68,52.33,27.08,75.72,37.35,37.36,93.38,121.41,32.68,172.77s-99.61,112.07-38.91,149.43A187.92,187.92,0,0,0,693.37,634a240,240,0,0,0,93.24-190.12C786.61,332.64,711,239,608.38,211.6Z"/><path class="cls-11" d="M525.52,283.06c-12.08,9.5,18.45,71.17,39.54,64.58S544,268.56,525.52,283.06Z"/><path class="cls-12" d="M593.59,623.1c-132.81,0-240.47-107.66-240.47-240.47a239.41,239.41,0,0,1,29-114.5,239.81,239.81,0,0,0-76.4,175.79c0,132.8,107.66,240.46,240.46,240.46a240.42,240.42,0,0,0,211.51-126A239.64,239.64,0,0,1,593.59,623.1Z"/><path class="cls-11" d="M663.52,234c-.4,9.62,3.41,29.06,28.07,62.22,38.22,51.4,69.85,146.3,17.13,189.79S660,590.16,719.27,587.52a74.08,74.08,0,0,0,23.47-5.15A240.47,240.47,0,0,0,663.52,234Z"/><path class="cls-13" d="M542.66,446.49c-26.14,21.24-39.54,58-22.41,73.81s76.44-13.18,76.44-55.36S563.74,429.36,542.66,446.49Z"/><circle class="cls-6" cx="546.15" cy="443.92" r="240.47"/><path class="cls-7" d="M398.82,772.92H703.67a10.62,10.62,0,0,1,10.62,10.62v18.41a0,0,0,0,1,0,0H388.21a0,0,0,0,1,0,0V783.54A10.62,10.62,0,0,1,398.82,772.92Z"/><rect class="cls-14" x="421.94" y="772.92" width="19.63" height="29.03"/><rect class="cls-14" x="449.99" y="772.92" width="7.29" height="29.03"/><rect class="cls-14" x="622.47" y="772.92" width="19.63" height="29.03"/><rect class="cls-14" x="650.52" y="772.92" width="7.29" height="29.03"/><rect class="cls-14" x="607.05" y="772.92" width="7.29" height="29.03"/><path class="cls-6" d="M398.82,772.92H703.67a10.62,10.62,0,0,1,10.62,10.62v18.41a0,0,0,0,1,0,0H388.21a0,0,0,0,1,0,0V783.54A10.62,10.62,0,0,1,398.82,772.92Z"/><path class="cls-15" d="M1010.66,579.23c-33.84-59.23-34.3-135.45-34.3-135.6h0a110.91,110.91,0,1,0-221.82,0s-.43,76.32-34.3,135.6a93.18,93.18,0,0,0-11.6,59.42l.06.44a92.07,92.07,0,0,0,68.95,76.31h0a364.25,364.25,0,0,0,175.6,0h0a92.07,92.07,0,0,0,69-76.31l.06-.44A93.18,93.18,0,0,0,1010.66,579.23Z"/><path class="cls-6" d="M1010.66,579.23c-33.84-59.23-34.3-135.45-34.3-135.6h0a110.91,110.91,0,1,0-221.82,0s-.43,76.32-34.3,135.6a93.18,93.18,0,0,0-11.6,59.42l.06.44a92.07,92.07,0,0,0,68.95,76.31h0a364.25,364.25,0,0,0,175.6,0h0a92.07,92.07,0,0,0,69-76.31l.06-.44A93.18,93.18,0,0,0,1010.66,579.23Z"/><ellipse class="cls-16" cx="865.45" cy="565.5" rx="95.65" ry="105.22"/><path class="cls-17" d="M847.9,568.54H883a0,0,0,0,1,0,0v28a13.94,13.94,0,0,1-13.94,13.94h-7.24a13.94,13.94,0,0,1-13.94-13.94v-28A0,0,0,0,1,847.9,568.54Z"/><path class="cls-17" d="M943.58,474.91a78.14,78.14,0,0,1-71.24-46.06,66.08,66.08,0,0,1-92,6.38v59.36a85.11,85.11,0,0,0,85.11,85.12h0a85.11,85.11,0,0,0,85.11-85.12v-20C948.26,474.78,945.94,474.91,943.58,474.91Z"/><path class="cls-18" d="M961.1,454.41a27.35,27.35,0,0,1,0,54.69Z"/><path class="cls-19" d="M961.1,493.22V509.1a27.36,27.36,0,0,0,26.17-35.28A27.37,27.37,0,0,1,961.1,493.22Z"/><path class="cls-6" d="M961.1,454.41a27.35,27.35,0,0,1,0,54.69Z"/><rect class="cls-20" x="949.34" y="446.81" width="11.75" height="69.88" rx="3.92"/><path class="cls-18" d="M769.8,454.41a27.35,27.35,0,0,0,0,54.69Z"/><path class="cls-19" d="M769.8,493.22V509.1a27.36,27.36,0,0,1-26.17-35.28A27.37,27.37,0,0,0,769.8,493.22Z"/><path class="cls-6" d="M769.8,454.41a27.35,27.35,0,0,0,0,54.69Z"/><rect class="cls-20" x="769.8" y="446.81" width="11.75" height="69.88" rx="3.92" transform="translate(1551.36 963.51) rotate(180)"/><path class="cls-6" d="M769.8,454.41v-5.15a95.65,95.65,0,0,1,95.65-95.65h0a95.65,95.65,0,0,1,95.65,95.65v5.15"/><path class="cls-21" d="M1004.33,666.55a63.46,63.46,0,0,0-44.2-45.64L906.35,605.6l-40.9-2-40.9,2-53.79,15.31a63.46,63.46,0,0,0-44.19,45.64L719,697a89.66,89.66,0,0,0,3.29,54l15.07,39.17H993.59L1008.66,751a89.66,89.66,0,0,0,3.29-54Z"/><polygon class="cls-22" points="847.89 586.74 824.55 605.6 847.43 636.15 865.45 603.65 847.89 586.74"/><polygon class="cls-22" points="883 586.74 906.35 605.6 883.48 636.15 865.45 603.65 883 586.74"/><rect class="cls-23" x="724.95" y="624.95" width="280.99" height="154.38" rx="4.63"/><path class="cls-24" d="M1006,773.48V630.78a5.77,5.77,0,0,0-.49-2.32C993.34,662.5,942,735.72,725,766.82v6.66a5.84,5.84,0,0,0,5.84,5.84h269.32A5.84,5.84,0,0,0,1006,773.48Z"/><rect class="cls-6" x="724.95" y="624.95" width="280.99" height="154.38" rx="4.63"/><circle class="cls-25" cx="865.45" cy="702.13" r="19.49"/><rect class="cls-20" x="724.95" y="790.16" width="280.99" height="11.78" rx="4.68"/><path class="cls-26" d="M755.23,773.34h34.12A5.61,5.61,0,0,1,795,779v11.21a0,0,0,0,1,0,0H749.62a0,0,0,0,1,0,0V779A5.61,5.61,0,0,1,755.23,773.34Z"/><path class="cls-26" d="M935.94,773.34h45.35a0,0,0,0,1,0,0v11.21a5.61,5.61,0,0,1-5.61,5.61H941.55a5.61,5.61,0,0,1-5.61-5.61V773.34a0,0,0,0,1,0,0Z" transform="translate(1917.22 1563.51) rotate(-180)"/><path class="cls-27" d="M815.8,392a55.41,55.41,0,0,1,21.46-18.41,63.83,63.83,0,0,1,56.39,0A55.17,55.17,0,0,1,915.1,392,100,100,0,0,0,891,380a81,81,0,0,0-51.09,0A99.46,99.46,0,0,0,815.8,392Z"/></g></g></svg>